<svg xmlns="http://www.w3.org/2000/svg" viewBox="0 0 37 55"><path style="fill:#005073;" d="M19.1,20.7L19.1,20.7z M18,54.5c-8.2,0-14.7-4.5-17.3-12.2c-1-2.9,0.5-6,3.4-6.9s6,0.5,6.9,3.4c1.1,3.2,3.4,4.8,7,4.8c3.2,0,7.8-2.1,7.8-5.6c0-1.7,0-6.2-6.6-6.2c-3-0.1-5.4-2.5-5.4-5.6c0-2.9,2.3-5.2,5.1-5.4c0.5-0.1,4-1.2,4-6c0.1-1.5-0.9-2.9-2.4-3.2c-2.5-0.6-6.1,0.6-8.2,4.6C11,19,7.8,20.2,5,18.9c-2.7-1.3-4-4.5-2.7-7.2c0.1-0.1,0.1-0.3,0.2-0.4C6.6,3.3,15-1,23,1c6.4,1.4,11,7.2,10.8,13.8c0.1,3.5-0.9,6.9-2.8,9.8c4.1,3.4,5.7,8.6,5.7,13.3C36.7,48.1,27,54.5,18,54.5"/></svg>