<svg xmlns="http://www.w3.org/2000/svg" viewBox="0 0 35 55"><path style="fill:#005073;" d="M34.2,6.7c0-0.2,0-0.4,0-0.6c0-0.1,0-0.2,0-0.3c0-0.1,0-0.1,0-0.2c0-0.2,0-0.4,0-0.6c0-0.2,0-0.3-0.1-0.5C34.1,4.4,34,4.2,34,4.1c-0.1-0.2-0.1-0.3-0.2-0.5c-0.1-0.2-0.2-0.3-0.2-0.4s-0.2-0.3-0.3-0.4c-0.1-0.1-0.2-0.3-0.3-0.4L32.6,2c-0.1-0.1-0.3-0.2-0.4-0.4c-0.1-0.1-0.3-0.2-0.4-0.3c-0.1-0.1-0.3-0.2-0.5-0.3C31.2,1,31,0.9,30.8,0.8l-0.2-0.1c-0.1,0-0.2-0.1-0.3-0.1c-0.2-0.1-0.3-0.1-0.5-0.1c-0.2,0-0.4-0.1-0.6-0.1c-0.1,0-0.2,0-0.3,0H6.1c-3,0-5.4,2.4-5.4,5.4c0,3,2.4,5.3,5.4,5.4h15.4L9.2,47.4c-1,2.8,0.5,5.8,3.3,6.8c2.8,1,5.8-0.5,6.8-3.3l0,0L34,7.6c0-0.1,0-0.2,0.1-0.3C34.1,7.1,34.2,6.9,34.2,6.7z"/></svg>