<svg xmlns="http://www.w3.org/2000/svg" viewBox="0 0 84 44.27"><defs><style>.cls-1{fill:#0c8cdd;}</style></defs><title>cisco-logo</title><g id="Layer_2" data-name="Layer 2"><g id="Content"><rect class="cls-1" x="23.76" y="29.42" width="3.68" height="14.6"/><path class="cls-1" d="M57.14,33.6a6.53,6.53,0,0,0-3.1-.78,3.9,3.9,0,1,0,0,7.79,6.64,6.64,0,0,0,3.1-.77v3.91a11.38,11.38,0,0,1-3.36.52c-4.14,0-7.77-2.85-7.77-7.56a7.43,7.43,0,0,1,7.77-7.55,11.4,11.4,0,0,1,3.36.52Z"/><path class="cls-1" d="M18.7,33.6a6.56,6.56,0,0,0-3.09-.78,3.9,3.9,0,1,0,0,7.79,6.67,6.67,0,0,0,3.09-.77v3.91a11.47,11.47,0,0,1-3.37.52,7.56,7.56,0,1,1,0-15.11,11.43,11.43,0,0,1,3.37.52Z"/><path class="cls-1" d="M76.44,36.71a7.71,7.71,0,1,1-7.71-7.55A7.5,7.5,0,0,1,76.44,36.71Zm-7.71-3.83a3.84,3.84,0,1,0,3.81,3.83A3.77,3.77,0,0,0,68.73,32.88Z"/><path class="cls-1" d="M41.41,32.74a12.36,12.36,0,0,0-2.88-.45c-1.48,0-2.27.49-2.27,1.2,0,.88,1.08,1.2,1.68,1.39l1,.32c2.39.76,3.48,2.4,3.48,4.17,0,3.67-3.23,4.9-6,4.9a23.33,23.33,0,0,1-4-.39V40.52a13.91,13.91,0,0,0,3.48.54c1.83,0,2.67-.54,2.67-1.37s-.73-1.16-1.64-1.45L36.14,38c-2-.65-3.76-1.86-3.76-4.27,0-2.73,2-4.57,5.44-4.57a15.5,15.5,0,0,1,3.59.47Z"/><path class="cls-1" d="M3.66,13.73a1.83,1.83,0,0,0-3.66,0v3.83a1.83,1.83,0,1,0,3.66,0Z"/><path class="cls-1" d="M13.71,8.7a1.83,1.83,0,0,0-3.66,0v8.86a1.83,1.83,0,0,0,3.66,0Z"/><path class="cls-1" d="M23.75,1.82a1.83,1.83,0,0,0-3.66,0V21.2a1.83,1.83,0,1,0,3.66,0Z"/><path class="cls-1" d="M33.79,8.7a1.83,1.83,0,0,0-3.65,0v8.86a1.83,1.83,0,1,0,3.65,0Z"/><path class="cls-1" d="M43.82,13.73a1.82,1.82,0,1,0-3.64,0v3.83a1.82,1.82,0,1,0,3.64,0Z"/><path class="cls-1" d="M53.88,8.7a1.83,1.83,0,0,0-3.65,0v8.86a1.83,1.83,0,1,0,3.65,0Z"/><path class="cls-1" d="M63.92,1.82a1.82,1.82,0,0,0-3.64,0V21.2a1.82,1.82,0,1,0,3.64,0Z"/><path class="cls-1" d="M74,8.7a1.84,1.84,0,0,0-3.67,0v8.86a1.84,1.84,0,0,0,3.67,0Z"/><path class="cls-1" d="M84,13.73a1.83,1.83,0,0,0-3.65,0v3.83a1.83,1.83,0,1,0,3.65,0Z"/></g></g></svg>