<?xml version="1.0" encoding="utf-8"?>
<svg xmlns="http://www.w3.org/2000/svg" viewBox="0 0 512 343.12">
<path style="fill:#00bceb;" d="M249.33,6.92c.48.28.92.61,1.36.92a13.72,13.72,0,0,0,1.25.85c7.87,4.83,16.27,7.48,23.58,7.48h0a24.77,24.77,0,0,0,18.19-7.3,27.3,27.3,0,0,0,6-8.87h-.25a28.07,28.07,0,0,1-5.91,8.79,24.64,24.64,0,0,1-18,7.22h0c-7.26,0-15.58-2.65-23.44-7.43-.41-.26-.8-.55-1.23-.85s-.9-.64-1.36-.94c-3.54-2.12-7.33-4.06-11-5.95L236.85,0h-.39c.62.33,1.26.65,1.9,1C242,2.86,245.81,4.81,249.33,6.92Z"/>
<path style="fill:#00bceb;" d="M15.54,22.61c5.12-3.26,10.4-6.64,13.79-11.48A27.77,27.77,0,0,0,33.5,0h-.24a27.69,27.69,0,0,1-4.14,11.07c-3.35,4.79-8.62,8.16-13.73,11.42C9.44,26.28,3.3,30.19.27,36.37a3.2,3.2,0,0,0-.27.56v.55c.14-.37.32-.72.48-1C3.51,30.29,9.64,26.38,15.54,22.61Z"/>
<path style="fill:#00bceb;" d="M273.78,8.65h0A15.39,15.39,0,0,0,281,6.89a14.21,14.21,0,0,0,4.21-3.34c.44-.48.92-1,1.47-1.49A14.51,14.51,0,0,0,287.71,0h-.25a16.65,16.65,0,0,1-1,2A18.73,18.73,0,0,0,285,3.47a13.94,13.94,0,0,1-4.13,3.28,15.1,15.1,0,0,1-7.05,1.74h0c-6.58,0-12.9-4-18.47-7.54L253.82,0h-.36l1.67,1.06C260.74,4.62,267.11,8.65,273.78,8.65Z"/>
<path style="fill:#00bceb;" d="M4.31,51.09c1.19-4.21,2.29-8.18,4-11C11.18,35.3,17.16,31.27,23.48,27a109.29,109.29,0,0,0,11.3-8.3A47,47,0,0,0,44.24,8,70.79,70.79,0,0,0,48,.67c.11-.22.23-.45.32-.67h-.25c-.09.21-.2.41-.3.62A64.19,64.19,0,0,1,44,7.92a46.73,46.73,0,0,1-9.44,10.69,115.14,115.14,0,0,1-11.27,8.27C17,31.18,11,35.21,8.07,40c-1.7,2.83-2.82,6.82-4,11S1.77,59.34,0,62.41c0,0,0,.05,0,.07v.43a4,4,0,0,1,.27-.44C2,59.38,3.19,55.17,4.31,51.09Z"/>
<path style="fill:#00bceb;" d="M23.69,103.56c8.25,2.27,18.51,5.07,22.43,10.8.27,3.12-1.33,5.79-3,8.6-2.4,3.94-5.11,8.41-3.59,15.39,1.17,5.31,5.72,8.72,11,12.66,2.18,1.63,4.4,3.31,6.53,5.22a66.66,66.66,0,0,1,12.29,15.55c3,4.85,5.29,8.69,13.07,10,4.64.77,11.14,1.31,15.59,1.62,2.47.18,4.76.28,6.82.28a45.38,45.38,0,0,0,8.85-.75c5.27-1.07,8.63-4,12.85-7.74,1.26-1.11,2.56-2.24,4-3.44,1-.83,2.31-1.73,3.71-2.71,2.91-2,5.91-4.08,6.74-5.75a3.34,3.34,0,0,0,.14-1.9,6.14,6.14,0,0,1-.05-1.74l0,0,0,0a60.53,60.53,0,0,0-9.56-6.6c-5.63-3.38-11-6.57-13-11.81-1.07-2.76-.68-5.72,1.17-9,2-3.51,6.55-7.36,12.93-10.84,2.88-1.57,5.93-3.2,9.16-4.94,14.82-7.93,31.62-16.91,40.8-24.73v0a5.17,5.17,0,0,0-.21-3.26c-1.19-3.29-4.93-7.19-10.29-10.72a46.22,46.22,0,0,0-15.55-6.73c-.37-.07-1.1-.21-1.88-.32-6.17-.94-12.58-.29-18.75.35-5.35.54-10.42,1.07-15.34.63-10.63-1-18.27-5.84-21-13.39C96,48.2,105.85,42,115.35,36c7-4.46,14.25-9,16.15-15.1,1.81-5.71-.56-11.87-2.12-15.94A50.79,50.79,0,0,0,127.18,0h-.25a50.72,50.72,0,0,1,2.22,5c1.55,4.05,3.91,10.18,2.11,15.85-1.88,6-9.1,10.59-16.09,15-9.53,6-19.4,12.3-15.81,22.3,2.71,7.6,10.47,12.53,21.19,13.49,4.93.44,10-.07,15.38-.62,6.16-.63,12.53-1.27,18.67-.34.76.11,1.51.25,1.88.32,9.19,1.73,23.11,10.25,25.64,17.32a5,5,0,0,1,.25,3.18c-9.17,7.82-25.94,16.8-40.74,24.7-3.25,1.73-6.3,3.36-9.18,4.93-6.4,3.51-11,7.38-13,10.93-1.86,3.35-2.25,6.33-1.18,9.13,2,5.29,7.38,8.51,13,11.91a61.31,61.31,0,0,1,9.51,6.53,7.07,7.07,0,0,0,0,1.74,2.8,2.8,0,0,1-.12,1.83c-.81,1.63-3.78,3.71-6.69,5.7-1.38,1-2.71,1.88-3.71,2.71-1.47,1.19-2.78,2.33-4,3.45-4.21,3.7-7.53,6.62-12.73,7.68-4,.8-9,1-15.56.47-4.47-.32-11-.86-15.58-1.61-7.65-1.24-10-5.05-12.9-9.87a67.71,67.71,0,0,0-12.32-15.6c-2.13-1.91-4.36-3.59-6.53-5.22-5.25-3.92-9.78-7.32-10.93-12.57C38.22,131.39,40.92,127,43.3,123c1.7-2.83,3.34-5.51,3.07-8.69l0,0c-4-5.78-14.28-8.62-22.57-10.87a60,60,0,0,0-7.12-1.63A142.84,142.84,0,0,0,0,100.31v.18A137.82,137.82,0,0,1,16.61,102,57.5,57.5,0,0,1,23.69,103.56Z"/>
<path style="fill:#00bceb;" d="M144.06,4.73c.64,1.68,1.38,3.36,2.11,5a52.11,52.11,0,0,1,3.62,10.08,13.75,13.75,0,0,1,0,6c-1.23,4.72-5.86,8.4-10.33,12-5.13,4.08-10.43,8.31-10.84,14.19.55,5.23,9.16,6,18.26,6.79,1.67.16,3.41.31,5.07.49a162.56,162.56,0,0,1,22.22,4.21c2.75.71,5.4,1.6,8,2.47,4.9,1.67,9.53,3.25,14.94,3.66.69,0,1.38.07,2.11.07a39.29,39.29,0,0,0,9.6-1.37c2.77-.67,5.15-1.39,7.46-2.11a66.44,66.44,0,0,1,16.82-3.34c1.28-.1,2.59-.14,3.89-.14,7.82,0,14.37,1.42,20.72,2.78,5.47,1.19,10.67,2.3,16,2.3,1.07,0,2.13,0,3.15-.14,8.16-.7,14.44-3.6,19.16-8.87,4.17-4.65,6.57-10.52,8.57-16.18a45.19,45.19,0,0,0,2-7c.36-2.12-.12-3.66-1.49-4.73-2.46-2-7.42-2.08-13.15-2.21-2.61-.06-5.29-.12-8-.36-11.28-1-20.74-2-31.21-5-8.63-2.46-17.25-5.54-23-7.67C220.17,12,209.28,7.53,201.59,0h-.28C209,7.61,220,12.13,229.68,15.76c5.72,2.14,14.34,5.21,23,7.68,10.49,3,20,4,31.29,5,2.68.23,5.38.29,8,.36,5.68.13,10.6.24,13,2.15,1.3,1,1.78,2.54,1.42,4.61a47.08,47.08,0,0,1-2,7c-4,11.26-9.69,23.4-27.54,24.94-1,.08-2.06.12-3.11.12-5.34,0-10.5-1.11-16-2.29C251.4,64,244.84,62.55,237,62.55c-1.3,0-2.61,0-3.91.12a65.52,65.52,0,0,0-16.89,3.38c-2.31.69-4.69,1.42-7.44,2.09a39.53,39.53,0,0,1-9.53,1.35c-.71,0-1.4,0-2.07-.07-5.36-.4-10-2-14.87-3.63-2.58-.87-5.22-1.77-8-2.48A162.38,162.38,0,0,0,152,59.09c-1.69-.18-3.43-.34-5.1-.48-9-.8-17.51-1.55-18.06-6.65.41-5.79,5.7-10,10.79-14.08,4.51-3.56,9.14-7.28,10.4-12a14.86,14.86,0,0,0,0-6.06,52.56,52.56,0,0,0-3.66-10.1c-.71-1.64-1.43-3.35-2.11-5-.42-1.09-.87-2.2-1.33-3.27-.19-.46-.37-.95-.58-1.42h-.25c.21.5.42,1,.6,1.47C143.17,2.54,143.62,3.64,144.06,4.73Z"/>
<path style="fill:#00bceb;" d="M16.54,10.82A14.88,14.88,0,0,0,21.15,0h-.23a14.79,14.79,0,0,1-4.58,10.73C13.29,14,8.89,15.89,4.2,18c-1.4.62-2.82,1.24-4.2,1.91v.19c1.42-.68,2.89-1.32,4.33-2C9,16,13.45,14.08,16.54,10.82Z"/>
<path style="fill:#00bceb;" d="M159.6,14.59c1.44,2.22,3,4.48,3.45,6.85,1.4,6.5-3.5,10.72-8.22,14.82-3.25,2.79-6.28,5.42-7.22,8.65a4.5,4.5,0,0,0-.13,2,9.63,9.63,0,0,1,.08,1.21v0c1.2,2.3,4.8,3.92,7.63,4.87,10.18,3.45,26.78,5.08,38.88,6.28,1.83.17,3.64.26,5.52.26h0a109.39,109.39,0,0,0,13.68-1.11,124.38,124.38,0,0,1,15.93-1.26c1.57,0,3.16,0,4.71.14l2.34.11c1.67.06,3.76.13,5.23.21A118.18,118.18,0,0,1,254.08,59a99.73,99.73,0,0,0,16.77,1.5l2.26,0a15.77,15.77,0,0,0,12.72-10c1.69-4.47,1.3-10.41-4.84-13.69-7.23-3.86-28.27-7.24-39.58-7.86-2.41-.15-4.42-.16-6.35-.16-2.17,0-4.38,0-7.29-.2-7.8-.48-14.24-2.59-21.57-7-9.06-5.53-14-9.8-21-18.25A19.46,19.46,0,0,1,183.06,0h-.26A19,19,0,0,0,185,3.36c7,8.48,11.94,12.75,21.06,18.3a44.66,44.66,0,0,0,21.69,7.08c2.91.18,5.14.2,7.31.2,2,0,3.92,0,6.34.15,11.26.64,32.24,4,39.46,7.84,6,3.23,6.39,9.1,4.74,13.52a15.59,15.59,0,0,1-12.53,9.9l-2.22,0a100.22,100.22,0,0,1-16.71-1.5,117,117,0,0,0-12.64-1.43c-1.47-.08-3.57-.17-5.23-.24l-2.35-.08c-1.56-.11-3.14-.15-4.72-.15a123,123,0,0,0-16,1.26,108.89,108.89,0,0,1-13.64,1.1h0c-1.88,0-3.68-.07-5.49-.25-12.08-1.19-28.66-2.81-38.81-6.27-2.77-.92-6.32-2.52-7.49-4.77,0-.48-.05-.85-.07-1.19a3.78,3.78,0,0,1,.11-1.92c.94-3.18,4-5.81,7.17-8.58,4.77-4.11,9.69-8.37,8.27-14.94-.52-2.39-2-4.69-3.46-6.89-.57-.86-1.17-1.76-1.69-2.67A59.85,59.85,0,0,1,152.7,0h-.23a61.25,61.25,0,0,0,5.45,11.94C158.43,12.83,159,13.73,159.6,14.59Z"/>
<path style="fill:#00bceb;" d="M24.6,80.21c3.28-2.5,6.19-5.18,9.28-8,4.89-4.48,9.95-9.11,16.48-12.93.46-.29.92-.6,1.35-.92s.82-.58,1.24-.85A107,107,0,0,1,66.8,50.88c3.26-1.39,6.65-2.81,9.83-4.42,2.51-1.28,5.05-2.62,7.48-3.91,3.71-2,7.55-4,11.41-5.81,1.83-.87,3.73-1.7,5.75-2.57,9.87-4.32,21-9.21,22.75-18.06.91-4.67-.88-10.69-4.7-16.11h-.25c3.82,5.4,5.61,11.43,4.72,16.1C122.09,24.87,111,29.74,101.13,34c-2,.88-3.9,1.72-5.73,2.57-3.89,1.84-7.72,3.87-11.41,5.83-2.45,1.29-5,2.63-7.52,3.9-3.16,1.6-6.53,3-9.8,4.41a110.67,110.67,0,0,0-13.86,6.66c-.46.26-.87.58-1.28.86a14.71,14.71,0,0,1-1.33.9C43.65,63,38.58,67.62,33.7,72.1c-3.09,2.83-6,5.5-9.28,8-6.5,5-15.09,8.32-24.42,9.66v.17C9.41,88.56,18.06,85.19,24.6,80.21Z"/>
<path style="fill:#00bceb;" d="M10,73.91c3.18-3.18,3.2-8.94,2.86-13.62-.27-3.77-.18-11,3.43-17,2.78-4.57,9.38-8.65,15.77-12.57,1-.61,1.94-1.2,2.88-1.8,12.79-8,19.14-15.19,24.73-23.5.48-.7.89-1.46,1.3-2.19A24.34,24.34,0,0,1,62.7.54c.12-.19.26-.37.39-.54h-.27a3.94,3.94,0,0,1-.36.45A25.23,25.23,0,0,0,60.8,3.21a23.41,23.41,0,0,1-1.32,2.18C53.91,13.7,47.59,20.87,34.82,28.85c-.94.6-1.92,1.18-2.88,1.78-6.4,3.94-13,8-15.83,12.64-3.62,6-3.71,13.25-3.44,17C13,65,13,70.69,9.85,73.83,7.58,76.08,4,77.68,0,79.06v.18C4,77.84,7.72,76.22,10,73.91Z"/>
<path style="fill:#00bceb;" d="M3.53,4.47A5.34,5.34,0,0,0,5.73,0H5.47a5.3,5.3,0,0,1-2.1,4.36A5.75,5.75,0,0,1,0,5.46H0v.17H0A6,6,0,0,0,3.53,4.47Z"/>
<path style="fill:#00bceb;" d="M76.43,2.58C73.06,5.31,70.59,9,68.21,12.63l-1.08,1.63c-3.48,5.14-7.79,11.54-12.51,15.9-2.55,2.39-6.78,4.11-11.25,5.92C37,38.65,30.49,41.31,27.93,46.2,27,48,27,49.9,27.9,52.32c.88,1.35,2.43,2,4.56,2h0c3.51,0,7.66-1.87,9.37-2.86a53.36,53.36,0,0,0,9.22-7.32c1.55-1.4,3.13-2.87,4.76-4.21a28.53,28.53,0,0,1,5.82-3.68C67.06,34.1,74,32.42,81.38,30.64c10.24-2.46,20.8-5,27.38-9.14a11.58,11.58,0,0,0,5.77-9.32c.16-4-1.86-7.82-5.75-10.74A19.36,19.36,0,0,0,106.55,0h-.4a19.22,19.22,0,0,1,2.45,1.56c3.84,2.87,5.86,6.64,5.68,10.61a11.41,11.41,0,0,1-5.66,9.21c-6.56,4.1-17.12,6.64-27.31,9.1C73.93,32.26,67,33.94,61.52,36.14a27.27,27.27,0,0,0-5.87,3.74C54,41.2,52.4,42.67,50.86,44.1a54,54,0,0,1-9.18,7.26c-1.68,1-5.78,2.84-9.22,2.84-2,0-3.5-.65-4.35-1.94a7.08,7.08,0,0,1,.05-6c2.52-4.83,9-7.47,15.33-10,4.49-1.83,8.74-3.56,11.34-6,4.71-4.37,9-10.78,12.51-15.92.36-.54.71-1.09,1.09-1.64,2.38-3.59,4.84-7.29,8.2-10A21.5,21.5,0,0,1,81,0h-.4A21.82,21.82,0,0,0,76.43,2.58Z"/>
<path style="fill:#00bceb;" d="M170.27,44.21l0,0a3.31,3.31,0,0,1,.9,1.15l.06.08,0,0a13.91,13.91,0,0,0,7.31,1.73h0c4.24,0,8.45-1.23,10.51-3a3.23,3.23,0,0,0,1.17-3.65c-.91-2.41-4.26-3.21-7.92-3.85h0c-6.21.62-12.64,3.22-12,7.48Zm12-7.35c3.58.64,6.83,1.4,7.72,3.72a3.1,3.1,0,0,1-1.14,3.52c-2,1.77-6.16,3-10.31,3h0a13.54,13.54,0,0,1-7.13-1.69l0-.06a3.64,3.64,0,0,0-.92-1.2C169.9,39.4,178,37.31,182.32,36.86Z"/>
<path style="fill:#00bceb;" d="M234.56,47l.09.11h0c3.81,1.64,10.13,2.74,15.7,2.74h0c3.67,0,10.08-.5,11.75-3.9h0a3.7,3.7,0,0,0-1.88-3.13c-2.42-1.7-7.22-2.75-12.53-2.75-6.73,0-14,1.78-14.09,5.72v0l.05,0A3.06,3.06,0,0,1,234.56,47Zm13.17-6.77c5.24,0,10,1,12.37,2.7a3.65,3.65,0,0,1,1.81,3c-1.63,3.28-7.93,3.77-11.52,3.77h0c-5.52,0-11.75-1.09-15.56-2.7l0-.08a3.71,3.71,0,0,0-.9-1.16C234,42,241.15,40.24,247.73,40.24Z"/>
<path style="fill:#00bceb;" d="M65.55,124.71c-1.35,4-2.75,8.07-2.18,14.2,4.49,10.67,9.79,18.73,16.17,24.65a28.37,28.37,0,0,0,5.62,4.22,27.34,27.34,0,0,0,12.53,2.88h0c4.56,0,8.46-1.07,11-3.06,2.81-2.17,3.84-5.31,3.07-9.32a28.07,28.07,0,0,0-2.8-6.88,27.1,27.1,0,0,1-2.8-6.87c-1.72-8.7,3.71-17.71,14.46-24.1a154.1,154.1,0,0,1,13.81-7.06,145.06,145.06,0,0,0,14.8-7.71c7.31-4.54,15.58-9.7,16.94-17.48v0h0c-.87-3.68-2.53-7.46-8.64-10.16a28.64,28.64,0,0,0-12-2.27,106.51,106.51,0,0,0-12.67,1.07A119.82,119.82,0,0,1,118,78c-1.26,0-2.51,0-3.7-.1-2.43-.16-5.5-.67-8.71-1.22A82.93,82.93,0,0,0,93.18,75.2a18.2,18.2,0,0,0-2,.11c-4.79.5-9.87,3.34-13.75,5.77-6.48,4-12.58,8.22-13.59,11.68a13.33,13.33,0,0,0,0,5.08,31.27,31.27,0,0,0,1.83,6.36c1.26,3.48,2.57,7.08,1.93,12.83A34.49,34.49,0,0,1,65.55,124.71Zm.29-20.55A31.54,31.54,0,0,1,64,97.83a13.54,13.54,0,0,1,0-5c1-3.41,7.08-7.59,13.52-11.6,3.87-2.4,8.91-5.22,13.63-5.73a17.5,17.5,0,0,1,2-.09,81,81,0,0,1,12.32,1.47c3.23.54,6.3,1,8.73,1.21,1.21.07,2.45.11,3.73.11a116.51,116.51,0,0,0,14.87-1.22,106.13,106.13,0,0,1,12.63-1.06,28.72,28.72,0,0,1,11.94,2.24c6,2.68,7.65,6.4,8.52,10.06-1.37,7.71-9.58,12.83-16.86,17.37a148.65,148.65,0,0,1-14.78,7.68c-4.56,2.14-9.24,4.35-13.84,7.09-10.83,6.41-16.27,15.48-14.55,24.24a27.85,27.85,0,0,0,2.82,6.88,26.84,26.84,0,0,1,2.79,6.87c.78,3.95-.25,7-3,9.2-2.47,1.93-6.28,3-10.79,3h0a27.27,27.27,0,0,1-12.39-2.85,28.45,28.45,0,0,1-5.57-4.18c-6.37-5.9-11.64-13.95-16.13-24.59-.57-6.09.83-10.19,2.2-14.12a33.94,33.94,0,0,0,2-7.71C68.41,111.27,67.11,107.65,65.84,104.16Z"/>
<path style="fill:#00bceb;" d="M80.39,124.3a23,23,0,0,1,.6,2.25c.64,2.8,1.4,6,5.59,7.51h.07c5.09-.24,8.31-3.36,11.71-6.64,1.23-1.17,2.47-2.39,3.82-3.45,7.51-6,16-9.89,24.15-13.71a139.24,139.24,0,0,0,16-8.31,10.45,10.45,0,0,0,3.58-2.31,13,13,0,0,1,2.58-1.9c4.4-3.78,5.85-8.19,3.71-11.23-1.35-1.93-4.73-4.23-13.14-4.23-1.13,0-2.32,0-3.55.13-2.69.18-5.8.57-9.05,1-3.62.45-7.72,1-11.85,1.27-.87.06-1.69.11-2.5.18-11,.75-17.69,1.24-24.33,6.59a21.07,21.07,0,0,0-8,14.92,70.58,70.58,0,0,0,.21,12.44C80.21,120.77,80.35,122.63,80.39,124.3Zm-.3-17.92A20.83,20.83,0,0,1,88,91.57c6.56-5.35,12.81-5.77,24.17-6.58.81,0,1.63-.1,2.5-.16,4.15-.31,8.25-.82,11.87-1.27,3.25-.4,6.33-.8,9-1,1.23-.09,2.42-.14,3.53-.14,8.29,0,11.61,2.25,12.94,4.14,2.08,3,.66,7.34-3.67,11a13.84,13.84,0,0,0-2.61,1.91,9.56,9.56,0,0,1-3.5,2.27h0a134.65,134.65,0,0,1-16,8.31C118,114,109.54,117.91,102,123.88a48,48,0,0,0-3.81,3.45c-3.37,3.25-6.55,6.33-11.52,6.57-4.08-1.47-4.77-4.48-5.45-7.38-.19-.8-.35-1.54-.58-2.25,0-1.65-.2-3.5-.34-5.47A68.52,68.52,0,0,1,80.09,106.38Z"/>
<path style="fill:#00bceb;" d="M233.85,104.89c1.81,11.56,3.52,22.49,16.67,30.3,8.83,5.24,23.12,10.83,36.8,10.83h0c8.34,0,15.19-2.12,20.37-6.31,4.47-3.63,6.78-7.88,9.43-12.81.28-.54.58-1.09.88-1.67.54-.94,1.05-1.88,1.56-2.81,2.95-5.33,5.74-10.34,6.43-14.51,1.54-9.19-3.32-12.89-9.33-16.47-9.38-5.56-21.57-6-34.49-6.42-3.05-.11-6.67-.33-10.48-.57-6-.38-12.82-.79-18.51-.79-6.14,0-10.17.47-12.35,1.47-9.16,4.16-8.06,14.27-7.19,18.41ZM241,85.28c2.15-1,6.14-1.47,12.23-1.47,5.68,0,12.49.43,18.49.81,3.81.23,7.44.46,10.49.56,12.88.44,25,.86,34.34,6.39,6,3.54,10.78,7.21,9.26,16.33-.69,4.13-3.48,9.15-6.41,14.46-.51.94-1,1.88-1.54,2.83-.32.54-.62,1.1-.91,1.66-2.64,4.91-4.93,9.14-9.4,12.77-5.11,4.15-11.89,6.25-20.18,6.25-13.59,0-27.86-5.58-36.64-10.82-13.1-7.75-14.79-18.65-16.58-30.17l-.23-1.36C233,99.4,231.92,89.38,241,85.28Z"/>
<path style="fill:#00bceb;" d="M246.42,106.79c1.58,10,2.93,18.59,14.71,25a56.84,56.84,0,0,0,25.13,6.46h0a26,26,0,0,0,12.21-2.58c9.19-4.88,13.18-15,13.82-22.23.73-8.32-3.73-15.64-11.91-19.53-7.5-3.59-17.05-4-27.18-4.33-2.22-.07-4.42-.16-6.62-.16-6.36,0-14.2.55-18.21,4.79-2.31,3.23-2.17,7-2,10.66C246.38,105.51,246.4,106.14,246.42,106.79Zm2.16-12.52c3.94-4.16,11.7-4.71,18-4.71,2.2,0,4.38.07,6.62.17,10.06.38,19.59.72,27.06,4.28,8.09,3.87,12.51,11.14,11.78,19.4-.62,7.18-4.6,17.28-13.73,22.12a25.68,25.68,0,0,1-12.05,2.56h0a56.86,56.86,0,0,1-25-6.45c-11.67-6.36-13-14.53-14.58-24.86,0-.64,0-1.27-.09-1.93C246.45,101.22,246.31,97.45,248.58,94.27Z"/>
<path style="fill:#00bceb;" d="M101.66,105.19l.06,0a5.58,5.58,0,0,1,1,.61,4.61,4.61,0,0,0,1.2.7H104a59.79,59.79,0,0,0,20-6.24c2.22-1.2,4.81-2.85,5.32-4.9l0,0,0,0a7.25,7.25,0,0,0-1.1-.84c-.3-.2-.58-.38-.85-.59l0,0h0c-1-.08-2.08-.11-3.16-.11-5.85,0-13.84,1.21-18.63,4.61-2.63,1.88-3.89,4.16-3.75,6.79Zm3.93-6.71c4.72-3.37,12.63-4.57,18.45-4.57,1.07,0,2.11,0,3.09.11.27.21.55.41.82.59a5.36,5.36,0,0,1,1,.79c-.51,2-3.05,3.6-5.21,4.77A59.59,59.59,0,0,1,104,106.39a4.6,4.6,0,0,1-1.08-.66,6.59,6.59,0,0,0-1-.62C101.79,102.55,103,100.33,105.59,98.48Z"/>
<path style="fill:#00bceb;" d="M271.05,127.23a31.27,31.27,0,0,0,12.42,2.7h0c5.38,0,9.88-1.59,13.1-4.62,7.45-7,4.08-20.37-6.61-25.91A31.91,31.91,0,0,0,275,96.08a44.09,44.09,0,0,0-5.09.3c-7.47.87-11.36,4.92-11.24,11.7C258.82,113.23,260.58,122.57,271.05,127.23ZM270,96.54a46.14,46.14,0,0,1,5.06-.29,32,32,0,0,1,14.8,3.27,19.29,19.29,0,0,1,10,12.36c1.28,5.1,0,10.08-3.46,13.34-3.14,3-7.61,4.54-12.88,4.54h0a31.17,31.17,0,0,1-12.3-2.66c-10.36-4.62-12.1-13.9-12.21-19C258.82,101.39,262.65,97.4,270,96.54Z"/>
<path style="fill:#00bceb;" d="M29.87,172.65a23.86,23.86,0,0,0,3,3.35l.05,0c1.55,1.37,4.17,3.66,7.83,3.28,3.94-.4,9.14-3.61,8.2-8.33-.75-3.77-4.44-6.54-11.63-8.69-.46-.13-.92-.28-1.4-.41-3.46-1-6.74-1.95-8.25-4.22-1.56-4.47-1.86-10.51-2.2-16.92a96.25,96.25,0,0,0-1.6-15.49c-2-9-8.74-14.42-20.62-16.48-1-.18-2.13-.35-3.28-.46v.17c1.14.11,2.22.27,3.23.45,11.77,2,18.45,7.38,20.44,16.34a99.91,99.91,0,0,1,1.6,15.48c.32,6.41.64,12.46,2.2,17C29,160.07,32.35,161,35.86,162l1.41.42c7.09,2.11,10.73,4.84,11.46,8.56.92,4.61-4.14,7.75-8,8.14-3.51.37-6.08-1.87-7.61-3.2l-.05,0a27.08,27.08,0,0,1-3-3.34c-3.07-3.81-6.25-7.75-15.33-6.71-4.3.47-9.12,2-14.73,4.75v.21c5.64-2.75,10.47-4.33,14.76-4.81C23.69,165,26.83,168.91,29.87,172.65Z"/>
<path style="fill:#00bceb;" d="M5.89,151.07A18.68,18.68,0,0,0,13.59,135a18.75,18.75,0,0,0-8.83-14.8A17.73,17.73,0,0,0,0,118.63v.16a18,18,0,0,1,4.6,1.48A18.65,18.65,0,0,1,13.36,135a18.58,18.58,0,0,1-7.63,16A33.82,33.82,0,0,1,0,154.34v.2A31.79,31.79,0,0,0,5.89,151.07Z"/>
<path style="fill:#00bceb;" d="M219.11,152.13a13.09,13.09,0,0,0-1.56-3.42c-5-8.54-16.76-17.5-25.29-22.56-5.86-3.47-10.72-5.5-14.45-6a17.44,17.44,0,0,0-2.57-.19c-10.19,0-22.7,7.11-23.48,13.34a3.39,3.39,0,0,0,.27.91,3.35,3.35,0,0,1,.25,1.43v0h0a119.72,119.72,0,0,0,12.25,16.41,36.93,36.93,0,0,0,6.74,6.31c6.48,4.44,17.76,7.56,27.38,7.56h0c5.33,0,9.78-.93,13.24-2.72C217.69,160.22,220.12,156.48,219.11,152.13Zm-20.45,13.64h0c-9.56,0-20.76-3.09-27.2-7.51a37,37,0,0,1-6.73-6.27,121.66,121.66,0,0,1-12.21-16.36,3,3,0,0,0-.28-1.46,6.74,6.74,0,0,1-.27-.88c.8-6.16,13.19-13.17,23.27-13.17a18.71,18.71,0,0,1,2.54.16c3.69.53,8.51,2.53,14.33,6,8.5,5.06,20.22,14,25.2,22.5a13.42,13.42,0,0,1,1.58,3.38c1,4.3-1.43,8-7.15,10.94A28.54,28.54,0,0,1,198.66,165.77Z"/>
<path style="fill:#00bceb;" d="M196.84,138.45c-5.13-3.21-11.24-5.54-16-6a20.65,20.65,0,0,0-2.55-.16,12,12,0,0,0-7.05,1.88,7,7,0,0,0-2.89,6.4c2.08,6.12,4.17,11.1,10.45,14.6a34,34,0,0,0,15.49,3.69h0c6.54,0,11.06-2.06,12.41-5.62a7.32,7.32,0,0,0,.09-3.66C206,146,202.39,141.94,196.84,138.45Zm9.63,14.69c-1.31,3.5-5.73,5.5-12.16,5.5h0A33.84,33.84,0,0,1,179,155c-6.22-3.48-8.29-8.42-10.37-14.51a6.94,6.94,0,0,1,2.84-6.28,11.71,11.71,0,0,1,6.87-1.8,22.76,22.76,0,0,1,2.52.15c9.83,1.08,24.08,9.52,25.76,17A6.91,6.91,0,0,1,206.47,153.14Z"/>
<path style="fill:#00bceb;" d="M254.05,166.22h0l0,0c-.66-.06-1.28-.08-1.88-.08a21.1,21.1,0,0,0-4.12.42c-7.51,1.5-15.07,6-17.57,10.37-1.77,3.1-1,6.54-.32,9.86.66,3.08,1.28,6,0,8.5-1.94,3.92-7.06,6.39-12,8.78-5.26,2.53-10.69,5.13-12,9.44-.79,3.05.38,6,3.34,8.36,4.19,3.42,11.87,5.64,19.56,5.64h0a28,28,0,0,0,12.74-2.64,24.4,24.4,0,0,0,6.31-5.17l.31-.31c1.88-2.56,2.5-5.63,3.17-8.9a33.53,33.53,0,0,1,2.66-8.67,49.61,49.61,0,0,1,2.68-4.54c2.72-4.25,5-7.94,3.93-17C260.12,175.09,258.79,168.8,254.05,166.22Zm2.55,30.95a50.75,50.75,0,0,0-2.68,4.57,35,35,0,0,0-2.66,8.71c-.67,3.25-1.31,6.3-3.16,8.83l-.26.29a24.07,24.07,0,0,1-6.29,5.15A27.52,27.52,0,0,1,229,227.31c-7.6,0-15.23-2.19-19.38-5.57-2.91-2.38-4.07-5.23-3.29-8.24,1.32-4.23,6.48-6.7,11.91-9.32,5-2.41,10.17-4.9,12.12-8.86,1.28-2.59.66-5.5,0-8.57-.73-3.31-1.45-6.73.3-9.79,2.47-4.37,10-8.78,17.39-10.27a20.73,20.73,0,0,1,4.07-.41c.58,0,1.19,0,1.82.08,4.67,2.56,6,8.79,6.64,13.92C261.62,189.29,259.32,192.94,256.6,197.17Z"/>
<path style="fill:#00bceb;" d="M35.69,198.48a7.4,7.4,0,0,0-3.85-1,12.07,12.07,0,0,0-7.24,2.8c-2.74,2.19-4.26,5-3.8,7.08,1.08,3.48,5.71,5.31,9.7,5.31h0a9.92,9.92,0,0,0,6.84-2.34C40.58,207.24,39.68,200.84,35.69,198.48Zm1.47,11.71a9.56,9.56,0,0,1-6.66,2.28h0c-3.9,0-8.41-1.78-9.47-5.17-.45-2,1-4.78,3.76-7a11.72,11.72,0,0,1,7.05-2.73,7.11,7.11,0,0,1,3.7,1C39.47,200.91,40.34,207.2,37.16,210.19Z"/>
<path style="fill:#00bceb;" d="M122.07,219.89a3.15,3.15,0,0,1-.48-.78v0l0,0a7.18,7.18,0,0,0-3.12-.7,8.13,8.13,0,0,0-4.74,1.5,3.4,3.4,0,0,0-1.62,3l0,0a4.78,4.78,0,0,0,4.06,1.78h0c2.81,0,6.18-1.67,6.48-3.88v0h0A2.63,2.63,0,0,0,122.07,219.89Zm-5.91,4.64h0a4.55,4.55,0,0,1-3.83-1.67,3.2,3.2,0,0,1,1.54-2.91,8,8,0,0,1,4.57-1.43,6.63,6.63,0,0,1,2.92.67,3,3,0,0,0,.52.77,2.82,2.82,0,0,1,.51.84C122.09,222.93,118.86,224.53,116.16,224.53Z"/>
<path style="fill:#00bceb;" d="M442.51,3a32,32,0,0,0,18.06.53,18.85,18.85,0,0,0,7-3.54h-.28a18.05,18.05,0,0,1-6.78,3.38,31.55,31.55,0,0,1-17.89-.51A17.49,17.49,0,0,1,437.36,0H437A17.38,17.38,0,0,0,442.51,3Z"/>
<path style="fill:#00bceb;" d="M239.23,9.69c2.24,1.08,4.37,2.24,6.42,3.34,5,2.68,9.69,5.19,14.87,6.38a51.62,51.62,0,0,0,16.65,3,38,38,0,0,0,12.55-2.06A33,33,0,0,0,310.5,0h-.25a32.81,32.81,0,0,1-20.64,20.19c-8.68,3-18.44,2.67-29-.93-5.16-1.18-9.85-3.7-14.82-6.37-2-1.1-4.18-2.24-6.44-3.34S234.44,7.23,232,6.13c-4.4-2-8.72-4-12.51-6.13h-.39c3.86,2.23,8.27,4.22,12.77,6.27C234.31,7.37,236.82,8.51,239.23,9.69Z"/>
<path style="fill:#00bceb;" d="M323.1,12.74c1.58,2.63,5,3.91,10.63,3.91a72.82,72.82,0,0,0,8.11-.6h.07a14.25,14.25,0,0,1,1.65-.08,35,35,0,0,1,6.67.88c1.12.23,2.31.47,3.44.62.93.15,1.83.26,2.74.39A67.91,67.91,0,0,1,367.55,20c1.38.44,2.8.87,4.19,1.27,6.85,2,13.93,4.14,18.52,8.22.29.26.54.52.8.77a118.2,118.2,0,0,1,8.66,10.16,107.94,107.94,0,0,0,9.9,11.37c3.64,3.51,8.54,7.39,13.28,11.15l4.7,3.78c7.52,6.1,14.62,11.86,27.72,11.86h0a59.42,59.42,0,0,0,10.89-1.1c11.34-2.09,31.36-7.32,38.21-18.66,1.81-3,3-7.2,4.29-11.63a80.43,80.43,0,0,1,3.27-9.7v-.55a71,71,0,0,0-3.48,10.21c-1.29,4.44-2.5,8.62-4.29,11.61C497.41,70,477.47,75.22,466.18,77.32a59,59,0,0,1-10.84,1.09h0c-13,0-20.05-5.73-27.52-11.81-1.51-1.22-3.07-2.46-4.72-3.76-4.73-3.76-9.62-7.66-13.28-11.15a110.86,110.86,0,0,1-9.86-11.35,122.41,122.41,0,0,0-8.68-10.18c-.25-.25-.54-.53-.82-.77-4.63-4.12-11.73-6.23-18.6-8.28-1.4-.41-2.82-.84-4.18-1.26a68,68,0,0,0-11.2-2.16l-2.73-.37c-1.12-.17-2.29-.41-3.43-.62a34.7,34.7,0,0,0-6.74-.91c-.59,0-1.17,0-1.69.09h-.11a70.91,70.91,0,0,1-8,.59c-5.45,0-8.88-1.24-10.4-3.79s-1.07-7.06-.59-11c.07-.59.14-1.15.2-1.7h-.25c-.05.55-.11,1.11-.18,1.69C322,5.63,321.52,10.1,323.1,12.74Z"/>
<path style="fill:#00bceb;" d="M421.25,5c7,6.55,19.55,10.44,33.45,10.44a66.63,66.63,0,0,0,10-.72C477,12.84,481,7.06,482.74,0h-.23A20.83,20.83,0,0,1,480,6.22c-2.85,4.53-7.75,7.18-15.36,8.33a66.42,66.42,0,0,1-9.94.72c-13.83,0-26.25-3.88-33.26-10.38A30.86,30.86,0,0,1,419.37,0h-.25a33.29,33.29,0,0,0,2.11,5Z"/>
<path style="fill:#00bceb;" d="M353.89,8.41a159.76,159.76,0,0,1,18,3.14c3.73.8,7.6,1.63,11.52,2.27,2.5.42,5,.75,7.22,1s4.28.35,5.95.35h0q5.16,0,6.12-1.46c1.75-2.59,3.11-8.23,3.18-13.69h-.23c-.08,5.44-1.43,11-3.15,13.63-.6.9-2.6,1.35-5.92,1.35-1.65,0-3.64-.11-5.91-.34s-4.7-.56-7.21-1c-3.92-.65-7.75-1.48-11.48-2.28A161.18,161.18,0,0,0,353.9,8.24c-6.21-.61-11.16-3.53-14.07-8.24h-.27C342.51,4.81,347.55,7.78,353.89,8.41Z"/>
<path style="fill:#00bceb;" d="M492.28,4.21c-.32,6-.6,11.17-6.4,14.22-6,3.21-16.58,4.12-24.28,4.78l-2.23.2c-1.32.12-2.72.18-4.14.18h0c-7.84,0-16.2-1.81-24.29-3.55-7.24-1.54-14.71-3.16-21.71-3.44h0c-4,.78-5,3.7-4.6,6.17,1.14,9.65,6.09,17.55,17.15,27.27,2.21,2,4.31,3.93,6.31,5.85a134.62,134.62,0,0,0,10.45,9.21c5.66,4.37,12.76,6.56,21.12,6.56h0c9.69,0,20.59-3.09,29.9-8.5,9.6-7.14,11-16.58,11.7-25.64,0-.71.07-1.44.1-2.23.15-3.64.3-8.18,2.91-10.42A35.47,35.47,0,0,1,512,20.05v-.19a35,35,0,0,0-7.95,4.94c-2.64,2.26-2.8,6.83-3,10.49,0,.79-.06,1.53-.11,2.23-.64,9-2.08,18.45-11.62,25.54-9.27,5.37-20.09,8.47-29.73,8.47-8.28,0-15.35-2.21-20.94-6.52a130.62,130.62,0,0,1-10.43-9.22c-2-1.91-4.1-3.88-6.32-5.84-11-9.7-16-17.58-17.09-27.2-.39-2.38.55-5.23,4.4-6,6.94.28,14.39,1.87,21.62,3.43,8.11,1.74,16.48,3.55,24.36,3.55h0c1.42,0,2.84-.07,4.17-.18l2.24-.19c7.72-.67,18.31-1.6,24.36-4.81s6.19-8.31,6.53-14.36c.07-1.25.13-2.55.25-3.86a1.41,1.41,0,0,0,.05-.35h-.24c0,.12,0,.22,0,.34C492.43,1.66,492.35,3,492.28,4.21Z"/>
<path style="fill:#00bceb;" d="M496,84.83h0c-1.63.88-4.1,2.24-3.83,4.1v0l0,0a10.29,10.29,0,0,1,1.4.92l0,0h0a67.65,67.65,0,0,0,9.13.63h0a66.07,66.07,0,0,0,9.26-.66v-.17a64.6,64.6,0,0,1-9.26.66,66.21,66.21,0,0,1-9-.62,10.54,10.54,0,0,0-1.35-.9c-.23-1.75,2.06-3,3.73-3.93l0,0a62.09,62.09,0,0,1,10.7-4c1.74-.54,3.48-1.1,5.18-1.68v-.18c-1.74.59-3.53,1.16-5.29,1.7A61.12,61.12,0,0,0,496,84.83Z"/>
<path style="fill:#00bceb;" d="M506.3,1.38c.27,2.25,2.93,4.24,5.7,4.24V5.45c-2.66,0-5.2-1.91-5.45-4.09a5.18,5.18,0,0,1,0-1.36h-.23A5.31,5.31,0,0,0,506.3,1.38Z"/>
<path style="fill:#00bceb;" d="M473.21,31.5a38.73,38.73,0,0,0-4.87.34c-3.62.49-7.48,1.27-11.6,2.1-4.6.92-9.39,1.9-13.93,2.43-4.21.52-6,1.8-5.56,3.93h0a51.36,51.36,0,0,1,3.82,7c2.59,5.48,5.29,11.14,11.84,14.08a26.88,26.88,0,0,0,10.87,2.11h0a33.5,33.5,0,0,0,18-5,18.11,18.11,0,0,0,7.56-11.33,13,13,0,0,0-3.81-12.31C483.25,32.78,478.53,31.5,473.21,31.5Zm8.36,26.86a33.16,33.16,0,0,1-17.79,5A26.46,26.46,0,0,1,453,61.26c-6.5-2.91-9.16-8.53-11.76-14a49.48,49.48,0,0,0-3.78-7c-.45-2.05,1.24-3.24,5.35-3.73,4.55-.56,9.36-1.51,14-2.44,4.08-.83,8-1.61,11.55-2.1a36.65,36.65,0,0,1,4.83-.33c5.25,0,9.88,1.26,12.08,3.28C492.59,41.64,489.21,53.24,481.57,58.36Z"/>
<path style="fill:#00bceb;" d="M201.36,104c1.21,1.57,2.45,3.18,3.48,4.79.92,1.37,1.84,2.82,2.75,4.23,5.52,8.61,11.21,17.51,19.52,24.66a133,133,0,0,0,10.73,7.91,106.12,106.12,0,0,1,9.61,7A38.35,38.35,0,0,1,251,156c2.29,2.44,4.45,4.74,8.06,6.32h0l1-.05c13.77-.56,25.68-1.05,38.37-2.63,9-1.12,15.4-2.32,18.93-3.56,7.3-2.57,9.28-7.16,11.41-12,.23-.5.46-1,.68-1.53,3.09-6.88,7.56-13.87,19.14-18.23l0,0,.28-.22c2.4-.86,4.8-1.74,7.21-2.62,4.19-1.51,8.52-3.09,12.79-4.6,1.85-.65,3.68-1.34,5.49-2,2.8-1,5.71-2.09,8.59-3.08a41.48,41.48,0,0,0,5.48-2.44l1.29-.67a27.76,27.76,0,0,1,5.4-2.16c3.8-1,8-1.14,12.05-1.28a61.63,61.63,0,0,0,10.54-.9c3.25-.64,5.5-1.21,7.38-3.11,6.09-6.08,3-10.64-2-16.39a53.44,53.44,0,0,0-19-14A38.39,38.39,0,0,0,400,69.38a37.19,37.19,0,0,1-4.54-1.69c-1.65-.78-3.25-1.63-4.79-2.46-1.26-.67-2.54-1.36-3.85-2a90.77,90.77,0,0,0-18.9-7.3,32.66,32.66,0,0,0-7.15-.68,46.31,46.31,0,0,0-5.79.35,26.19,26.19,0,0,0-5.91,1.68c-.79.31-1.65.63-2.52.92s-1.95.52-2.91.75A27.51,27.51,0,0,0,340,60c-2.91,1.09-5.73,2.37-8.45,3.61s-5.34,2.42-8.12,3.49c-13.17,5.08-24.46,7.94-35.44,9-3.28.33-6.62.5-9.89.5a95.19,95.19,0,0,1-12.13-.76c-3.09-.39-6.27-1-9.35-1.6-5.42-1-11-2.1-16.46-2.1a33.05,33.05,0,0,0-8.3,1c-5.22,1.31-9.87,4-14.8,6.93-2.52,1.47-5.11,3-7.93,4.44-.64.32-1.44.7-2.34,1.12-2,1-4.51,2.17-6.66,3.41-4,2.35-5.09,4.49-3.78,7.42A41.57,41.57,0,0,0,201.36,104Zm-1.12-14.83c2.15-1.25,4.63-2.43,6.66-3.4l2.32-1.13c2.84-1.44,5.45-3,8-4.45,4.9-2.88,9.53-5.59,14.71-6.91a34,34,0,0,1,8.23-1c5.44,0,11,1.07,16.38,2.12,3.11.6,6.29,1.2,9.39,1.6a97.82,97.82,0,0,0,12.17.76,97,97,0,0,0,9.91-.5c11-1.1,22.34-4,35.54-9,2.79-1.07,5.5-2.31,8.15-3.49s5.53-2.51,8.41-3.61a30.39,30.39,0,0,1,3.65-1c1-.23,2-.46,2.93-.78s1.74-.61,2.54-.9A25.3,25.3,0,0,1,355,55.74a45.73,45.73,0,0,1,5.75-.36,32.72,32.72,0,0,1,7.08.69,90.19,90.19,0,0,1,18.83,7.29c1.29.65,2.61,1.33,3.85,2,1.56.81,3.16,1.66,4.79,2.46a39.43,39.43,0,0,0,4.6,1.7A41.26,41.26,0,0,1,404,71,53.54,53.54,0,0,1,423,84.92c4.95,5.72,8,10.24,2,16.23-1.85,1.87-4.07,2.41-7.24,3a64.31,64.31,0,0,1-10.49.91,52.81,52.81,0,0,0-12.16,1.28,28.38,28.38,0,0,0-5.41,2.16c-.46.22-.89.45-1.31.67a41.88,41.88,0,0,1-5.43,2.45c-2.91,1-5.81,2-8.61,3-1.79.66-3.66,1.35-5.5,2-4.28,1.52-8.61,3.08-12.78,4.6-2.41.89-4.81,1.76-7.22,2.63h0a2.68,2.68,0,0,0-.3.23c-11.64,4.42-16.11,11.42-19.22,18.34-.23.51-.46,1-.67,1.52-2.11,4.83-4.12,9.39-11.31,11.91-3.53,1.25-9.86,2.46-18.86,3.57-12.67,1.58-24.58,2.06-38.35,2.62l-.94,0c-3.55-1.56-5.69-3.82-8-6.24a41.4,41.4,0,0,0-3.52-3.48,113.92,113.92,0,0,0-9.62-7,126.48,126.48,0,0,1-10.71-7.91c-8.29-7.13-14-16-19.51-24.61-.9-1.41-1.83-2.86-2.73-4.23-1.07-1.61-2.31-3.24-3.51-4.81a42.82,42.82,0,0,1-5-7.52C195.27,93.52,196.32,91.43,200.24,89.14Z"/>
<path style="fill:#00bceb;" d="M222.35,115l.46,1.21c4.81,12.26,11.95,19.54,26.36,26.78l.33.18c7.76,3.9,14.47,7.28,21.92,8.9a63,63,0,0,0,13.17,1.25h0a69.74,69.74,0,0,0,17.63-2.07c12.05-3.42,16.47-10.65,21.55-19,6.67-11,18.37-25.2,36.09-30.53a41.8,41.8,0,0,1,9.6-1.37c1.26-.07,2.58-.16,3.91-.29,5-.48,10.63-1.19,17.17-2.16.93-.12,1.85-.27,2.77-.42,4.8-.73,11.13-2.8,13.21-6.2,1.54-2.52,1.31-4.82-.62-6.83-5.79-6-25.72-8-33.9-8h-.16c-3.62,0-7.33.26-10.91.51-2,.15-4.14.31-6.16.39a26.21,26.21,0,0,0-9.71,2.33,29.61,29.61,0,0,1-12,2.26,100.51,100.51,0,0,1-10.68-.79l-3.46-.38a162,162,0,0,0-16.42-.7c-3.94,0-7.91.08-11.74.17s-7.74.15-11.61.15a150.37,150.37,0,0,1-17.94-.91c-1.53-.19-3.18-.46-4.93-.74A76.2,76.2,0,0,0,244,77.35a31.72,31.72,0,0,0-6.46.61c-9.89,2.05-18.15,10.33-19.68,16.81a16.06,16.06,0,0,0,.25,7.81A103.14,103.14,0,0,0,222.35,115Zm-4.27-20.21c1.51-6.42,9.69-14.64,19.48-16.67a32.3,32.3,0,0,1,6.41-.61,75.23,75.23,0,0,1,12.24,1.32c1.74.29,3.41.56,5,.75a148.88,148.88,0,0,0,18,.91c3.87,0,7.79-.07,11.61-.16s7.8-.17,11.74-.17c6.32,0,11.54.24,16.38.71l3.46.38a101.16,101.16,0,0,0,10.72.78,30,30,0,0,0,12.17-2.27,26.05,26.05,0,0,1,9.59-2.3c2-.11,4.11-.24,6.15-.39,3.57-.25,7.3-.51,10.9-.51H372c8.15,0,28,2,33.68,7.94,1.9,2,2.11,4.21.61,6.69-2.05,3.35-8.29,5.38-13,6.11-.9.13-1.83.26-2.75.41-6.55,1-12.16,1.67-17.18,2.15-1.31.13-2.63.21-3.88.29a42,42,0,0,0-9.68,1.38c-17.81,5.34-29.52,19.59-36.23,30.62-5.06,8.34-9.44,15.56-21.4,18.94a69.11,69.11,0,0,1-17.55,2.06h0a63.7,63.7,0,0,1-13.1-1.23c-7.42-1.61-14.09-5-21.86-8.88l-.34-.19c-14.34-7.21-21.45-14.45-26.24-26.68l-.47-1.2a98.18,98.18,0,0,1-4.26-12.42A15.73,15.73,0,0,1,218.08,94.79Z"/>
<path style="fill:#00bceb;" d="M490.31,112l0,0c-.55.68-1.08,1.26-1.56,1.77-1.67,1.84-2.67,3-3.18,6a33.45,33.45,0,0,0-.11,7.28,28.87,28.87,0,0,1-.37,8.63c-2.45,10.19-14.28,20.71-27.54,24.44a37.79,37.79,0,0,1-4.24,1,26.58,26.58,0,0,1-2.72.18h0c-7.79,0-9.58-5.26-11.3-10.33-.41-1.13-.8-2.3-1.26-3.39a17.47,17.47,0,0,0-7.74-9c-3.6-2-8.44-3.34-15.7-4.26a62,62,0,0,0-24.42,1.6l-.8.2c-3.48.81-6.44,1.52-8.54,3.75-4,4.3-7.27,11.26-5.73,16.19s6.62,5.81,12,6.8l3.16.62a29.22,29.22,0,0,1,4.11,1.21,269.86,269.86,0,0,0,28.38,8.95c9.51,2.52,14.12,8.07,18.58,13.4s8.82,10.55,17.74,13.11a16.7,16.7,0,0,0,4.57.59h0a28.25,28.25,0,0,0,6.49-.85c6.37-1.52,12.07-6.2,16.33-10.11,6.67-6.13,15-13.76,24.77-18.67l.78-.36v-.21l-.92.45c-9.83,4.91-18.14,12.55-24.83,18.69-4.22,3.9-9.9,8.56-16.2,10.07a28.8,28.8,0,0,1-6.42.82h0a16.49,16.49,0,0,1-4.48-.57c-8.84-2.54-13.31-7.87-17.62-13-4.47-5.37-9.14-10.92-18.72-13.46a270.31,270.31,0,0,1-28.34-9,26.46,26.46,0,0,0-4.17-1.2c-1-.23-2.11-.43-3.14-.62-5.34-1-10.38-2-11.86-6.69-1.52-4.9,1.72-11.79,5.72-16.08,2-2.16,5-2.88,8.39-3.67.27-.08.53-.14.82-.2a61.17,61.17,0,0,1,24.26-1.6c14,1.76,19.87,5.07,23.28,13.11.46,1.07.87,2.24,1.24,3.36,1.76,5.15,3.59,10.45,11.55,10.45h0a20.29,20.29,0,0,0,2.75-.17,33.51,33.51,0,0,0,4.3-1,46.53,46.53,0,0,0,18.06-9.94c5-4.49,8.43-9.69,9.64-14.63a30.39,30.39,0,0,0,.35-8.65,32.15,32.15,0,0,1,.13-7.27c.48-3,1.49-4.11,3.14-5.93.44-.5,1-1.09,1.56-1.77A33.5,33.5,0,0,1,507,108.2a45.78,45.78,0,0,1,5,.29v-.17a48.33,48.33,0,0,0-5-.28A33.78,33.78,0,0,0,490.31,112Z"/>
<path style="fill:#00bceb;" d="M498.8,124c-1.23,2.45-1.46,5-1.72,7.9-.09,1-.18,2.07-.34,3.21a97.69,97.69,0,0,1-3,13.41c-1.19,4.37-2.32,8.49-2.53,11.74v0l.05,0a5.38,5.38,0,0,0,2.48.75,2.87,2.87,0,0,0,.52,0l0,0c2.38-.93,4.92-1.79,7.38-2.61A99.28,99.28,0,0,0,512,154.54v-.2a97.32,97.32,0,0,1-10.45,3.93c-2.47.83-5,1.68-7.4,2.63a3,3,0,0,1-.41,0,5.3,5.3,0,0,1-2.33-.66c.22-3.23,1.34-7.33,2.52-11.69A97.25,97.25,0,0,0,497,135.15c.16-1.14.25-2.2.32-3.21.26-2.92.49-5.43,1.72-7.86,1.67-3.35,5.73-5.53,10.34-5.53a15.59,15.59,0,0,1,2.63.24v-.16a15.56,15.56,0,0,0-2.63-.22C504.67,118.41,500.52,120.61,498.8,124Z"/>
<path style="fill:#00bceb;" d="M407,146c-4.47,0-9,1.51-9,4.88v0c1.39,3.31,8.08,7.34,13.9,7.34h0a9.69,9.69,0,0,0,3.88-.75,5.05,5.05,0,0,0,3-3.17,5.59,5.59,0,0,0-1.94-5.31C414.89,147.16,411.1,146,407,146Zm11.56,8.29a4.88,4.88,0,0,1-2.95,3.07,9.07,9.07,0,0,1-3.74.73c-5.74,0-12.3-4-13.67-7.21,0-3.26,4.45-4.71,8.8-4.71,4,0,7.7,1.12,9.67,3A5.48,5.48,0,0,1,418.59,154.28Z"/>
<path style="fill:#00bceb;" d="M485,166.21l-.05,0a5.67,5.67,0,0,0-1.38-.16,18,18,0,0,0-6.25,1.7c-.78.3-1.58.62-2.36.89l-1.37.46c-6.85,2.3-16.22,5.46-15.56,13,.94,2.33,3.78,4.7,8,4.7h0a10.52,10.52,0,0,0,1.21-.08c7.67-2.18,12.25-8.27,15.4-13.37l.23-.37c1.42-2.28,3-4.85,2.15-6.69Zm-2.34,6.65-.23.38c-3.14,5-7.7,11.13-15.26,13.27a11.07,11.07,0,0,1-1.14.07h0c-4.08,0-6.85-2.31-7.77-4.56-.66-7.38,8.66-10.51,15.44-12.8.46-.16.94-.3,1.37-.46.78-.25,1.58-.58,2.37-.89a17.63,17.63,0,0,1,6.13-1.66,5.91,5.91,0,0,1,1.26.12C485.66,168.1,484.08,170.63,482.7,172.86Z"/>
<path style="fill:#00bceb;" d="M400.84,223.8a12.6,12.6,0,0,0-6.72-2.17,9.68,9.68,0,0,0-9.39,8.09,21,21,0,0,0,.33,9.06c.75,2.66,2.31,4,5.54,4.77.73.17,1.62.32,2.68.47a33.58,33.58,0,0,0,4.63.37h0c3.75,0,6.48-.89,8.13-2.64,1.9-2,1.6-6.67,1.12-9.12A14,14,0,0,0,400.84,223.8Zm5,17.86c-1.6,1.7-4.28,2.56-7.92,2.56a31.23,31.23,0,0,1-4.58-.36c-1.06-.14-1.93-.3-2.66-.47-3.17-.74-4.63-2-5.36-4.65a20.46,20.46,0,0,1-.34-9,9.48,9.48,0,0,1,9.15-8,12.29,12.29,0,0,1,6.56,2.12,13.74,13.74,0,0,1,6.23,8.72C407.35,234.91,407.71,239.69,405.83,241.66Z"/>
<path style="fill:#00bceb;" d="M25,278c2.27-.28,4.19-.61,6.05-.91,2.27-.38,4.42-.74,7.19-1,2.54-.26,5.21-.39,7.82-.53,5.84-.25,11.87-.53,17-2.38,6.48-2.33,7.15-8.24,4.93-13.07-3.74-8.19-8.57-13.85-14.76-17.3-2.43-1.35-4.72-2.91-6.92-4.43-4.46-3-9-6.17-15-7.83-4.56-1.28-9.82-2.21-14.89-3.11-3.07-.55-6.23-1.12-9.23-1.75-1.4-.3-2.93-.67-4.52-1.09-.87-.22-1.78-.44-2.7-.65v.17l2.61.64c1.61.4,3.14.79,4.54,1.08,3,.64,6.18,1.21,9.23,1.74,5.07.92,10.31,1.85,14.89,3.12,5.93,1.65,10.5,4.78,14.92,7.79,2.22,1.52,4.53,3.09,7,4.44,6.16,3.43,10.95,9.06,14.67,17.24C70,264.94,69.37,270.77,63,273c-5.12,1.84-11.11,2.12-16.93,2.4-2.61.11-5.31.24-7.85.51-2.78.3-5,.67-7.22,1-1.85.32-3.74.63-6,.91-4.17.52-8.41.91-12.53,1.27-4.33.4-8.55.79-12.47,1.29v.17c3.92-.51,8.14-.9,12.51-1.29C16.63,278.94,20.87,278.57,25,278Z"/>
<path style="fill:#00bceb;" d="M19.68,268.2c5.4-1.05,11-2.12,16.27-3.71s10.54-3.39,12.9-7.06c3.06-4.79.08-10-8-13.8-1.4-.67-2.72-1.33-4-2-5.4-2.71-10.49-5.27-17.84-6.24a189.49,189.49,0,0,0-19-1.11v.17a181,181,0,0,1,19,1.1c7.27,1,12.35,3.51,17.73,6.21,1.29.65,2.62,1.32,4,2,8,3.8,10.91,8.89,7.89,13.6-2.3,3.61-7.57,5.44-12.76,7S25,267,19.61,268c-2.8.54-5.72,1.11-8.55,1.73-3.62.8-7.4,1.31-11.06,1.79v.17c3.69-.49,7.49-1,11.13-1.8C14,269.31,16.86,268.73,19.68,268.2Z"/>
<path style="fill:#00bceb;" d="M18,287.56c5.45.14,11.05.27,16.54-.11,5-.35,9.67-1.06,14.16-1.77,1.12-.15,2.22-.34,3.35-.49.84-.14,1.65-.26,2.5-.38,8.56-1.25,17.41-2.53,24.62-5.9,8.39-3.91,9.49-12.11,5.66-17.77-3.5-5.18-9.35-9.28-15-13.25-4.71-3.27-9.57-6.67-13.05-10.68-1.59-1.46-2.91-2.87-4.18-4.24-4.12-4.38-7.37-7.83-16-9.22-16.65-2.67-31-5-33.7-16.34-.94-4,.35-7.18,1.6-10.23,1-2.42,1.93-4.7,1.72-7.28l0,0h0c-.44-.28-.86-.57-1.27-.87a14.68,14.68,0,0,0-1.76-1.12l0,0H3a27.63,27.63,0,0,0-3,.29v.16c.83-.12,1.83-.23,3-.28a17.47,17.47,0,0,1,1.69,1.08c.41.28.82.59,1.26.84.21,2.56-.71,4.82-1.71,7.21C3,200.2,1.67,203.37,2.61,207.43c2.7,11.49,17.14,13.8,33.87,16.48,8.56,1.36,11.79,4.8,15.85,9.15,1.28,1.37,2.63,2.77,4.21,4.23,3.48,4,8.36,7.42,13.06,10.72,5.64,4,11.5,8,15,13.19,3.77,5.61,2.72,13.7-5.59,17.59-7.2,3.33-16,4.63-24.52,5.86-.85.12-1.69.26-2.52.37l-3.35.52c-4.48.68-9.11,1.4-14.15,1.75-5.46.39-11,.24-16.48.11a143.83,143.83,0,0,0-18,.3v.18A143.43,143.43,0,0,1,18,287.56Z"/>
<path style="fill:#00bceb;" d="M183.7,250.71a16.05,16.05,0,0,1,2.1.79,31.24,31.24,0,0,1,6.67,4.65,24.9,24.9,0,0,1,7.56,11c2.07,6,7.58,8.4,16.4,10.5a71.45,71.45,0,0,0,16.16,1.83,68.61,68.61,0,0,0,8.13-.48c9.51-1.17,15.62-5.11,16.73-10.86.25-1.19.57-2.44.89-3.65,1.3-4.87,2.63-9.9-1.49-14.39-3.37-3.65-9.74-4.16-16.13-4.16-1.22,0-2.48,0-3.65,0s-2.38,0-3.52,0a53.43,53.43,0,0,1-5.47-.23c-5.09-.56-10.16-1.41-15-2.24-8.08-1.35-15.69-2.65-23.3-2.65-1.62,0-3.22.07-4.73.18a6.1,6.1,0,0,0-4.72,3.08c-.95,1.65-1.24,3.87.29,5.13A10.69,10.69,0,0,0,183.7,250.71Zm-3.16-6.47a5.83,5.83,0,0,1,4.51-3c1.51-.11,3.09-.18,4.71-.18,7.59,0,15.17,1.28,23.22,2.64,4.9.83,10,1.68,15.07,2.23a48.92,48.92,0,0,0,5.5.23l3.52,0c1.18,0,2.43,0,3.65,0,6.32,0,12.62.48,15.92,4.07,4.06,4.43,2.75,9.44,1.47,14.27-.32,1.22-.66,2.48-.89,3.67-1.11,5.66-7.13,9.55-16.54,10.72a64,64,0,0,1-8.09.47,71.48,71.48,0,0,1-16.09-1.81c-8.75-2.08-14.2-4.44-16.24-10.4A25.13,25.13,0,0,0,192.65,256a31.12,31.12,0,0,0-6.69-4.67,18.9,18.9,0,0,0-2.13-.82,10.11,10.11,0,0,1-3-1.33C179.53,248.18,179.44,246.14,180.54,244.24Z"/>
<path style="fill:#00bceb;" d="M227.54,272.67a39.16,39.16,0,0,0,7.15-.65c.41-.1.83-.21,1.2-.33,2.31-.74,3.64-2,3.69-3.55a4.28,4.28,0,0,0-2.07-3.43,9,9,0,0,0-6.87-1.26c-2.66.56-8.25,2.74-9.9,5.13a2,2,0,0,0-.23,2.32C221.38,272.35,224.8,272.67,227.54,272.67Zm-6.61-4c1.65-2.34,7.14-4.5,9.76-5a10.11,10.11,0,0,1,1.94-.19,8.08,8.08,0,0,1,4.7,1.4,4.08,4.08,0,0,1,2,3.32c-.06,1.47-1.32,2.69-3.55,3.39-.37.12-.77.23-1.17.33a37.91,37.91,0,0,1-7.08.63c-3.78,0-6.18-.58-6.8-1.64A1.86,1.86,0,0,1,220.93,268.65Z"/>
<path style="fill:#00bceb;" d="M301,334.25a6.51,6.51,0,0,1,0-1.17,7,7,0,0,0,0-1.29c-.46-2.65-2-5.9-3.69-9.33a55,55,0,0,1-4.3-10.6c-.33-1.46-.56-3-.79-4.55-.7-5-1.41-10.08-6.46-12.37-2.29-1-5.65-1.52-10.53-1.52-2.73,0-5.68.15-8.57.28l-3.37.16c-10,.41-30.79,2.19-38.05,6-9.9,5.15-11.09,14-10.93,22,1.17,10,11.18,15.66,22.2,21.33h.39c-11.07-5.7-21.17-11.29-22.38-21.34-.14-7.93,1.05-16.72,10.88-21.82,7.19-3.75,27.94-5.53,37.91-5.94,1.12,0,2.25-.11,3.39-.16,2.87-.14,5.82-.28,8.53-.28,4.85,0,8.15.48,10.4,1.5,4.95,2.24,5.66,7.31,6.37,12.24a45.19,45.19,0,0,0,.78,4.56,55.31,55.31,0,0,0,4.3,10.64c1.67,3.42,3.25,6.64,3.67,9.28a6.82,6.82,0,0,1,0,1.27,5.21,5.21,0,0,0,0,1.19,16.14,16.14,0,0,1-1.33,8.86h.25A16.18,16.18,0,0,0,301,334.25Z"/>
<path style="fill:#00bceb;" d="M33.84,335.42a60.75,60.75,0,0,1,.07-6.89c.16-3.44.32-6.72-.55-9.35-2.11-6.46-14-11.07-24.4-13.24a33.67,33.67,0,0,0-9-.69v.16a34.17,34.17,0,0,1,8.91.69c10.34,2.16,22.13,6.73,24.22,13.11.87,2.61.71,5.88.55,9.31a56.61,56.61,0,0,0-.07,6.9,34.38,34.38,0,0,1-.35,7.7h.24A33.26,33.26,0,0,0,33.84,335.42Z"/>
<path style="fill:#00bceb;" d="M288.65,332.75a47.2,47.2,0,0,0-2.16-5.49,53.15,53.15,0,0,1-3.45-9.55c-.21-.95-.39-1.85-.56-2.73-1.16-5.71-2.06-10.23-7.63-13.22-3.8-2-10.9-3.25-19-3.25-9.85,0-19,1.7-24.51,4.56-9,4.69-9.39,12.95-8.11,19.06,2,6.51,8.8,9.85,17.44,14.13a138.77,138.77,0,0,1,12.45,6.65c.1.06.21.15.33.21h.36c-.2-.1-.36-.22-.55-.33-4.24-2.64-8.59-4.78-12.42-6.68-8.61-4.22-15.41-7.57-17.38-14-1.29-6.06-.94-14.25,8-18.89,5.43-2.83,14.55-4.52,24.35-4.52,8,0,15.06,1.19,18.84,3.21,5.52,2.95,6.39,7.43,7.53,13.11.19.89.35,1.8.57,2.72a51.91,51.91,0,0,0,3.46,9.58,44,44,0,0,1,2.14,5.48,15.25,15.25,0,0,1-.94,10.34h.25A15.4,15.4,0,0,0,288.65,332.75Z"/>
<path style="fill:#00bceb;" d="M116.15,323.07A21,21,0,0,1,115,313a10.34,10.34,0,0,1,.64-2.05c.94-2.53,2.11-5.67-2.53-7.94h0c-8.59-.7-13.8,4.13-18.4,8.39-1.21,1.13-2.32,2.17-3.5,3.13-4.18,3-9.88,5.16-15.93,7.46-9.35,3.56-19,7.25-23.59,14.43a56.76,56.76,0,0,0-3.51,6.67h.25a63.15,63.15,0,0,1,3.46-6.61c4.54-7.14,14.18-10.79,23.51-14.35,6-2.3,11.77-4.46,16-7.5,1.19-1,2.33-2,3.54-3.12,4.56-4.22,9.7-9,18.15-8.34,4.45,2.21,3.37,5.15,2.41,7.76a12.67,12.67,0,0,0-.67,2.07,21.34,21.34,0,0,0,1.21,10.07A93.93,93.93,0,0,0,122,334.43c1.71,2.83,3.43,5.74,4.93,8.69h.25c-1.51-3-3.26-5.89-5-8.75A89.7,89.7,0,0,1,116.15,323.07Z"/>
<path style="fill:#00bceb;" d="M252,303.44c-5.32,0-10.57,1.07-14,2.87-4.51,2.32-7.21,5.12-6.71,11.91,3.07,8.65,16.75,13.31,28.07,13.31h0a37.7,37.7,0,0,0,4.3-.23h.05a23.45,23.45,0,0,0,4.47-3.28l0,0c4.15-8.8,4-16.11-.51-20.05C264.48,305.07,258.77,303.44,252,303.44Zm16,24.48a25.91,25.91,0,0,1-4.39,3.24c-1.38.13-2.8.22-4.24.22h0c-11.25,0-24.81-4.63-27.82-13.17-.5-6.72,2.16-9.48,6.58-11.77,3.43-1.77,8.63-2.83,13.91-2.83,6.68,0,12.3,1.6,15.46,4.4C271.92,311.91,272.08,319.17,268,327.92Z"/>
<path style="fill:#00bceb;" d="M193.68,327.69c-1.8-5.91-3.62-12-9.25-16.87-2.89-2.49-6.46-3.45-11-3-9.3.95-20.36,6.72-26.3,9.83-6.66,4.76-9.16,10.51-7.69,17.6a48.29,48.29,0,0,0,2.65,7.87h.25a45.29,45.29,0,0,1-2.65-7.9c-1.47-7,1-12.75,7.6-17.46,5.91-3.08,16.93-8.85,26.17-9.77.71-.07,1.4-.11,2.06-.11a12.75,12.75,0,0,1,8.7,3.05c5.59,4.82,7.43,10.89,9.21,16.78,1.58,5.3,3.21,10.78,7.64,15.2a1.08,1.08,0,0,0,.22.21h.28l-.32-.29C196.89,338.43,195.26,333,193.68,327.69Z"/>
<path style="fill:#00bceb;" d="M253.18,314.58l0,0a5.13,5.13,0,0,0-3.8-1.64,5.33,5.33,0,0,0-1.42.19h0a2.89,2.89,0,0,0-1.61,1.89,1.35,1.35,0,0,0,.62,1.31,7,7,0,0,1,.92.61h.06a5.19,5.19,0,0,0,1.4.19h0a5,5,0,0,0,3.83-1.65l0,0a6.17,6.17,0,0,0,0-.85Zm-.27.84a4.66,4.66,0,0,1-3.6,1.54h0a5.92,5.92,0,0,1-1.31-.15,8.35,8.35,0,0,0-.91-.6,1.25,1.25,0,0,1-.55-1.19,2.76,2.76,0,0,1,1.49-1.76,5.28,5.28,0,0,1,1.33-.17,4.83,4.83,0,0,1,3.57,1.53A3.62,3.62,0,0,1,252.91,315.42Z"/>
<path style="fill:#00bceb;" d="M11.78,321.86c-3-2.49-5.73-3.52-11.78-4.29v.16c5.94.77,8.68,1.77,11.61,4.23,5.16,4.37,8.34,12.49,9.1,18.2a22.74,22.74,0,0,1,.21,3h.23a22.67,22.67,0,0,0-.19-3C20.19,334.42,17,326.24,11.78,321.86Z"/>
<path style="fill:#00bceb;" d="M164.48,324c-.33,0-.69,0-1,0a14.25,14.25,0,0,0-8.29,3c-3.1,2.53-4.49,6.4-3.89,10.89a29.83,29.83,0,0,0,1.21,5.22h.23a30.83,30.83,0,0,1-1.2-5.23c-.59-4.46.76-8.28,3.83-10.79a14.06,14.06,0,0,1,8.13-2.93l1,0c9.64,0,13.21,7.87,16.35,14.79.66,1.46,1.29,2.89,2,4.18h.26c-.69-1.29-1.33-2.74-2-4.22C177.9,331.91,174.32,324,164.48,324Z"/>
<path style="fill:#00bceb;" d="M99,330.55c-1.62-.16-3.25-.23-4.88-.23a49,49,0,0,0-18.51,3.51,31.22,31.22,0,0,0-12.83,9.29h.27c6.08-7.81,17.9-12.64,31.07-12.64,1.61,0,3.25.08,4.86.21,7,.66,13.93,4.65,18.94,10.94.39.49.78,1,1.11,1.49h.25c-.35-.52-.74-1.05-1.15-1.56C113.11,335.22,106.15,331.21,99,330.55Z"/>
<path style="fill:#00bceb;" d="M.34,337.51H0v.15H.34A4.86,4.86,0,0,1,4.63,340a6,6,0,0,1,.84,3.14h.26a6.11,6.11,0,0,0-.89-3.2A5.11,5.11,0,0,0,.34,337.51Z"/>
<path style="fill:#00bceb;" d="M80.57,343.12H81a30.94,30.94,0,0,1,13-2.78,26.35,26.35,0,0,1,12.2,2.78h.4A26.52,26.52,0,0,0,94,340.19,30.92,30.92,0,0,0,80.57,343.12Z"/>
<path style="fill:#00bceb;" d="M424.51,327.31a113.65,113.65,0,0,1-8-11c-1.27-2.07-2.43-4.34-3.65-6.75-5.22-10.28-11.13-21.92-29.44-21.92h-.73a59.87,59.87,0,0,0-17,3c-1,.3-2,.63-3,1-3.07,1-6.25,2-9.11,3-8.32,3.15-17.87,4.69-27.07,6.18l-.13,0c-.78.13-1.61.26-2.5.37-6.18.9-13.86,2-16.31,7-1.86,3.8-.14,8.65,1.51,13.34.6,1.71,1.17,3.33,1.56,4.87a29.91,29.91,0,0,1,.25,14.89c-.16.58-.34,1.18-.55,1.79h.25c.21-.6.37-1.18.53-1.77a30.11,30.11,0,0,0-.25-14.94c-.41-1.54-1-3.16-1.56-4.88-1.67-4.67-3.36-9.5-1.51-13.25,2.4-4.84,10-5.94,16.13-6.83.89-.13,1.72-.25,2.5-.38l.13,0c9.24-1.48,18.81-3,27.15-6.19,2.82-1.07,6-2.08,9.07-3.05,1-.32,2.05-.65,3.05-1a59.94,59.94,0,0,1,16.91-3c.25,0,.5,0,.73,0,18.13,0,24,11.6,29.22,21.85,1.21,2.39,2.37,4.67,3.64,6.75a117.75,117.75,0,0,0,8.06,11c2.4,3,4.67,5.84,6.62,8.77a29.84,29.84,0,0,0,6.12,6.94h.32a29.12,29.12,0,0,1-6.25-7C429.18,333.19,426.91,330.34,424.51,327.31Z"/>
<path style="fill:#00bceb;" d="M505.43,296.55c-15.08,3.91-25.16,11.28-29.12,21.33a67.9,67.9,0,0,0-2.64,9.86c-.94,4.31-1.92,8.76-3.5,11.85a11.27,11.27,0,0,1-2.89,3.53h.28a11.3,11.3,0,0,0,2.83-3.47c1.61-3.12,2.57-7.57,3.51-11.89a68.19,68.19,0,0,1,2.64-9.84c3.94-10,13.95-17.33,29-21.22,1.24-.32,3.37-.72,5.18-1,.43-.05.85-.11,1.3-.14v-.17l-1.35.15C508.84,295.82,506.69,296.22,505.43,296.55Z"/>
<path style="fill:#00bceb;" d="M490.78,222.29a78.93,78.93,0,0,0-14,3.92,78.32,78.32,0,0,1-13.95,3.87c-12.4,1.83-17-5.61-21-12.21-.59-.94-1.14-1.84-1.69-2.7a56.87,56.87,0,0,0-7.81-9.37,66.89,66.89,0,0,0-19.86-13.24,58.62,58.62,0,0,0-18.1-5.07c-8.92-.82-15.28,1.08-22.59,3.26-1.58.47-3.23,1-4.91,1.43-4.83,1.34-10.31,2.86-14.06,6.17a45.49,45.49,0,0,0-6.95,8.41l-.48.66a139,139,0,0,0-9.48,16.26c-.66,1.26-1.31,2.55-1.95,3.82A110.34,110.34,0,0,1,328.15,238a36.94,36.94,0,0,1-6.6,7c-1.36,1.22-2.77,2.47-4,3.77-3.14,3.29-8.06,6.16-12.83,8.94-1.72,1-3.36,1.95-4.88,2.92-1,.58-2,1.19-3.07,1.82-4.93,2.92-10.52,6.23-12,10.43-.19.56-.37,1.12-.55,1.65-1.58,4.7-3,8.76-9.81,11.71-6.48,2.79-14.36,3.69-21.29,4.48-3.29.37-6.62.67-9.84,1-6,.52-11.57,1-16.66,1.95-11.64,2.13-18.74,7.66-21.1,16.49-2.29,8.6,0,19.1,2.63,23.4,2.32,3.86,6.24,6.89,11,9.61h.39c-4.8-2.73-8.77-5.78-11.13-9.69-2.55-4.26-4.9-14.72-2.61-23.3,2.36-8.75,9.37-14.25,20.92-16.34,5.1-.94,10.7-1.44,16.65-2,3.21-.28,6.55-.57,9.83-.95,7-.81,14.85-1.71,21.38-4.52,7-3,8.31-7.07,9.91-11.8.19-.53.39-1.09.56-1.65,1.46-4.15,7-7.43,11.93-10.34,1.08-.64,2.13-1.25,3.07-1.84,1.52-1,3.14-1.91,4.88-2.91,4.77-2.79,9.71-5.65,12.85-9,1.24-1.29,2.64-2.54,4-3.76a38.37,38.37,0,0,0,6.65-7.06,107,107,0,0,0,5.79-10.47c.64-1.26,1.29-2.56,1.95-3.83a141.32,141.32,0,0,1,9.48-16.24l.44-.66a45.44,45.44,0,0,1,7-8.38c3.7-3.26,9.14-4.77,13.94-6.1,1.7-.48,3.33-1,4.91-1.43,7.29-2.19,13.59-4.08,22.49-3.28a58.76,58.76,0,0,1,18,5.07,66.2,66.2,0,0,1,19.8,13.21,56.38,56.38,0,0,1,7.76,9.33c.57.85,1.12,1.76,1.7,2.7,2,3.18,4.17,6.78,7.42,9.28,3.74,2.86,8.29,3.85,13.91,3a78.47,78.47,0,0,0,14-3.91,80.27,80.27,0,0,1,13.91-3.88c7.88-1.21,15.1.19,21.17,1.67V224C505.91,222.48,498.69,221.11,490.78,222.29Z"/>
<path style="fill:#00bceb;" d="M478.28,283.79c-5.62,3.74-10.95,7.3-17.92,8.68-9.69,2-17-2.93-24.12-7.67-.42-.3-.87-.59-1.29-.88A73.39,73.39,0,0,0,422.86,278c-3-1.25-6.08-2.55-8.87-4.05-2.09-1.13-4.31-2.18-6.46-3.19-1.45-.7-2.95-1.41-4.37-2.12a19.23,19.23,0,0,1-5.64-4.89,29.83,29.83,0,0,0-2.77-2.86c-2.73-2.41-6.58-4.23-10.32-6-6.85-3.23-13.33-6.3-13.79-12.65-.27-3.79,1-8.48,3.4-12.9,2.33-4.17,6.71-8.7,12-12.42a17.39,17.39,0,0,1,11-3.51c6.46.38,12,5.06,16.1,9.12a18.88,18.88,0,0,1,4.36,7.1,32.79,32.79,0,0,0,2.11,4.39c.92,1.54,2,3,3.09,4.51a37,37,0,0,1,4.51,7.21c1.81,4.25,2.16,10.41-.64,14S425.15,268.93,428,272c2.6,2.78,9.14,4.54,14.39,6,1.19.31,2.29.63,3.28.91l1.39.42a31.42,31.42,0,0,0,4.79,1.21c8.14,1.14,13.77-1.54,17.16-8.18,3.56-7,1.1-13.33-7-17.9a58.75,58.75,0,0,0-8-3.45c-1.22-.47-2.5-1-3.72-1.45l-1-.4c-3.55-1.45-7.95-3.25-10.38-5.35a45.46,45.46,0,0,1-8.88-10.11,55.35,55.35,0,0,1-3-5.67c-.69-1.42-1.4-2.88-2.22-4.37a36.75,36.75,0,0,0-6.72-8.31c-3.84-3.57-10.74-8.38-17.61-10.13-10.86-2.76-25.48,4.58-32.66,10.18a36.37,36.37,0,0,0-8.68,10.47c-.55.92-1.08,1.87-1.64,2.78-3,5.11-5.78,10-10.47,14.4a45.85,45.85,0,0,0-3.95,4.45c-.87,1.06-1.76,2.18-2.75,3.24-2.52,2.7-6.36,4.31-10.14,5.64-1.73.63-3.54,1.2-5.28,1.77-5,1.61-10.24,3.28-14.48,6-2.7,1.75-3.77,3.6-3.2,5.51.94,3.17,6.05,5.54,10.54,6.68,9.32,2.39,20.11,1.53,29.6.75l1.23-.09,2.25-.17c4.19-.29,8.16-.57,12.14-2.13l1.88-.73c6-2.35,11.22-4.39,18.12-5.44,4.33-.67,10.77-.61,14.69,1.09a7.75,7.75,0,0,1,3.67,3.43,12.48,12.48,0,0,0,1.92,2.43c3.3,3,7.76,5.28,12.07,7.55s8.6,4.49,11.91,7.37a42.45,42.45,0,0,1,5.23,5.89,39.54,39.54,0,0,0,5.17,5.8c3.92,3.32,9.24,4.47,15.06,3.23,5-1.09,10.63-4,16-6.85l2.43-1.28c2.82-1.46,5.58-3,8.24-4.48,7.31-4.07,14.23-7.93,22-10.1a79,79,0,0,1,10.4-2v-.17a76.23,76.23,0,0,0-10.49,2c-7.82,2.16-14.76,6-22.09,10.12-2.66,1.48-5.4,3-8.22,4.46-.8.42-1.61.84-2.41,1.28-5.4,2.83-11,5.76-16,6.83-5.71,1.22-11,.1-14.8-3.18a39,39,0,0,1-5.15-5.75,41.92,41.92,0,0,0-5.27-5.93c-3.33-2.89-7.7-5.19-11.94-7.41s-8.73-4.57-12-7.52a12.64,12.64,0,0,1-1.9-2.38,8.32,8.32,0,0,0-3.75-3.52c-4-1.72-10.52-1.78-14.89-1.11-6.93,1.07-12.15,3.11-18.19,5.48-.62.23-1.25.47-1.88.74-3.92,1.52-7.86,1.79-12,2.08l-2.25.17-1.21.11c-9.49.76-20.23,1.62-29.51-.75-5.55-1.41-9.63-4-10.38-6.56-.55-1.85.5-3.65,3.14-5.36,4.19-2.71,9.39-4.39,14.39-6,1.76-.54,3.57-1.13,5.33-1.75,3.78-1.34,7.66-3,10.22-5.72,1-1.06,1.88-2.15,2.75-3.22a44.69,44.69,0,0,1,3.94-4.43c4.72-4.48,7.52-9.32,10.51-14.45.53-.92,1.06-1.84,1.63-2.79a36.7,36.7,0,0,1,8.62-10.41c7.14-5.56,21.65-12.87,32.41-10.13,6.81,1.72,13.68,6.52,17.48,10.08a34.76,34.76,0,0,1,6.72,8.27c.82,1.47,1.53,2.94,2.2,4.35a51.93,51.93,0,0,0,3,5.68,45.64,45.64,0,0,0,8.89,10.15c2.47,2.12,6.89,3.93,10.44,5.39.33.12.65.26,1,.4,1.21.5,2.5,1,3.73,1.45a57.21,57.21,0,0,1,7.91,3.43c8,4.52,10.42,10.81,6.9,17.73-3.35,6.56-8.89,9.19-16.91,8.07a30.73,30.73,0,0,1-4.74-1.19c-.44-.14-.92-.28-1.38-.44-1-.28-2.11-.57-3.28-.9-5.24-1.42-11.73-3.18-14.29-5.9-2.82-3-4.12-8.75-1.44-12.15,2.83-3.57,2.47-9.8.66-14.09a38.25,38.25,0,0,0-4.49-7.24c-1.08-1.46-2.16-3-3.09-4.5a32,32,0,0,1-2.11-4.37,18.82,18.82,0,0,0-4.4-7.15c-4.13-4.07-9.72-8.8-16.27-9.18a17.65,17.65,0,0,0-11.15,3.54c-5.37,3.75-9.77,8.3-12.1,12.49-2.45,4.44-3.69,9.17-3.42,13,.46,6.42,7.27,9.65,13.87,12.78,3.73,1.76,7.58,3.59,10.29,6a27.78,27.78,0,0,1,2.76,2.86,19.8,19.8,0,0,0,5.67,4.92c1.44.71,2.95,1.43,4.39,2.11,2.13,1,4.35,2.08,6.44,3.19a97.24,97.24,0,0,0,8.91,4.05,73.17,73.17,0,0,1,12,5.94c.46.29.87.57,1.31.88,7.14,4.76,14.52,9.7,24.35,7.71,7-1.4,12.37-4.95,18-8.72,5.36-3.58,10.93-7.29,18.42-9.44A111.64,111.64,0,0,1,512,271.58v-.17a110.8,110.8,0,0,0-15.23,2.92C489.27,276.49,483.69,280.2,478.28,283.79Z"/>
<path style="fill:#00bceb;" d="M487,235.27a70.87,70.87,0,0,0-12,3.3c-6.92,2.34-14.05,4.76-20.64,3.35C442.58,239.39,438,230.76,434,223.16c-.83-1.55-1.59-3-2.43-4.43a39.18,39.18,0,0,0-6.83-8.6c-4.21-4-9.37-6.5-14.83-9.11l-2.51-1.19c-4.81-2.35-10.68-4.66-17.46-4a28.86,28.86,0,0,0-6.48,1.74c-1.34.49-2.62.93-3.86,1.25l-2.83.71c-7.25,1.79-14.76,3.67-19.92,7.69a29.69,29.69,0,0,0-4,4.1c-.64.77-1.24,1.48-1.86,2.16a46,46,0,0,0-6.6,8.82A52.56,52.56,0,0,0,340.22,233a49.13,49.13,0,0,1-4.7,11.49c-2.33,3.72-8.47,6.4-13.9,8.74-1.47.65-2.87,1.26-4.11,1.87a76.51,76.51,0,0,0-10,6c-2,1.35-4.11,2.76-6.33,4-5.13,3-7.42,8-6,13.24,2.49,9.1,7.65,10.6,18.83,11.87,8.52,1,18.44.73,30.29-.68,6.83-.83,13.33-3.86,19.59-6.76,2.29-1.08,4.44-2.07,6.55-2.94a32.15,32.15,0,0,1,27.93,2c1.12.62,2.24,1.24,3.36,1.83,6.6,3.63,12.84,7.05,16.16,12.49a42.2,42.2,0,0,1,3.38,7.36,42.47,42.47,0,0,0,3.26,7.23c2.13,3.53,6.3,7.43,10.9,10.19,3.95,2.4,9.95,5,16,3.76,5.64-1.13,9-5.52,12.49-10.17a48.51,48.51,0,0,1,7.65-8.53,82.72,82.72,0,0,1,13-8.24l.37-.2c7.88-4.19,15.3-8.16,25.13-9.49.62-.1,1.26-.17,1.9-.23v-.18l-2,.24c-9.89,1.35-17.32,5.33-25.18,9.52l-.41.21a84.52,84.52,0,0,0-13,8.26,50,50,0,0,0-7.67,8.57c-3.5,4.62-6.81,9-12.35,10.09-5.94,1.2-11.87-1.35-15.79-3.72-4.51-2.71-8.77-6.69-10.83-10.14a42.29,42.29,0,0,1-3.26-7.21,43.07,43.07,0,0,0-3.38-7.38c-3.35-5.48-9.92-9.07-16.27-12.55-1.08-.59-2.22-1.21-3.32-1.84a32.6,32.6,0,0,0-28.21-2.05c-2.13.87-4.28,1.87-6.53,2.93-6.29,2.92-12.76,5.93-19.54,6.74-11.82,1.44-21.7,1.66-30.2.68-11.06-1.25-16.17-2.75-18.64-11.74-1.4-5.13.89-10.15,5.93-13.07,2.22-1.3,4.33-2.7,6.37-4.06a77.71,77.71,0,0,1,9.92-6c1.24-.6,2.66-1.21,4.12-1.85,5.44-2.36,11.62-5,14-8.81s3.51-7.67,4.72-11.52a51.87,51.87,0,0,1,4.21-10.68,46.48,46.48,0,0,1,6.56-8.81c.64-.67,1.25-1.4,1.88-2.15a29.41,29.41,0,0,1,4-4.08c5.13-4,12.6-5.85,19.82-7.65l2.84-.71c1.26-.32,2.58-.8,3.85-1.25A28.86,28.86,0,0,1,390,196c6.7-.65,12.49,1.65,17.3,4l2.48,1.18c5.47,2.63,10.62,5.09,14.79,9.08a39.69,39.69,0,0,1,6.81,8.59c.82,1.39,1.58,2.86,2.41,4.42,4,7.62,8.59,16.29,20.57,18.84,6.66,1.43,13.86-1,20.8-3.36a70.38,70.38,0,0,1,11.89-3.28c5.39-.79,15.35-1.11,24.95-1v-.17C502.38,234.18,492.41,234.48,487,235.27Z"/>
<path style="fill:#00bceb;" d="M482.17,105.16c-6.48,3.08-10.37,7.45-11.54,13a19.14,19.14,0,0,0,.25,6.77,18.47,18.47,0,0,1,.22,7.17,9,9,0,0,1-5.35,6.11,9.58,9.58,0,0,1-6.08.28c-7-5.57-12.71-9.27-21.32-11.68-2.46-.68-5-1.28-8.05-1.94l-4.51-1c-9.35-2.11-19-4.28-34.78-3.39-7.56.43-13.26,1.39-18.23,4.83a46.31,46.31,0,0,0-8.12,7.67,68.72,68.72,0,0,1-5.56,5.65c-1,.9-2.27,1.78-3.46,2.65a34.78,34.78,0,0,0-4.95,4.05c-2.79,3-2.91,8.08-1.86,11.48,1.38,4.44,5.52,8.25,9.67,11.77,1,.88,2,1.84,3.05,2.85,2.77,2.73,5.64,5.54,9.64,7,4.38,1.58,9.49,1.59,14.35,1.36a39.43,39.43,0,0,0,5.06-.69,24.28,24.28,0,0,1,7.38-.62c8.64,1.06,18.44,5.18,24.7,8.7a53.63,53.63,0,0,1,9.18,6.37c2.09,1.83,4.1,3.66,6.25,5.64,3.65,3.36,7.43,6.82,11.73,10.25,4,3.2,9.19,6.22,17.35,4.29a57,57,0,0,0,12.34-4.87c5.48-2.77,10.45-6.66,15.26-10.43,4.38-3.45,8.55-6.71,12.65-8.71a15.23,15.23,0,0,1,4.56-1.4v-.16a15.46,15.46,0,0,0-4.7,1.43c-4.14,2-8.29,5.27-12.71,8.75-4.77,3.74-9.72,7.64-15.21,10.39a53.76,53.76,0,0,1-12.26,4.84c-8,1.91-13.17-1.07-17.11-4.22-4.27-3.43-8.07-6.91-11.71-10.26-2.15-2-4.17-3.82-6.26-5.63a53.47,53.47,0,0,0-9.21-6.42c-6.3-3.51-16.13-7.66-24.81-8.72a24.63,24.63,0,0,0-7.49.62,38.74,38.74,0,0,1-5,.68c-4.83.23-9.91.23-14.24-1.34-3.94-1.43-6.79-4.23-9.56-6.93-1-1-2-2-3.05-2.88-4.12-3.49-8.27-7.28-9.62-11.7-1-3.37-.91-8.36,1.84-11.35a31.4,31.4,0,0,1,4.92-4c1.19-.86,2.43-1.74,3.46-2.64a58,58,0,0,0,5.55-5.68,46.45,46.45,0,0,1,8.13-7.62c4.92-3.41,10.56-4.37,18.07-4.8,15.7-.88,25.37,1.28,34.69,3.38l4.51,1c3.09.66,5.59,1.26,8,1.94,8.59,2.38,14.3,6.08,21.24,11.64h0l0,0a10.24,10.24,0,0,0,6.34-.28,9.2,9.2,0,0,0,5.46-6.23,19.07,19.07,0,0,0-.23-7.21,20,20,0,0,1-.25-6.74c1.18-5.47,5-9.79,11.43-12.85,7.33-3.49,17.57-5.12,29.71-4.8v-.18C499.81,100,489.53,101.64,482.17,105.16Z"/>
<path style="fill:#00bceb;" d="M139.55,15.65c.41,2.29.92,6.53-.23,9.38-1.92,4.7-7.45,8.74-12.79,12.66-7.56,5.51-15.37,11.21-13,18.84,1.3,4.12,4.53,6.67,9.94,7.83,4.69,1,10.45.87,17,.63,11.85-.45,19.89.89,24.56,2.11a76.47,76.47,0,0,1,13.27,5.28c5.65,2.66,11,5.19,17,5.75A26,26,0,0,0,202,78c5.65-.85,9.91-2.8,14.41-4.87,7.67-3.49,15.58-7.12,30.95-5,3.37.45,6.73,1.14,10.28,1.86,11.32,2.3,23,4.66,36.13-.1C305.56,65.76,313,58.27,320.2,51a129.76,129.76,0,0,1,10.67-9.94c4.91-3.92,11.61-9.28,19.82-7.42a90.74,90.74,0,0,0,10,1.45c5.23.57,10.63,1.15,15.49,3.25a38.52,38.52,0,0,1,8.8,5.69c1.23,1,2.51,2,3.84,2.89a54.55,54.55,0,0,1,7.63,6.74,62.79,62.79,0,0,0,6.37,5.8c3.19,1.93,6,3.63,9.26,5.65a113.5,113.5,0,0,1,11,8.22c6.67,5.44,12.95,10.56,21.17,12.22,5.8,1.18,11.8,1,19.45-.49,4.08-.81,9.48-2.38,13.28-3.58a212.35,212.35,0,0,0,23.17-8.76A26.06,26.06,0,0,0,512,62.91v-.43c-2.41,4.19-6.53,7.68-11.93,10.13a215.22,215.22,0,0,1-23.17,8.76c-3.78,1.18-9.16,2.76-13.22,3.56-7.63,1.5-13.58,1.66-19.33.5-8.14-1.64-14.41-6.75-21.06-12.17A109.46,109.46,0,0,0,412.23,65c-3.26-2-6.05-3.74-9.24-5.66a63.23,63.23,0,0,1-6.34-5.78A56.12,56.12,0,0,0,389,46.84c-1.34-.93-2.6-1.93-3.83-2.9a38.82,38.82,0,0,0-8.85-5.71c-4.9-2.11-10.33-2.7-15.59-3.26a90.37,90.37,0,0,1-10-1.46C342.4,31.63,335.62,37,330.69,41a130.11,130.11,0,0,0-10.68,10c-7.19,7.24-14.61,14.71-26.37,18.75-13,4.73-24.7,2.37-36,.08-3.55-.72-6.9-1.4-10.29-1.86-15.44-2.1-23.41,1.52-31.11,5-4.49,2.06-8.73,4-14.36,4.84a25.54,25.54,0,0,1-6.56.17c-6-.53-11.31-3-16.93-5.73a77.77,77.77,0,0,0-13.33-5.29c-4.67-1.22-12.74-2.57-24.65-2.12-11.13.43-23.76.91-26.65-8.32-2.35-7.55,5.41-13.23,12.92-18.72,5.37-3.93,10.93-8,12.84-12.71,1.12-2.72.77-6.64.27-9.44-.82-4.52-2.75-9.16-4.81-14-.21-.52-.42-1-.65-1.58h-.25l.69,1.63C136.82,6.52,138.77,11.13,139.55,15.65Z"/>
<path style="fill:#00bceb;" d="M485.54,325.11a69.19,69.19,0,0,0-1.7,9.86,71.46,71.46,0,0,1-1.33,8.15h.23a68.44,68.44,0,0,0,1.33-8.14,71.8,71.8,0,0,1,1.72-9.85c3.07-11.29,11.3-18,23.83-19.51.82-.1,1.6-.16,2.38-.21v-.16c-.8,0-1.58.1-2.43.21C497,306.94,488.65,313.73,485.54,325.11Z"/>
<path style="fill:#00bceb;" d="M416.24,334.09A66.61,66.61,0,0,0,410.46,324l-.37-.57a67.91,67.91,0,0,1-3.77-7c-2.46-5.1-5-10.37-10.08-14.17-4.49-3.36-11.81-5.29-20.12-5.29a44.63,44.63,0,0,0-12.92,1.79,42,42,0,0,0-11.12,5c-2.51,1.67-6.16,2.53-9.69,3.4a52.12,52.12,0,0,0-6.93,2c-6.42,2.5-10.47,6-11.67,10.14-1.14,3.86-1,8.84-.89,13.64.05,2.92.14,5.95,0,8.75,0,.49-.09,1-.16,1.55h.25c.05-.52.1-1.05.14-1.55.19-2.78.12-5.83.05-8.75-.12-4.8-.23-9.77.89-13.61,1.2-4.09,5.2-7.56,11.57-10a55.67,55.67,0,0,1,6.89-1.95c3.53-.85,7.2-1.73,9.76-3.42a42.41,42.41,0,0,1,11.07-5,44.67,44.67,0,0,1,12.81-1.76c8.23,0,15.49,1.91,19.95,5.24,5,3.78,7.57,9,10,14.11a69.92,69.92,0,0,0,3.78,7l.39.59A66.48,66.48,0,0,1,416,334.14c.78,1.88,1.46,4,2.11,6,.34,1,.66,2,1,3h.25c-.34-1-.68-2-1-3C417.72,338.07,417,336,416.24,334.09Z"/>
<path style="fill:#00bceb;" d="M405.37,337a26.94,26.94,0,0,0-2.79-8.25,12.66,12.66,0,0,0-2.52-2.82,16.48,16.48,0,0,1-2-2.08,25.18,25.18,0,0,1-2.24-3.55c-2.06-3.62-4.17-7.35-10-8.41a31.33,31.33,0,0,0-5.54-.37c-2.46,0-5.07.14-7.4.27l-2.57.13a55.85,55.85,0,0,0-21.6,5.3c-7.22,3.6-9.3,9.67-10.24,13.95-.71,3.07-1.35,7.61.82,11.45.11.16.19.32.28.48h.27l-.34-.54c-2.14-3.79-1.49-8.32-.81-11.37.94-4.24,3-10.29,10.16-13.85a56.14,56.14,0,0,1,21.48-5.27c.8,0,1.65-.07,2.57-.12,2.32-.14,4.93-.28,7.38-.28a30.71,30.71,0,0,1,5.49.39c5.71,1,7.79,4.73,9.81,8.28a28.8,28.8,0,0,0,2.25,3.58,17.5,17.5,0,0,0,2,2.09,14,14,0,0,1,2.51,2.79,26.83,26.83,0,0,1,2.76,8.23,28.2,28.2,0,0,1,.56,6.07h.23A27.92,27.92,0,0,0,405.37,337Z"/>
<path style="fill:#00bceb;" d="M511.79,317.54h0c-11.23.69-17.52,9.08-19.18,25.58h.24c1.65-16.39,7.85-24.71,18.94-25.42l.23,0v-.15a.66.66,0,0,0-.21,0Z"/>
<path style="fill:#00bceb;" d="M509,338.26a9.62,9.62,0,0,0-2.67,4.86h.23a9.81,9.81,0,0,1,2.63-4.75,9.07,9.07,0,0,1,2.84-.7v-.15a9.08,9.08,0,0,0-3,.72Z"/>
<path style="fill:#00bceb;" d="M131,321.17c1.84-4.13,5-6.62,9.92-10.36.76-.59,1.61-1.18,2.52-1.82,3.51-2.5,7.5-5.33,8.39-8.28,1.77-5.89-3.53-9.34-9-11.92a76.63,76.63,0,0,0-8.64-3.26A58.24,58.24,0,0,1,123.3,281a27.24,27.24,0,0,1-8.84-8.67,17.64,17.64,0,0,1-2.08-5.15,17.58,17.58,0,0,0-2-5c-4.75-7.3-11-15.55-21.11-21.33-4.42-2.51-10-6.47-11.47-11.19-1-3.11.38-5.82,1.46-8l.17-.39c2.42-4.91,9.62-16.64,24.71-19.6,2.69-.54,6-.93,9.51-1.35a103.42,103.42,0,0,0,12.26-1.9,54.86,54.86,0,0,0,12.79-5.18l.57-.29c3.75-2,8.42-4.42,14.5-4.11a38.69,38.69,0,0,1,16.5,5.2c5.28,3,8.79,6.73,9.7,10.12a51.82,51.82,0,0,1,1.08,5.66,43.2,43.2,0,0,0,.81,4.4c2,7.66,7.31,13.78,16,18.15,7,3.55,16.38,6,27.84,7.4a79.27,79.27,0,0,0,32.23-3.07c7.52-2.41,15.58-8.2,22.53-13.46S291,215,291.85,206.68a35.38,35.38,0,0,0-.36-7.74c-.11-1-.25-2-.34-3,0-.73-.14-1.46-.24-2.24a20.46,20.46,0,0,1,0-7.8c1.4-5.52,6-8,14.26-7.42,10.7.68,20.07,5.55,23.83,12.4,3,5.45.59,11.14-1.33,15.74l-.32.76a44.66,44.66,0,0,1-13.2,18.13c-3.24,2.59-6.81,5-10.29,7.4-1.3.86-2.61,1.76-3.89,2.66-1.81,1.25-3.81,2.41-5.76,3.52a58.21,58.21,0,0,0-7.1,4.51,42,42,0,0,0-7.12,7.3c-5.94,7.5-10.1,14.12-12.67,20.18-2.32,5.47-8.75,9.83-17.18,11.64-10.87,2.33-26.46,2.06-46.29-.8-9.73-1.41-15.53-5.23-17.2-11.38-1.9-7-8.82-10.5-16.11-14.19-1.89-.95-3.82-1.93-5.7-3-7.76-4.35-3.89-8.48.19-12.84,1.83-2,3.71-4,4.51-6,1.3-3.21-.37-6.61-2-9.89a26,26,0,0,1-2-4.92c-1.88-7.58-3.76-13.56-9.39-16-3-1.32-6.89-1.5-11.85-.54-.8.14-1.69.32-2.63.51-1.92.39-4.1.83-5.89,1.1-3.11.49-6.34.76-9.76,1-3.64.32-7.38.64-11.52,1.23a35.69,35.69,0,0,0-15.93,6c-4.09,2.95-6.68,6.7-7.53,10.83a7.74,7.74,0,0,0,.25,4.9c2.06,4.8,8.41,8.18,14,11.16,1.3.68,2.52,1.33,3.69,2l.2.11c5.41,3.06,12.15,6.88,11.9,12.13-.26,5.4.75,9.32,3.36,13.11,4.12,6,9.92,9.59,20,12.49l2.27.63c3.48,1,7,2,10.39,3.29a27,27,0,0,1,6.46,3.74c1.06.77,2.16,1.56,3.42,2.32a33.64,33.64,0,0,1,4.45,3.37c3.82,3.23,8.15,6.9,14.84,6,3.43-.45,6.8-2.07,10.38-3.77a58,58,0,0,1,10-4c6.16-1.65,14.84-2,24-2.47,5.57-.25,11.36-.52,16.63-1.08,12-1.3,20.1-4.19,24.79-8.83a19.34,19.34,0,0,0,3.19-4.4,23.45,23.45,0,0,1,2.29-3.45A11,11,0,0,1,280.4,269a19.78,19.78,0,0,0,1.69-1.12c1-.73,1.88-1.5,2.78-2.25s2-1.7,3.12-2.51c1.71-1.28,3.64-2.45,5.51-3.6s3.51-2.18,5.14-3.37a31.39,31.39,0,0,0,3.48-3.06,26.22,26.22,0,0,1,4-3.43,56.25,56.25,0,0,0,7.88-6.16,19.08,19.08,0,0,0,3.8-5.83c.26-.62.57-1.25.92-1.91a19.37,19.37,0,0,1,3.34-4.16c.76-.79,1.52-1.59,2.16-2.39a71.93,71.93,0,0,0,6.2-9.08c.46-.84.88-1.69,1.33-2.52.17-.35.37-.69.55-1.05.83-1.58,1.72-3.19,2.59-4.74,2.48-4.52,5.07-9.18,6.4-13.44.86-2.71,1.6-5.61.7-8.47-3.09-9.82-17-20-29.69-21.92a80,80,0,0,0-20.87.17c-12.58,1.62-17.23,5.78-16.59,14.87.14,2.11.44,4.26.69,6.33.6,4.47,1.17,8.71.48,12.8a17.3,17.3,0,0,1-2.36,5.81c-1.85,3.06-6.07,8.28-11.34,13.93A37.91,37.91,0,0,1,243.17,233c-13.26,2.88-31,0-41.35-6.67-5.18-3.35-10.7-9.08-7.63-17.28a9.38,9.38,0,0,1,.84-1.53,8.18,8.18,0,0,0,1.06-2,45.59,45.59,0,0,1,5.56-5.26C206,196.5,210.2,193,208.6,188a14.28,14.28,0,0,0-1.53-3c-1.29-2.17-2.62-4.39-1.06-5.72a105.35,105.35,0,0,1,10.42-7.34c6.83-4.45,13.91-9.07,15.91-13.41s-2.13-8.66-3.9-10.48c-1.92-2-4.12-4-6.42-6.22-1.8-1.68-3.66-3.42-5.42-5.15-1.45-1.45-2.87-2.83-4.27-4.21-3.23-3.19-6.29-6.18-9.43-9.39-1.24-1.28-2.48-2.66-3.7-4-2-2.21-4.14-4.49-6.25-6.42-4.62-4.24-9.81-6-15.51-5.19s-11.77,3.79-17.07,6.51c-.73.37-1.44.73-2.15,1.11-9.9,5.1-21.15,10.87-24.12,17.28-2.5,5.46,2.13,8,7,10.69.53.3,1.07.59,1.58.89a55.46,55.46,0,0,1,7.77,5.36,69.91,69.91,0,0,1,7.51,7.39c1.65,1.8,3.21,3.53,4.77,4.93,5.38,4.83,12.35,7,19.08,9s13.43,4.09,18.6,8.73c0,.17,0,.33,0,.5a3.1,3.1,0,0,1-.14,1.42c-6.14,4.55-13.75,5.68-23.28,3.5a68.64,68.64,0,0,1-8.84-2.87c-6.81-2.53-13.86-5.13-22-3.44-5.84,1.2-9.89,4-13.81,6.75s-7.86,5.49-13.65,6.88a68.29,68.29,0,0,1-11.8,1.29c-12.38.64-18.37,1.62-23.46,6.05-6.71,5.85-15,16.18-17.51,20.45a19.46,19.46,0,0,0-1.9,3.92c-2.17,7.44,4.51,13.26,10.54,17.52,1.45,1,3.07,2,4.61,2.86,1.39.81,2.82,1.65,4.15,2.54A45.92,45.92,0,0,1,90.34,253c1.09,1.09,2.15,2.19,3.3,3.25,8.33,7.61,10.83,14.24,8.15,21.52-2,5.22-6.39,11.82-16.59,13.63-3.75.65-7.79,1-12,1.31-4,.33-8.08.64-12.09,1.28-3.51.54-6.83,1.25-10,2a108.49,108.49,0,0,1-13.12,2.25c-7.68.7-14.49-.41-21.09-1.44C11,295.78,5.45,294.91,0,295.41v.17c5.43-.51,10.93.36,16.75,1.29,6.62,1.06,13.45,2.14,21.19,1.45a108.73,108.73,0,0,0,13.15-2.27c3.19-.69,6.53-1.4,10-1.94,4-.63,8.08-.95,12-1.27,4.28-.34,8.33-.66,12.09-1.33,8.16-1.45,14-6.19,16.75-13.74,2.72-7.33.2-14-8.16-21.67-1.14-1-2.22-2.15-3.28-3.22a45.93,45.93,0,0,0-7-6.19c-1.32-.92-2.75-1.76-4.14-2.56s-3.14-1.85-4.59-2.87c-6-4.21-12.64-10-10.47-17.38A18.25,18.25,0,0,1,66.23,220c2.52-4.26,10.77-14.58,17.46-20.41,5-4.38,11-5.36,23.3-6a64.83,64.83,0,0,0,11.87-1.3c5.84-1.37,9.85-4.18,13.74-6.88,4.06-2.85,7.91-5.54,13.68-6.72,8-1.67,15.05.92,21.81,3.43a74.46,74.46,0,0,0,8.85,2.88c9.66,2.21,17.36,1,23.59-3.55v0a3.06,3.06,0,0,0,.13-1.49v-.55l0,0c-5.18-4.67-12-6.77-18.68-8.8s-13.67-4.19-19-9c-1.55-1.4-3.12-3.12-4.77-4.93a71.24,71.24,0,0,0-7.53-7.41,57.49,57.49,0,0,0-7.79-5.38c-.53-.31-1.06-.59-1.58-.88-4.84-2.66-9.42-5.18-6.95-10.52,2.94-6.37,14.14-12.11,24-17.2.73-.36,1.46-.74,2.17-1.12,5.27-2.72,11.38-5.69,17-6.47s10.74.94,15.3,5.12c2.11,1.92,4.19,4.21,6.23,6.42,1.21,1.31,2.45,2.67,3.71,4,3.12,3.22,6.19,6.22,9.42,9.41,1.4,1.36,2.82,2.77,4.3,4.21,1.73,1.73,3.58,3.47,5.39,5.15,2.33,2.17,4.53,4.23,6.42,6.2s5.88,6.08,3.89,10.36-9.07,8.88-15.88,13.33a107.24,107.24,0,0,0-10.43,7.35c-1.64,1.41-.29,3.69,1.06,5.89a15.3,15.3,0,0,1,1.49,2.93c1.58,5-2.55,8.46-6.92,12.16a46.69,46.69,0,0,0-5.57,5.29l0,0a7.94,7.94,0,0,1-1.07,2A10.25,10.25,0,0,0,194,209c-2.41,6.48.32,12.67,7.72,17.45,10.36,6.73,28.23,9.59,41.58,6.71A38.22,38.22,0,0,0,262.49,222c5.29-5.68,9.55-10.9,11.38-14a17.45,17.45,0,0,0,2.38-5.85c.69-4.11.12-8.35-.46-12.84-.29-2.07-.57-4.21-.71-6.31-.32-4.6.71-7.83,3.23-10.11s6.74-3.78,13.16-4.59a78.87,78.87,0,0,1,20.78-.17c12.66,1.85,26.43,12,29.5,21.79.9,2.82.16,5.7-.68,8.4-1.33,4.26-3.92,8.9-6.4,13.39-.86,1.57-1.74,3.18-2.58,4.76-.19.35-.37.71-.57,1.06-.4.83-.86,1.68-1.33,2.52a67.38,67.38,0,0,1-6.15,9c-.64.8-1.42,1.61-2.17,2.4a19.07,19.07,0,0,0-3.37,4.2c-.34.65-.64,1.3-.94,1.91a18.08,18.08,0,0,1-3.73,5.78,56.06,56.06,0,0,1-7.88,6.13,28.06,28.06,0,0,0-4,3.44,29.08,29.08,0,0,1-3.45,3.06c-1.61,1.18-3.42,2.3-5.16,3.36s-3.78,2.33-5.52,3.62c-1.06.82-2.13,1.67-3.12,2.51s-1.81,1.51-2.77,2.24c-.52.39-1.1.76-1.67,1.12a11,11,0,0,0-2.8,2.16,22.33,22.33,0,0,0-2.33,3.46,20,20,0,0,1-3.14,4.39c-4.65,4.6-12.7,7.45-24.65,8.74-5.25.57-11,.84-16.61,1.09-9.21.43-17.9.82-24.1,2.48a59.08,59.08,0,0,0-10,4c-3.55,1.71-6.9,3.31-10.28,3.75-6.54.86-10.82-2.75-14.62-5.95a35,35,0,0,0-4.47-3.4,39.64,39.64,0,0,1-3.41-2.31,27.2,27.2,0,0,0-6.51-3.77c-3.35-1.29-7-2.31-10.42-3.28l-2.27-.64c-10-2.88-15.83-6.47-19.89-12.4-2.61-3.77-3.6-7.68-3.34-13s-6.55-9.17-12-12.27l-.2-.1c-1.15-.67-2.37-1.32-3.67-2-5.84-3.12-11.89-6.34-14-11.08a7.65,7.65,0,0,1-.21-4.83C93,215.41,102,209,114.58,207.21c4.12-.59,7.88-.9,11.49-1.21,3.42-.3,6.67-.59,9.79-1.06,1.79-.27,4-.71,5.91-1.1.92-.19,1.81-.38,2.63-.52,4.89-.94,8.71-.76,11.67.53,5.54,2.4,7.4,8.38,9.27,15.91a25.69,25.69,0,0,0,2,5c1.58,3.26,3.23,6.63,2,9.78-.82,2-2.7,4-4.51,6-4.14,4.43-8.06,8.62-.14,13,1.88,1.06,3.81,2,5.69,3,7.28,3.67,14.15,7.14,16,14.1,1.7,6.2,7.54,10.07,17.39,11.48,19.86,2.89,35.49,3.16,46.39.82,8.53-1.84,15-6.22,17.33-11.74,2.58-6.07,6.71-12.66,12.67-20.16a43.07,43.07,0,0,1,7.08-7.27,60.8,60.8,0,0,1,7.1-4.5c1.94-1.12,3.94-2.26,5.75-3.52,1.28-.9,2.61-1.81,3.89-2.67,3.48-2.37,7.08-4.82,10.31-7.42a44.63,44.63,0,0,0,13.24-18.19l.32-.75c1.95-4.6,4.35-10.33,1.33-15.84-3.8-6.89-13.22-11.81-24-12.51-8.34-.54-13.11,1.93-14.5,7.57a20,20,0,0,0,0,7.83c.08.78.17,1.51.24,2.24.11,1,.22,2,.34,3a35.78,35.78,0,0,1,.37,7.71c-.83,8.23-4.47,11.32-11.34,16.5s-15,11-22.46,13.41a78.83,78.83,0,0,1-32.1,3.07c-25.42-3-40.07-11.56-43.62-25.42a37.4,37.4,0,0,1-.78-4.38,51,51,0,0,0-1.11-5.68c-.9-3.43-4.45-7.14-9.76-10.22a39,39,0,0,0-16.64-5.22c-6.18-.33-10.88,2.13-14.66,4.12l-.55.29a55.26,55.26,0,0,1-12.74,5.18,111.38,111.38,0,0,1-12.24,1.89c-3.5.42-6.82.82-9.52,1.34-15.19,3-22.44,14.77-24.88,19.7l-.17.4c-1.1,2.21-2.43,4.92-1.46,8.08,1.47,4.77,7.1,8.78,11.55,11.29,10.1,5.75,16.33,14,21,21.29a17.3,17.3,0,0,1,2,4.95,17.65,17.65,0,0,0,2.1,5.2,27.42,27.42,0,0,0,8.89,8.71,56.53,56.53,0,0,0,11,4.5,77.08,77.08,0,0,1,8.61,3.26c5.38,2.56,10.65,6,8.87,11.77-.87,2.89-4.81,5.7-8.32,8.17-.91.65-1.74,1.26-2.54,1.85-5,3.73-8.07,6.23-9.94,10.41-1.38,3.11-1.49,8.69-.23,12.69,1,3.22,2.26,6.33,3.52,9.31h.25c-1.27-3-2.51-6.1-3.54-9.35C129.56,329.79,129.65,324.26,131,321.17Z"/>
</svg>