<svg xmlns="http://www.w3.org/2000/svg" viewBox="0 0 1616.73 1083.46"><defs><style>.cls-1{opacity:0.15;}.cls-2{fill:#00bceb;}</style></defs><title>Asset 1</title><g id="Layer_2" data-name="Layer 2"><g id="Layer_1-2" data-name="Layer 1"><g class="cls-1"><path class="cls-2" d="M787.29,21.86c1.51.89,2.92,1.92,4.32,2.89a40.56,40.56,0,0,0,3.92,2.69C820.41,42.69,846.91,51.07,870,51.07h0c22.86,0,42.19-7.77,57.44-23.06A86.49,86.49,0,0,0,946.32,0h-.78a88.07,88.07,0,0,1-18.66,27.74c-15.19,15.1-34.3,22.83-56.88,22.83h0c-22.92,0-49.2-8.38-74-23.48-1.29-.81-2.52-1.73-3.87-2.69s-2.85-2-4.31-3c-11.16-6.69-23.14-12.83-34.74-18.79C751.32,1.77,749.64.92,747.9,0h-1.23c2,1,4,2,6,3.08C764.26,9,776.2,15.18,787.29,21.86Z"/><path class="cls-2" d="M49.08,71.39c16.14-10.29,32.84-21,43.54-36.23C98,27.4,103.33,15.14,105.79,0H105C102.6,15.07,97.28,27.24,92,35,81.36,50.07,64.72,60.71,48.58,71,29.81,83,10.42,95.33.84,114.85A9.88,9.88,0,0,0,0,116.62v1.73c.45-1.16,1-2.27,1.51-3.31C11.09,95.64,30.43,83.3,49.08,71.39Z"/><path class="cls-2" d="M864.51,27.32h0a48.6,48.6,0,0,0,22.64-5.57c6.61-3.42,9.86-6.92,13.28-10.53,1.4-1.54,2.91-3.11,4.65-4.72A46.58,46.58,0,0,0,908.5,0h-.79a52.19,52.19,0,0,1-3.25,6.19A58.78,58.78,0,0,0,899.81,11a44,44,0,0,1-13,10.38,47.8,47.8,0,0,1-22.25,5.49h0c-20.79,0-40.74-12.68-58.33-23.82l-4.71-3h-1.12c1.74,1.12,3.48,2.19,5.27,3.34C823.32,14.6,843.44,27.32,864.51,27.32Z"/><path class="cls-2" d="M13.62,161.34c3.75-13.3,7.23-25.86,12.6-34.73,9.08-15.14,28-27.86,47.92-41.35,12.32-8.26,25-16.79,35.69-26.2,13.39-11.72,22.36-21.86,29.86-33.85,4.43-7.07,8.24-15.22,11.94-23.09.34-.7.73-1.43,1-2.12h-.78c-.28.65-.62,1.31-1,2C147.26,9.84,143.45,18,139,25,131.52,37,122.6,47.07,109.21,58.75c-10.7,9.34-23.36,17.91-35.58,26.13-20.06,13.56-39,26.32-48.14,41.53-5.37,8.92-8.91,21.52-12.6,34.85C9.3,174.1,5.6,187.39.11,197.07a.53.53,0,0,0-.11.23v1.35a12.09,12.09,0,0,1,.84-1.38C6.39,187.51,10.09,174.21,13.62,161.34Z"/><path class="cls-2" d="M74.81,327c26.05,7.15,58.44,16,70.83,34.08.83,9.88-4.21,18.29-9.59,27.17-7.56,12.45-16.14,26.55-11.32,48.6,3.7,16.75,18,27.51,34.69,40,6.89,5.15,13.9,10.45,20.62,16.48,17.54,15.84,29.53,33.7,38.83,49.11s16.7,27.43,41.25,31.47c14.67,2.42,35.19,4.11,49.25,5.11,7.79.57,15,.88,21.52.88a143.25,143.25,0,0,0,28-2.38c16.64-3.38,27.23-12.68,40.57-24.44,4-3.49,8.06-7.07,12.72-10.87,3.14-2.61,7.28-5.46,11.71-8.53,9.19-6.34,18.66-12.91,21.29-18.17,1-2,.67-3.88.45-6a19.53,19.53,0,0,1-.17-5.49l.06-.12-.11-.08c-8.91-8.06-19.73-14.52-30.21-20.82-17.76-10.68-34.63-20.75-41-37.31-3.36-8.72-2.12-18.06,3.7-28.55,6.22-11.06,20.68-23.24,40.85-34.23,9.08-5,18.72-10.11,28.91-15.6,46.8-25,99.86-53.37,128.83-78.08l0-.15c1-3,.62-6.49-.67-10.3-3.75-10.37-15.58-22.71-32.5-33.85-16.13-10.57-34.46-18.48-49.09-21.25-1.17-.23-3.47-.65-5.94-1-19.49-3-39.73-.92-59.22,1.08-16.87,1.73-32.89,3.38-48.42,2-33.56-3-57.71-18.45-66.23-42.27-11.21-31.27,19.78-50.91,49.76-69.93,22.08-14.06,45-28.55,51-47.68,5.72-18-1.74-37.46-6.67-50.33A165.82,165.82,0,0,0,401.6,0h-.78a166.8,166.8,0,0,1,7,15.68c4.88,12.79,12.33,32.16,6.67,50.06-5.94,19-28.75,33.43-50.82,47.42-30.09,19.1-61.25,38.84-49.93,70.43,8.58,24,33.06,39.57,66.91,42.61,15.58,1.38,31.6-.23,48.58-2,19.44-2,39.56-4,58.95-1.08,2.41.35,4.76.77,5.94,1,29,5.46,73,32.36,81,54.68a15.9,15.9,0,0,1,.78,10.06c-29,24.67-81.92,53-128.65,78-10.26,5.46-19.9,10.61-29,15.56-20.22,11.07-34.79,23.29-41,34.51-5.88,10.57-7.12,20-3.75,28.82,6.44,16.71,23.3,26.89,41.18,37.61,10.42,6.23,21.12,12.68,30,20.64a21.38,21.38,0,0,0,.11,5.49c.33,2.08.56,3.84-.4,5.76-2.57,5.15-11.93,11.72-21.12,18-4.37,3-8.58,5.92-11.71,8.53-4.65,3.77-8.8,7.38-12.78,10.92C385.52,564.43,375,573.66,358.63,577c-12.5,2.54-28.58,3-49.15,1.5-14.12-1-34.57-2.73-49.2-5.11-24.15-3.92-31.49-15.95-40.73-31.16-9.36-15.45-21.3-33.35-38.89-49.26-6.73-6-13.79-11.33-20.63-16.48-16.58-12.38-30.87-23.1-34.51-39.7-4.82-21.89,3.69-35.92,11.21-48.33,5.37-8.95,10.53-17.41,9.69-27.44l0-.11c-12.56-18.25-45.12-27.2-71.28-34.31a186.67,186.67,0,0,0-22.47-5.15A445.91,445.91,0,0,0,0,316.76v.54A436.54,436.54,0,0,1,52.45,322,185.4,185.4,0,0,1,74.81,327Z"/><path class="cls-2" d="M454.89,15c2,5.3,4.37,10.6,6.67,15.79C466.49,42.15,471.14,53,473,62.59c1.41,6.88,1.41,14,.06,19-3.87,14.9-18.49,26.51-32.61,37.77-16.2,12.87-33,26.24-34.24,44.79,1.74,16.53,28.91,19,57.66,21.45,5.27.5,10.76,1,16,1.53C501,189.39,525.22,194,550,200.38c8.69,2.26,17,5.07,25.16,7.8,15.47,5.26,30.09,10.26,47.18,11.56,2.18.16,4.37.24,6.67.24,11.6,0,21.69-2.24,30.32-4.35s16.25-4.38,23.53-6.64c15.63-4.73,30.37-9.19,53.12-10.57,4-.31,8.18-.42,12.27-.42,24.72,0,45.39,4.45,65.45,8.76C831,210.52,847.42,214,864.4,214c3.36,0,6.72-.12,9.92-.42,25.77-2.23,45.61-11.38,60.52-28,13.16-14.67,20.73-33.23,27.06-51.1,1.85-5.22,5.1-15,6.22-22.13,1.12-6.68-.39-11.56-4.71-14.95-7.79-6.18-23.42-6.57-41.52-7-8.24-.19-16.7-.38-25.16-1.15-35.64-3.15-65.51-6.31-98.57-15.8C770.93,65.74,743.7,56,725.6,49.3c-30.37-11.41-64.78-25.52-89-49.3h-.9c24.38,24,59,38.31,89.6,49.76,18,6.76,45.28,16.45,72.57,24.24,33.11,9.46,63.1,12.65,98.79,15.83,8.46.73,17,.93,25.21,1.16,17.94.38,33.46.73,41.08,6.76,4.09,3.26,5.6,8,4.48,14.56-1.18,7.07-4.37,16.83-6.22,22.06-12.55,35.54-30.59,73.88-87,78.73-3.19.27-6.5.38-9.8.38-16.87,0-33.18-3.49-50.49-7.22-20.06-4.3-40.79-8.76-65.62-8.76-4.09,0-8.24.11-12.32.38-22.87,1.38-37.66,5.92-53.35,10.68-7.29,2.19-14.79,4.5-23.48,6.61s-18.66,4.27-30.09,4.27q-3.36,0-6.56-.24c-16.92-1.26-31.49-6.22-47-11.45-8.13-2.76-16.48-5.61-25.22-7.83a512,512,0,0,0-70.27-13.34c-5.32-.57-10.81-1.07-16.08-1.5-28.41-2.53-55.31-4.91-57-21,1.28-18.29,18-31.59,34.06-44.46,14.24-11.25,28.87-23,32.84-38,1.35-5,1.24-12.18-.05-19.13-1.91-9.73-6.61-20.48-11.55-31.89-2.24-5.19-4.54-10.57-6.67-15.84-1.34-3.42-2.74-6.91-4.2-10.29-.62-1.46-1.17-3-1.84-4.5h-.79c.67,1.58,1.34,3.11,1.9,4.65C452.09,8,453.49,11.49,454.89,15Z"/><path class="cls-2" d="M52.22,34.16C59.84,26.05,66.68,16.29,66.79,0h-.73c-.16,16.14-6.89,25.86-14.45,33.89C42,44.07,28.07,50.18,13.28,56.68c-4.43,2-8.91,3.92-13.28,6v.61c4.48-2.15,9.13-4.18,13.67-6.18C28.47,50.61,42.47,44.46,52.22,34.16Z"/><path class="cls-2" d="M504,46.07c4.54,7,9.3,14.14,10.87,21.63,4.43,20.52-11,33.85-25.94,46.8-10.26,8.8-19.84,17.1-22.81,27.32a14.13,14.13,0,0,0-.39,6.19,34.51,34.51,0,0,1,.22,3.8v.08c3.81,7.26,15.18,12.37,24.1,15.37,32.16,10.91,84.56,16.06,122.77,19.82,5.77.54,11.49.85,17.43.85h0c14.85,0,28.63-1.73,43.2-3.53,15.58-1.93,31.71-4,50.32-4,4.93,0,10,.15,14.85.42,1,.08,3.81.19,7.4.34,5.27.2,11.88.43,16.52.7a366.85,366.85,0,0,1,39.79,4.53c15.91,2.42,30.82,4.72,53,4.72,2.29,0,4.7,0,7.11-.07,17.6-1.88,33.74-14.6,40.18-31.66,5.32-14.1,4.09-32.85-15.3-43.23C864.45,104,798,93.33,762.3,91.37c-7.62-.46-13.95-.5-20.06-.5-6.83,0-13.84-.07-23-.61-24.6-1.54-44.94-8.19-68.08-22.25C622.49,50.57,607,37.08,584.78,10.38A58.48,58.48,0,0,1,578.06,0h-.85a60.32,60.32,0,0,0,6.95,10.61c22.2,26.78,37.72,40.26,66.52,57.78,23.2,14.14,43.7,20.83,68.48,22.37,9.18.57,16.25.61,23.08.61,6.39,0,12.38.08,20,.5,35.58,2,101.81,12.6,124.62,24.75,19,10.18,20.17,28.74,15,42.68-6.33,16.83-22.3,29.4-39.56,31.28-2.36,0-4.71.08-7,.08-22,0-37-2.35-52.79-4.73a369.14,369.14,0,0,0-39.9-4.53c-4.65-.23-11.26-.54-16.53-.73-3.59-.12-6.39-.23-7.4-.27-4.93-.35-9.91-.46-14.9-.46-18.66,0-34.86,2-50.43,4-14.57,1.8-28.3,3.49-43.09,3.49h0a170.05,170.05,0,0,1-17.32-.81c-38.16-3.76-90.49-8.87-122.55-19.78-8.74-2.92-19.95-8-23.64-15.07-.06-1.53-.17-2.69-.23-3.76a12,12,0,0,1,.34-6.07c3-10,12.49-18.33,22.64-27.09,15.07-13,30.59-26.44,26.11-47.18-1.63-7.53-6.33-14.8-10.93-21.75-1.79-2.73-3.7-5.57-5.32-8.42C493.45,27.44,486.55,14,482.18,0h-.73c4.43,14,11.32,27.63,17.21,37.7C500.28,40.5,502.13,43.34,504,46.07Z"/><path class="cls-2" d="M77.66,253.28C88,245.37,97.22,236.92,107,228c15.47-14.15,31.44-28.75,52.06-40.81,1.46-.92,2.91-1.92,4.26-2.92s2.57-1.84,3.92-2.69c13.45-8.15,28.86-14.68,43.71-20.94,10.3-4.38,21-8.88,31-14,7.95-4,16-8.26,23.65-12.33,11.71-6.23,23.81-12.6,36-18.37,5.77-2.73,11.76-5.34,18.15-8.11,31.16-13.63,66.46-29.08,71.84-57C394.49,36.12,388.82,17.1,376.78,0H376C388,17.06,393.7,36.08,390.9,50.83c-5.38,27.71-40.51,43.08-71.56,56.6-6.33,2.77-12.32,5.42-18.09,8.11-12.28,5.8-24.38,12.22-36,18.4-7.73,4.08-15.69,8.3-23.75,12.34-10,5-20.63,9.57-30.94,13.91-14.9,6.34-30.31,12.87-43.76,21-1.46.85-2.74,1.85-4,2.73a46.08,46.08,0,0,1-4.2,2.85c-20.68,12.1-36.7,26.74-52.11,40.88-9.75,9-19,17.37-29.31,25.24C56.59,268.58,29.48,279.18,0,283.41V284C29.7,279.65,57,269,77.66,253.28Z"/><path class="cls-2" d="M31.71,233.38c10-10,10.09-28.24,9-43-.83-11.91-.55-34.66,10.82-53.56,8.8-14.45,29.64-27.32,49.82-39.69q4.62-2.88,9.08-5.69c40.4-25.24,60.46-47.95,78.11-74.2,1.51-2.22,2.8-4.61,4.09-6.91A76.43,76.43,0,0,1,198,1.69c.39-.57.84-1.15,1.24-1.69h-.85a15.18,15.18,0,0,1-1.12,1.42A78.4,78.4,0,0,0,192,10.15,77.89,77.89,0,0,1,187.83,17C170.24,43.27,150.28,65.9,109.94,91.1c-3,1.88-6,3.73-9.08,5.61-20.22,12.45-41.18,25.32-50,39.92-11.43,19-11.71,41.85-10.87,53.76,1.06,14.71,1,32.81-8.91,42.73-7.17,7.1-18.6,12.17-31.1,16.52v.57C12.72,245.79,24.38,240.68,31.71,233.38Z"/><path class="cls-2" d="M11.15,14.1A16.87,16.87,0,0,0,18.1,0h-.84a16.71,16.71,0,0,1-6.62,13.76A18.22,18.22,0,0,1,0,17.25v.5H0A19,19,0,0,0,11.15,14.1Z"/><path class="cls-2" d="M241.34,8.15c-10.64,8.6-18.44,20.36-25.94,31.73-1.18,1.74-2.3,3.42-3.42,5.15-11,16.22-24.6,36.43-39.51,50.22-8.06,7.54-21.4,13-35.52,18.68-20,8.1-40.68,16.52-48.75,32-2.92,5.57-3,11.67-.12,19.32,2.81,4.27,7.68,6.42,14.41,6.42h0c11.09,0,24.21-5.88,29.58-9,10.71-6.19,20.12-14.75,29.14-23.1,4.88-4.41,9.86-9.06,15-13.29,2.52-2,11.15-8.72,18.38-11.64,17.15-6.92,39.11-12.22,62.37-17.83C289.31,89,322.65,81,343.44,67.89c11.09-6.83,17.65-17.59,18.21-29.43.5-12.68-5.88-24.7-18.16-33.92A57.08,57.08,0,0,0,336.44,0H335.2a62.89,62.89,0,0,1,7.73,4.92c12.11,9.07,18.5,21,17.93,33.5-.44,11.69-7,22.33-17.87,29.09-20.73,12.95-54.08,21-86.24,28.74-23.31,5.61-45.28,10.91-62.48,17.87-7.45,3-16.08,9.8-18.54,11.79-5.27,4.19-10.26,8.84-15.13,13.34-9,8.26-18.33,16.79-29,22.93-5.32,3.12-18.26,9-29.13,9-6.45,0-11-2-13.73-6.11-2.75-7.46-2.69-13.49.17-19,8-15.25,28.52-23.59,48.41-31.66,14.18-5.77,27.57-11.22,35.81-18.87,14.84-13.79,28.47-34,39.5-50.26,1.13-1.72,2.24-3.46,3.42-5.18,7.51-11.34,15.3-23,25.89-31.59A66.85,66.85,0,0,1,255.69,0H254.4A68.63,68.63,0,0,0,241.34,8.15Z"/><path class="cls-2" d="M537.66,139.59l.05.08a10.18,10.18,0,0,1,2.86,3.61l.17.27.11.15c5.49,3.5,13.67,5.46,23.09,5.46h0c13.39,0,26.67-3.88,33.17-9.61,3.92-3.49,5.16-7.45,3.7-11.52-2.86-7.61-13.45-10.11-25-12.14l0,0,0,0c-19.62,2-39.9,10.18-38.05,23.62Zm38.05-23.2c11.31,2,21.57,4.42,24.37,11.75,1.4,3.92.23,7.76-3.59,11.11-6.33,5.61-19.44,9.41-32.55,9.41h0c-9.19,0-17.21-1.92-22.53-5.34l-.11-.19a12.06,12.06,0,0,0-2.91-3.77C536.48,124.42,561.92,117.81,575.71,116.39Z"/><path class="cls-2" d="M740.67,148.43l.28.35.11,0c12.05,5.18,32,8.64,49.6,8.64h0c11.59,0,31.83-1.57,37.09-12.3v0c.11-3.72-1.85-7-5.94-9.87-7.62-5.38-22.8-8.68-39.56-8.68-21.24,0-44.15,5.61-44.49,18.06v.07l.16.08A9.88,9.88,0,0,1,740.67,148.43Zm41.58-21.36c16.53,0,31.55,3.3,39.06,8.53q5.79,4.14,5.71,9.45C821.87,155.42,802,157,790.66,157h0c-17.43,0-37.1-3.42-49.15-8.53l-.11-.23a11.46,11.46,0,0,0-2.86-3.69C738.94,132.52,761.46,127.07,782.25,127.07Z"/><path class="cls-2" d="M207,393.8c-4.25,12.49-8.68,25.47-6.89,44.84,14.18,33.7,30.93,59.13,51.05,77.84a89.83,89.83,0,0,0,17.76,13.3c10.42,5.72,25.27,9.1,39.57,9.1h0c14.39,0,26.72-3.38,34.68-9.64,8.85-6.88,12.1-16.79,9.69-29.43-1.4-7.07-5.16-14.53-8.85-21.75s-7.51-14.6-8.85-21.67c-5.44-27.47,11.71-55.94,45.66-76.11,14.41-8.61,29.31-15.57,43.6-22.29,15.52-7.34,31.55-14.91,46.73-24.36,23.09-14.33,49.2-30.62,53.51-55.18v-.11c-2.74-11.61-8-23.56-27.28-32.09-10.93-4.87-23-7.14-38.05-7.14-12.83,0-26,1.65-40,3.38-15.07,1.84-30.65,3.76-46.84,3.76-4,0-7.91-.11-11.66-.3-7.68-.5-17.37-2.12-27.51-3.84-13.68-2.27-27.85-4.65-39.06-4.65a55.34,55.34,0,0,0-6.44.34c-15.14,1.58-31.16,10.57-43.43,18.22-20.46,12.71-39.73,26-42.93,36.88-1.23,4.27-.83,11.1-.05,16.06,1.12,7.53,3.53,13.91,5.77,20.06,4,11,8.12,22.36,6.11,40.53C212.26,378.39,209.74,385.92,207,393.8Zm.9-64.9c-2.24-6.14-4.6-12.52-5.72-20-.78-4.95-1.17-11.71,0-15.9,3.14-10.8,22.36-24,42.71-36.66,12.21-7.57,28.12-16.48,43-18.1,1.91-.19,4-.26,6.33-.26,11.15,0,25.27,2.34,38.89,4.64,10.2,1.69,19.89,3.31,27.57,3.81q5.71.35,11.77.34c16.25,0,31.88-1.92,46.95-3.84,14-1.69,27.18-3.34,39.9-3.34,14.85,0,26.84,2.26,37.71,7.07,19,8.45,24.15,20.21,26.9,31.77-4.32,24.33-30.26,40.5-53.24,54.83-15.24,9.42-31.2,17-46.67,24.25-14.4,6.76-29.2,13.76-43.71,22.4-34.18,20.25-51.38,48.87-45.95,76.54,1.4,7.11,5.21,14.52,8.91,21.74s7.51,14.64,8.8,21.67c2.46,12.49-.79,22.25-9.53,29-7.78,6.11-19.83,9.45-34.06,9.45h0c-14.13,0-28.75-3.38-39.12-9a89.65,89.65,0,0,1-17.59-13.21c-20.12-18.64-36.77-44-50.94-77.65-1.8-19.22,2.63-32.16,6.95-44.58,2.74-7.95,5.27-15.48,6.22-24.36C216,351.34,211.92,339.93,207.89,328.9Z"/><path class="cls-2" d="M253.84,392.49c.78,2.27,1.29,4.57,1.9,7.11,2,8.84,4.43,18.94,17.65,23.71l.12,0h.11c16.08-.77,26.23-10.61,37-21,3.87-3.69,7.79-7.53,12-10.88,23.7-18.78,50.43-31.23,76.26-43.3,18.16-8.49,35.36-16.52,50.55-26.24,4.87-1.65,8.18-4.54,11.32-7.3a41.17,41.17,0,0,1,8.12-6c13.9-11.92,18.49-25.87,11.72-35.47-4.27-6.07-14.91-13.33-41.47-13.33-3.59,0-7.34.15-11.21.38-8.52.58-18.32,1.81-28.58,3.11-11.43,1.42-24.38,3-37.43,4-2.75.19-5.32.35-7.9.58-34.85,2.38-55.87,3.91-76.83,20.82-14.9,12.1-22.86,27.05-25.1,47.11-1.34,12.83-.28,26.9.68,39.27C253.28,381.35,253.73,387.23,253.84,392.49Zm-1-56.59c2.18-19.95,10.14-34.78,24.88-46.76,20.73-16.87,40.45-18.22,76.32-20.75,2.57-.16,5.15-.35,7.9-.54,13.11-1,26.05-2.58,37.48-4,10.26-1.26,20-2.53,28.53-3.07,3.86-.27,7.62-.42,11.15-.42,26.17,0,36.65,7.1,40.85,13.06,6.55,9.45,2.07,23.17-11.6,34.85a45.4,45.4,0,0,0-8.24,6c-3.25,2.92-6.28,5.61-11,7.19l-.11,0c-15.19,9.76-32.39,17.79-50.55,26.24-25.89,12.1-52.56,24.55-76.37,43.42a151.33,151.33,0,0,0-12,10.87c-10.64,10.26-20.68,20-36.37,20.75-12.88-4.65-15.07-14.14-17.2-23.29-.61-2.53-1.12-4.88-1.85-7.1-.11-5.23-.62-11.07-1.06-17.29C252.6,362.76,251.49,348.69,252.89,335.9Z"/><path class="cls-2" d="M738.43,331.21c5.71,36.5,11.1,71,52.62,95.67,27.9,16.56,73,34.2,116.21,34.2h0c26.34,0,48-6.69,64.33-19.91,14.12-11.48,21.41-24.89,29.76-40.45.9-1.73,1.85-3.46,2.8-5.27,1.68-3,3.31-5.95,4.93-8.88,9.3-16.82,18.1-32.65,20.28-45.83,4.88-29-10.47-40.69-29.47-52C970.3,271.19,931.81,269.88,891,268.46c-9.64-.34-21.07-1-33.11-1.8-19-1.19-40.46-2.5-58.45-2.5-19.39,0-32.11,1.5-39,4.65C731.54,282,735,313.88,737.76,326.94Zm22.41-61.94c6.79-3.11,19.39-4.61,38.61-4.61,17.93,0,39.45,1.35,58.39,2.54,12,.73,23.48,1.46,33.12,1.76,40.68,1.38,79.07,2.73,108.43,20.18,18.88,11.18,34.07,22.78,29.25,51.56-2.19,13.06-11,28.89-20.23,45.69-1.62,2.95-3.31,5.91-4.88,8.91-1,1.73-2,3.5-2.86,5.26-8.34,15.49-15.57,28.86-29.69,40.31-16.14,13.1-37.54,19.75-63.72,19.75-42.92,0-88-17.64-115.71-34.16-41.35-24.48-46.68-58.9-52.33-95.29l-.73-4.3C735.69,313.88,732.32,282.22,760.84,269.27Z"/><path class="cls-2" d="M778.1,337.2c5,31.51,9.25,58.71,46.46,78.88,17.26,9.42,48.47,20.41,79.34,20.41h0c15.36,0,28.3-2.73,38.56-8.15,29-15.4,41.63-47.45,43.65-70.2,2.3-26.28-11.77-49.37-37.6-61.67-23.7-11.33-53.85-12.48-85.85-13.68-7-.22-13.95-.49-20.9-.49-20.06,0-44.83,1.73-57.49,15.13-7.29,10.19-6.84,22.14-6.33,33.66C778,333.17,778,335.17,778.1,337.2Zm6.84-39.53c12.44-13.15,36.93-14.88,56.82-14.88,7,0,13.84.24,20.9.54,31.78,1.19,61.86,2.27,85.45,13.53,25.56,12.22,39.51,35.15,37.22,61.24-2,22.68-14.52,54.56-43.38,69.86C931.86,433.3,919.09,436,903.9,436h0c-30.65,0-61.69-11-78.95-20.37-36.87-20.06-41-45.87-46.06-78.5-.06-2-.12-4-.28-6.07C778.22,319.61,777.77,307.73,784.94,297.67Z"/><path class="cls-2" d="M321,332.17l.17.08a16.22,16.22,0,0,1,3,1.92A15,15,0,0,0,328,336.4l.06,0h.16c21.24-2.57,45.39-10.14,63-19.7,7-3.81,15.19-9,16.81-15.49l.06-.12-.11-.11a28.55,28.55,0,0,0-3.47-2.65c-1-.62-1.86-1.19-2.7-1.85l-.05-.11h-.17c-3.14-.23-6.56-.35-10-.35-18.5,0-43.71,3.84-58.84,14.56-8.3,6-12.27,13.15-11.83,21.44ZM333.41,311c14.9-10.64,39.89-14.41,58.28-14.41,3.35,0,6.67.12,9.75.35.83.65,1.73,1.27,2.57,1.84a17.71,17.71,0,0,1,3.31,2.5c-1.63,6.3-9.64,11.37-16.48,15.06-17.54,9.53-41.52,17.06-62.59,19.63a14.12,14.12,0,0,1-3.42-2.07,22.39,22.39,0,0,0-3-2C321.41,323.83,325.23,316.8,333.41,311Z"/><path class="cls-2" d="M855.88,401.75a98.54,98.54,0,0,0,39.23,8.53h0c17,0,31.21-5,41.35-14.6,23.53-22.24,12.89-64.32-20.85-81.8-9.13-4.8-24.76-10.49-47.12-10.49a135.7,135.7,0,0,0-16.09,1c-23.59,2.73-35.86,15.52-35.46,36.93C817.27,357.53,822.82,387,855.88,401.75Zm-3.36-96.9a143.12,143.12,0,0,1,16-.92c22.13,0,37.6,5.61,46.73,10.34,15.91,8.29,27.4,22.47,31.49,39,4,16.14-.05,31.85-10.92,42.16-9.92,9.41-24,14.33-40.68,14.33h0a97.93,97.93,0,0,1-38.84-8.42c-32.72-14.56-38.21-43.88-38.55-60.05C817.27,320.14,829.38,307.54,852.52,304.85Z"/><path class="cls-2" d="M94.3,545.19a78.08,78.08,0,0,0,9.59,10.56l.17.12c4.87,4.34,13.16,11.56,24.71,10.37,12.44-1.27,28.85-11.41,25.89-26.32-2.36-11.91-14-20.63-36.71-27.43-1.45-.42-2.91-.88-4.42-1.31C102.6,508,92.23,505,87.47,497.89c-4.93-14.14-5.88-33.2-7-53.45-.84-16.75-1.74-34.12-5-48.91C69.15,367,47.85,350,10.36,343.5,7.12,342.93,3.64,342.39,0,342v.54c3.59.35,7,.85,10.2,1.42,37.15,6.38,58.27,23.29,64.55,51.6,3.25,14.8,4.15,32.13,5,48.88,1,20.25,2,39.34,6.95,53.6,4.93,7.38,15.41,10.37,26.51,13.57,1.51.46,3,.84,4.43,1.3,22.41,6.69,33.9,15.29,36.19,27,2.92,14.56-13.05,24.47-25.21,25.71-11.1,1.15-19.22-5.92-24-10.11l-.17-.12A82.87,82.87,0,0,1,94.92,545c-9.69-12-19.72-24.47-48.41-21.2-13.56,1.5-28.8,6.45-46.51,15v.65c17.82-8.68,33.06-13.67,46.62-15.17C74.81,521.06,84.72,533.35,94.3,545.19Z"/><path class="cls-2" d="M18.6,477C35.19,464.5,44,446,42.92,426.15A59.21,59.21,0,0,0,15,379.43a55.07,55.07,0,0,0-15-4.84v.5a56.42,56.42,0,0,1,14.51,4.69,58.89,58.89,0,0,1,27.68,46.37c1.13,19.67-7.68,38.12-24.09,50.57A107.55,107.55,0,0,1,0,487.36V488A99.84,99.84,0,0,0,18.6,477Z"/><path class="cls-2" d="M691.87,480.37c-.73-3.42-3-7.53-4.93-10.8-15.81-27-52.9-55.25-79.85-71.24-18.5-10.95-33.85-17.36-45.62-19a55,55,0,0,0-8.13-.57c-32.16,0-71.66,22.43-74.13,42.11a10.77,10.77,0,0,0,.84,2.88,10.33,10.33,0,0,1,.79,4.49v.08l.05,0a377.94,377.94,0,0,0,38.67,51.79c6.39,7.23,12.83,14.14,21.29,19.95,20.45,14,56.09,23.86,86.46,23.86h0c16.82,0,30.88-2.92,41.8-8.57C687.38,505.92,695.06,494.12,691.87,480.37Zm-64.56,43.07h0c-30.2,0-65.56-9.76-85.9-23.71-8.41-5.72-14.85-12.64-21.24-19.79a380.39,380.39,0,0,1-38.55-51.68,9.83,9.83,0,0,0-.89-4.61,17.3,17.3,0,0,1-.84-2.76c2.52-19.44,41.63-41.57,73.45-41.57a58.62,58.62,0,0,1,8,.5c11.65,1.65,26.9,8,45.27,18.9,26.85,16,63.83,44.15,79.58,71,1.9,3.23,4.2,7.3,5,10.68,3.08,13.57-4.54,25.21-22.59,34.55C657.85,520.56,644,523.44,627.31,523.44Z"/><path class="cls-2" d="M621.54,437.18c-16.19-10.14-35.47-17.48-50.43-19.1a66.93,66.93,0,0,0-8.07-.5c-9.3,0-16.75,2-22.24,5.92-6.45,4.57-9.64,11.76-9.14,20.21,6.56,19.33,13.17,35,33,46.11,12.49,7.07,31.77,11.64,48.91,11.64h0c20.62,0,34.91-6.49,39.18-17.75,1.22-3.34,1-8.18.27-11.53C650.57,461,639.08,448.2,621.54,437.18ZM652,483.56c-4.15,11.06-18.1,17.36-38.39,17.36h0c-17,0-36-4.53-48.47-11.49-19.61-11-26.16-26.58-32.72-45.8-.51-8.26,2.69-15.29,9-19.82,5.27-3.77,12.61-5.69,21.69-5.69a75.83,75.83,0,0,1,8,.46c31,3.42,76,30.05,81.36,53.68C653,475.53,653.25,480.29,652,483.56Z"/><path class="cls-2" d="M802.2,524.86l-.11,0-.17,0c-2.08-.19-4-.26-5.94-.26a67,67,0,0,0-13,1.34c-23.7,4.73-47.57,18.83-55.48,32.74-5.6,9.79-3.25,20.63-1,31.12,2.08,9.72,4,18.82.12,26.85-6.11,12.38-22.3,20.18-38,27.71-16.59,8-33.74,16.22-37.94,29.82-2.52,9.64,1.17,18.79,10.53,26.39,13.23,10.8,37.49,17.83,61.76,17.83h0c15.86,0,29.75-2.92,40.23-8.34,8.23-4.26,13.95-10.14,19.95-16.33l1-1c5.94-8.06,7.9-17.75,10-28.08,1.85-9,3.76-18.21,8.4-27.4A153.5,153.5,0,0,1,811,622.84c8.57-13.41,15.91-25.05,12.38-53.6C821.36,552.87,817.16,533,802.2,524.86Zm8.07,97.75A158.46,158.46,0,0,0,801.81,637c-4.6,9.22-6.51,18.52-8.41,27.51-2.13,10.26-4.14,19.9-10,27.89l-.84.93c-6.28,6.45-11.66,12-19.84,16.25-10.31,5.38-24.1,8.18-39.78,8.18-24,0-48.08-6.91-61.19-17.6-9.2-7.53-12.84-16.52-10.37-26,4.15-13.37,20.45-21.17,37.6-29.43,15.86-7.61,32.11-15.48,38.27-28,4-8.19,2.07-17.37,0-27.09-2.3-10.45-4.6-21.25,1-30.89,7.79-13.8,31.44-27.74,54.92-32.43A65.51,65.51,0,0,1,796,525.05c1.85,0,3.75.08,5.77.27,14.74,8.07,18.94,27.74,21,44C826.12,597.71,818.84,609.24,810.27,622.61Z"/><path class="cls-2" d="M112.68,626.72a23.53,23.53,0,0,0-12.16-3.23c-7.5,0-15.8,3.23-22.86,8.84-8.63,6.92-13.45,15.91-12,22.36,3.42,11,18,16.76,30.65,16.76h0c8.86,0,16.54-2.66,21.58-7.38C128.15,654.39,125.3,634.17,112.68,626.72Zm4.66,37c-4.93,4.65-12.39,7.19-21,7.19h0c-12.33,0-26.56-5.61-29.92-16.33-1.4-6.27,3.31-15.1,11.88-21.94,6.84-5.5,15-8.61,22.24-8.61a22.75,22.75,0,0,1,11.72,3.07C124.62,634.41,127.37,654.27,117.34,663.72Z"/><path class="cls-2" d="M385.47,694.34a9.26,9.26,0,0,1-1.52-2.45l-.05-.08-.06-.08a22.65,22.65,0,0,0-9.86-2.22,25.74,25.74,0,0,0-15,4.72c-3.7,2.77-5.5,6.19-5.1,9.6l.05.08c2.64,3.62,7.12,5.61,12.84,5.61h0c8.85,0,19.5-5.26,20.45-12.26v-.07A8.43,8.43,0,0,0,385.47,694.34ZM366.81,709h0c-5.33,0-9.7-1.89-12.11-5.27-.45-3.26,1.29-6.5,4.88-9.18A25,25,0,0,1,374,690a21,21,0,0,1,9.24,2.12,9.92,9.92,0,0,0,1.63,2.46,8.38,8.38,0,0,1,1.62,2.64C385.52,704,375.32,709,366.81,709Z"/><path class="cls-2" d="M1397.29,9.49c18.1,6,39.4,6.65,57,1.69A59.72,59.72,0,0,0,1476.41,0h-.89a57.22,57.22,0,0,1-21.41,10.68c-17.48,5-38.61,4.35-56.48-1.61A54.79,54.79,0,0,1,1381,0h-1A54.42,54.42,0,0,0,1397.29,9.49Z"/><path class="cls-2" d="M755.41,30.59c7.06,3.42,13.79,7.07,20.28,10.56,15.75,8.46,30.6,16.37,47,20.14q27.48,9.39,52.56,9.41a120.19,120.19,0,0,0,39.62-6.49C951.7,51.49,972.49,23.71,980.45,0h-.79c-8,23.52-28.52,51.14-65.17,63.75-27.4,9.45-58.22,8.45-91.56-2.93-16.3-3.72-31.1-11.67-46.79-20.13-6.5-3.46-13.22-7.07-20.33-10.53-7.63-3.72-15.53-7.34-23.2-10.79C718.71,13,705.09,6.84,693.1,0h-1.23C704.08,7,718,13.33,732.21,19.79,739.89,23.28,747.79,26.86,755.41,30.59Z"/><path class="cls-2" d="M1020.23,40.23c5,8.3,16,12.34,33.57,12.34a230.12,230.12,0,0,0,25.61-1.89h.22a45,45,0,0,1,5.21-.27c7,0,14.18,1.42,21.07,2.81,3.53.73,7.29,1.46,10.87,2,2.92.46,5.77.8,8.63,1.23,11.82,1.57,24.1,3.23,35.19,6.72,4.37,1.38,8.85,2.73,13.22,4,21.64,6.41,44,13.06,58.5,26,.9.81,1.68,1.62,2.53,2.42,10.14,10.3,18.94,21.36,27.34,32.08,9.53,12.11,19.39,24.52,31.27,35.89,11.49,11.1,27,23.36,41.91,35.23,5.22,4.16,10.09,8.07,14.85,11.92,23.76,19.29,46.18,37.46,87.53,37.46h.06a189.93,189.93,0,0,0,34.4-3.46c35.81-6.61,99-23.13,120.64-58.94,5.72-9.49,9.53-22.75,13.57-36.73,3.08-10.57,6.27-21.52,10.31-30.62v-1.73c-4.43,9.45-7.79,21-11,32.23-4.09,14-7.9,27.21-13.57,36.66-21.52,35.65-84.5,52-120.13,58.63a185.45,185.45,0,0,1-34.24,3.46h-.06c-41,0-63.32-18.1-86.91-37.31-4.76-3.84-9.7-7.76-14.91-11.87-14.9-11.87-30.37-24.17-41.91-35.2-11.76-11.33-21.63-23.82-31.15-35.84-8.47-10.73-17.26-21.83-27.41-32.13-.78-.81-1.68-1.69-2.57-2.46-14.63-13-37-19.67-58.73-26.12-4.43-1.31-8.91-2.66-13.22-4-11.21-3.53-23.48-5.19-35.36-6.8-2.92-.39-5.77-.77-8.63-1.19-3.53-.54-7.23-1.27-10.82-2-7-1.39-14.12-2.85-21.29-2.85-1.85,0-3.7.12-5.32.28l-.34,0A225.2,225.2,0,0,1,1053.8,52c-17.21,0-28-3.92-32.84-12-5-8.27-3.36-22.29-1.85-34.7.22-1.88.45-3.65.62-5.38h-.79c-.16,1.73-.33,3.5-.56,5.34C1016.87,17.79,1015.24,31.89,1020.23,40.23Z"/><path class="cls-2" d="M1330.16,15.75c22.25,20.68,61.75,33,105.63,33a212.59,212.59,0,0,0,31.49-2.27c39-5.91,51.5-24.16,57-46.45h-.72a65.72,65.72,0,0,1-7.91,19.64c-9,14.29-24.48,22.66-48.52,26.32a213,213,0,0,1-31.38,2.26c-43.65,0-82.88-12.25-105-32.77A98.43,98.43,0,0,1,1324.22,0h-.78a104.66,104.66,0,0,0,6.66,15.72Z"/><path class="cls-2" d="M1117.45,26.55c19.84,2,38.78,6,57,9.92,11.77,2.53,24,5.15,36.37,7.18,7.9,1.31,15.8,2.34,22.8,3.07,7.18.73,13.51,1.12,18.78,1.12h0q16.3,0,19.33-4.61c5.54-8.19,9.81-26,10-43.23H1281c-.22,17.18-4.49,34.85-9.92,43-1.9,2.84-8.23,4.26-18.71,4.26-5.22,0-11.49-.35-18.66-1.07-7-.74-14.85-1.77-22.75-3.08-12.39-2-24.49-4.65-36.26-7.18-18.32-3.92-37.26-8-57.21-9.95-19.61-1.92-35.25-11.15-44.43-26h-.85C1081.53,15.18,1097.45,24.56,1117.45,26.55Z"/><path class="cls-2" d="M1554.47,13.29c-1,18.91-1.9,35.28-20.22,44.92-19.06,10.11-52.34,13-76.66,15.07-2.41.22-4.82.46-7.06.65-4.15.38-8.57.57-13.06.57h0c-24.77,0-51.16-5.72-76.71-11.22-22.86-4.88-46.45-10-68.53-10.87h-.06l-.06,0c-12.6,2.46-15.74,11.68-14.51,19.48,3.59,30.47,19.22,55.41,54.13,86.1,7,6.15,13.62,12.42,20,18.49,10.87,10.22,21.07,19.94,33,29.08,17.88,13.8,40.3,20.71,66.69,20.71h0c30.59,0,65-9.75,94.41-26.85,30.32-22.52,34.86-52.34,36.93-81,.17-2.23.23-4.54.34-7,.45-11.49,1-25.82,9.19-32.89,7.23-6.23,15.74-11,24.49-15.26v-.61c-9,4.3-17.66,9.14-25.1,15.6-8.35,7.14-8.86,21.55-9.36,33.12-.12,2.5-.18,4.84-.34,7-2,28.51-6.55,58.29-36.7,80.65-29.25,17-63.44,26.74-93.86,26.74-26.17,0-48.47-6.95-66.12-20.55-11.89-9.19-22.14-18.83-33-29.13-6.34-6-13-12.25-20-18.44-34.8-30.63-50.43-55.52-54-85.88-1.24-7.53,1.73-16.52,13.9-18.9,21.9.88,45.44,5.91,68.24,10.83,25.61,5.5,52.06,11.22,76.94,11.22h0c4.49,0,9-.23,13.17-.57,2.24-.23,4.65-.43,7.06-.62,24.38-2.11,57.83-5,76.94-15.17,18.66-9.84,19.55-26.25,20.62-45.35.22-3.95.39-8.06.78-12.17a8.66,8.66,0,0,0,.17-1.12h-.79c0,.39-.05.69-.05,1.08C1554.92,5.23,1554.7,9.3,1554.47,13.29Z"/><path class="cls-2" d="M1566.13,267.85l-.11,0c-5.16,2.8-13,7.07-12.11,12.94l.06.12.11.08a29.83,29.83,0,0,1,4.43,2.92l0,.08h.11a212.79,212.79,0,0,0,28.81,2h0a211.55,211.55,0,0,0,29.25-2.07v-.54a205.52,205.52,0,0,1-29.25,2.07,207.9,207.9,0,0,1-28.53-2,35.27,35.27,0,0,0-4.25-2.85c-.73-5.53,6.5-9.49,11.76-12.41l.11-.07c9.14-5,21.07-8.73,33.79-12.68,5.5-1.7,11-3.46,16.37-5.31v-.57c-5.49,1.88-11.16,3.68-16.7,5.38C1587.31,259,1575.26,262.78,1566.13,267.85Z"/><path class="cls-2" d="M1598.74,4.34c.84,7.11,9.24,13.41,18,13.41v-.54c-8.41,0-16.42-6-17.2-12.91a15.54,15.54,0,0,1-.06-4.3h-.73A16.17,16.17,0,0,0,1598.74,4.34Z"/><path class="cls-2" d="M1494.23,99.48a116.89,116.89,0,0,0-15.35,1.07c-11.43,1.54-23.65,4-36.65,6.61-14.51,2.92-29.64,6-44,7.69-13.27,1.65-19,5.68-17.53,12.41v0c4.65,6.72,8.23,14.21,12,22.13,8.18,17.29,16.71,35.16,37.38,44.46,9.75,4.34,21.63,6.64,34.35,6.64h0c20.68,0,41.8-5.92,56.71-15.87a57.25,57.25,0,0,0,23.87-35.77c2.91-14.95-1.46-29.12-12-38.88C1526,103.51,1511.05,99.48,1494.23,99.48Zm26.4,84.8c-14.74,9.87-35.75,15.75-56.15,15.75-12.61,0-24.32-2.27-34-6.6-20.51-9.19-28.91-26.94-37.15-44.15-3.75-7.92-7.29-15.41-11.93-22.14-1.4-6.45,3.92-10.22,16.92-11.75,14.34-1.77,29.53-4.77,44.15-7.73,12.89-2.61,25.16-5.07,36.48-6.61a116.37,116.37,0,0,1,15.24-1c16.59,0,31.21,4,38.16,10.33C1555.42,131.48,1544.78,168.1,1520.63,184.28Z"/><path class="cls-2" d="M635.83,328.29c3.81,5,7.73,10.07,11,15.14,2.92,4.34,5.83,8.91,8.69,13.37,17.42,27.16,35.41,55.29,61.64,77.84,10,8.65,22.18,16.91,33.9,25,11.26,7.64,21.85,14.83,30.32,22.13a121,121,0,0,1,11.09,10.95c7.23,7.68,14.06,14.95,25.44,19.94l.11,0,3.25-.15c43.48-1.77,81.09-3.31,121.15-8.3,28.47-3.54,48.64-7.34,59.79-11.26,23-8.11,29.3-22.59,36-38,.73-1.58,1.46-3.19,2.13-4.81,9.75-21.74,23.87-43.8,60.46-57.59l.11-.12c.28-.23.56-.46.9-.69,7.57-2.73,15.13-5.49,22.75-8.26,13.23-4.76,26.9-9.76,40.4-14.52,5.83-2.08,11.6-4.23,17.32-6.26,8.85-3.27,18-6.61,27.12-9.73a125.27,125.27,0,0,0,17.31-7.72l4.09-2.11a87.51,87.51,0,0,1,17-6.8c12-3.23,25.28-3.61,38.05-4,11.1-.31,22.53-.69,33.29-2.84,10.25-2,17.37-3.84,23.31-9.84,19.22-19.21,9.47-33.58-6.27-51.75a169.19,169.19,0,0,0-60-44.15,125,125,0,0,0-13-4.69,114.52,114.52,0,0,1-14.35-5.34c-5.21-2.46-10.26-5.15-15.13-7.76-4-2.11-8-4.31-12.16-6.38-16.87-8.34-37-17.6-59.68-23.05-7.5-1.81-16.41-2.15-22.58-2.15a145.22,145.22,0,0,0-18.27,1.11c-7,.92-12.66,3-18.66,5.3-2.52,1-5.21,2-8,2.88-3,.92-6.16,1.66-9.18,2.38a89.49,89.49,0,0,0-11.66,3.31c-9.19,3.46-18.1,7.49-26.67,11.41-8.29,3.77-16.87,7.65-25.66,11-41.59,16-77.22,25-111.91,28.51-10.36,1-20.9,1.57-31.21,1.57a299.16,299.16,0,0,1-38.33-2.42c-9.75-1.23-19.78-3.15-29.53-5-17.09-3.27-34.68-6.65-51.94-6.65a104.65,104.65,0,0,0-26.23,3c-16.47,4.15-31.15,12.76-46.73,21.9-8,4.65-16.14,9.45-25,14-2,1-4.54,2.19-7.39,3.54-6.33,3.07-14.23,6.84-21,10.76-12.6,7.41-16.08,14.18-11.93,23.43C623.39,312.11,629.38,320,635.83,328.29Zm-3.53-46.8c6.78-4,14.63-7.69,21-10.76,2.86-1.35,5.33-2.53,7.35-3.57,9-4.53,17.2-9.38,25.15-14,15.47-9.1,30.09-17.67,46.46-21.82a106.87,106.87,0,0,1,26-3c17.15,0,34.68,3.38,51.72,6.69,9.8,1.88,19.84,3.8,29.64,5.07a308.38,308.38,0,0,0,38.44,2.38,306.83,306.83,0,0,0,31.27-1.57c34.91-3.46,70.55-12.57,112.24-28.59,8.79-3.38,17.37-7.3,25.72-11,8.52-3.92,17.48-7.91,26.56-11.37a92.71,92.71,0,0,1,11.54-3.27c3.08-.72,6.22-1.46,9.25-2.46,2.8-.88,5.49-1.92,8-2.84,6-2.23,11.6-4.38,18.44-5.26a143.54,143.54,0,0,1,18.15-1.15,103.85,103.85,0,0,1,22.36,2.18c22.47,5.42,42.7,14.68,59.45,23,4.09,2,8.24,4.19,12.16,6.34,4.93,2.58,10,5.26,15.13,7.76a124.78,124.78,0,0,0,14.52,5.38,125.61,125.61,0,0,1,12.88,4.65,168.65,168.65,0,0,1,59.79,44c15.63,18.06,25.27,32.31,6.33,51.25C1336.05,325.29,1329,327,1319,329c-10.7,2.19-22.13,2.49-33.12,2.88-12.88.35-26.16.77-38.38,4a90.09,90.09,0,0,0-17.09,6.85c-1.46.68-2.8,1.42-4.14,2.11a131.41,131.41,0,0,1-17.16,7.72c-9.18,3.07-18.32,6.42-27.17,9.65-5.66,2.07-11.55,4.26-17.37,6.29-13.51,4.81-27.18,9.73-40.34,14.53-7.63,2.81-15.19,5.57-22.81,8.3l-.12,0a8.34,8.34,0,0,0-1,.73c-36.76,13.94-50.88,36.08-60.68,57.9-.73,1.61-1.46,3.23-2.13,4.8-6.67,15.26-13,29.67-35.7,37.62-11.15,4-31.15,7.76-59.56,11.26-40,5-77.61,6.53-121.1,8.3l-3,.11c-11.2-4.92-18-12.06-25.15-19.71a134.19,134.19,0,0,0-11.1-11c-8.57-7.3-19.16-14.56-30.37-22.17-11.71-8.07-23.93-16.36-33.84-25-26.18-22.52-44.22-50.61-61.59-77.69-2.86-4.46-5.77-9-8.63-13.37-3.36-5.08-7.28-10.23-11.09-15.18-6.34-8.34-12.33-16.1-15.8-23.75C616.61,295.32,619.92,288.71,632.3,281.49Z"/><path class="cls-2" d="M702.12,363.14l1.46,3.8c15.18,38.73,37.71,61.71,83.21,84.57l1.06.58c24.49,12.29,45.67,23,69.21,28.08,11.77,2.62,26.17,4,41.57,4h.06c20.45,0,41.3-2.46,55.7-6.53,38.05-10.8,52-33.62,68-60.13,21.07-34.7,58-79.58,114-96.41,10.14-3,19.95-3.65,30.32-4.3,4-.23,8.12-.53,12.32-.92,15.86-1.54,33.57-3.77,54.25-6.84,2.91-.38,5.83-.84,8.74-1.3,15.13-2.31,35.13-8.85,41.69-19.6,4.87-8,4.15-15.22-2-21.56-18.27-18.83-81.2-25.28-107-25.32h-.51c-11.43,0-23.14.81-34.45,1.61-6.45.47-13.06,1-19.45,1.24-10.87.53-19.73,2.65-30.65,7.33-11.26,4.84-23.37,7.15-38,7.15-10.93,0-22-1.23-33.74-2.5-3.53-.42-7.23-.8-10.92-1.19a513.42,513.42,0,0,0-51.83-2.23c-12.44,0-25,.27-37.1.54s-24.43.5-36.65.5c-22.24,0-40.18-.92-56.65-2.88-4.82-.62-10-1.46-15.58-2.34-11.88-2-25.33-4.19-38.83-4.19a99.1,99.1,0,0,0-20.4,1.92c-31.21,6.45-57.32,32.62-62.14,53.06-1.79,7.65-1.51,15.49.79,24.67C692.2,337.89,697,350.15,702.12,363.14Zm-13.5-63.82c4.76-20.29,30.59-46.22,61.52-52.64a101.43,101.43,0,0,1,20.23-1.93c13.45,0,26.84,2.2,38.67,4.16,5.49.92,10.75,1.76,15.63,2.38,16.48,2,34.46,2.88,56.76,2.88,12.22,0,24.6-.23,36.65-.5s24.66-.54,37.1-.54c19.94,0,36.42.73,51.71,2.23,3.7.42,7.4.81,10.93,1.19,11.77,1.27,22.87,2.46,33.85,2.46,14.73,0,27-2.27,38.44-7.15,10.81-4.65,19.55-6.72,30.26-7.26,6.39-.34,13-.77,19.44-1.23,11.26-.8,23-1.61,34.4-1.61h.51c25.72,0,88.26,6.42,106.36,25.05,6,6.19,6.67,13.3,1.9,21.13-6.45,10.57-26.17,17-41.13,19.29-2.85.43-5.77.85-8.68,1.31-20.68,3-38.39,5.26-54.24,6.8-4.15.39-8.3.65-12.28.89-10.42.68-20.34,1.3-30.54,4.37-56.26,16.87-93.24,61.86-114.42,96.68-16,26.35-29.81,49.14-67.58,59.82-14.34,4.07-35,6.5-55.42,6.5h-.06c-15.35,0-29.64-1.35-41.35-3.89-23.42-5.07-44.49-15.71-69-28l-1.07-.57c-45.27-22.79-67.74-45.65-82.87-84.26L702.85,363c-5.15-13-10-25.28-13.45-39.19C687.05,314.69,686.82,306.89,688.62,299.32Z"/><path class="cls-2" d="M1548.25,353.73l-.11.11c-1.74,2.15-3.42,4-4.93,5.61-5.27,5.8-8.41,9.34-10,18.94-1.24,7.61-.79,15.41-.34,23,.5,8.91,1.07,18.14-1.18,27.24-7.73,32.2-45.1,65.4-87,77.19a113.92,113.92,0,0,1-13.39,3.08,77.8,77.8,0,0,1-8.58.57h0c-24.6,0-30.25-16.6-35.69-32.62-1.29-3.57-2.52-7.26-4-10.68-5.61-13.18-13.17-21.9-24.43-28.32S1332,427.3,1309,424.39a210.41,210.41,0,0,0-26.17-1.74c-16,0-31.16,2-50.94,6.81-.89.19-1.68.38-2.52.61-11,2.57-20.34,4.8-27,11.84-12.67,13.6-23,35.58-18.1,51.14,4.76,15.25,20.9,18.32,37.93,21.48,3.31.61,6.62,1.26,10,2a93.25,93.25,0,0,1,13,3.81c25.77,9.91,54.19,18.9,89.6,28.28,30,7.95,44.6,25.47,58.67,42.3,13.73,16.37,27.85,33.31,56,41.38a52.47,52.47,0,0,0,14.4,1.88h0a89.71,89.71,0,0,0,20.51-2.68c20.11-4.81,38.1-19.6,51.55-31.93,21.07-19.37,47.24-43.46,78.22-58.94l2.47-1.16v-.65l-2.92,1.42c-31,15.49-57.27,39.62-78.39,59-13.34,12.29-31.27,27-51.16,31.78A90.09,90.09,0,0,1,1464,633.6h0a52.28,52.28,0,0,1-14.12-1.81c-27.91-8-42-24.86-55.65-41.19-14.12-16.94-28.86-34.46-59.11-42.49-35.37-9.38-63.78-18.37-89.49-28.28a86.14,86.14,0,0,0-13.17-3.81c-3.25-.73-6.67-1.34-9.92-2-16.87-3.19-32.78-6.18-37.43-21.13-4.82-15.44,5.43-37.23,18-50.76,6.39-6.83,15.69-9.1,26.51-11.6.84-.23,1.68-.42,2.57-.61,19.67-4.81,34.8-6.81,50.66-6.81a206,206,0,0,1,25.94,1.74c44.22,5.57,62.76,16,73.52,41.41,1.46,3.38,2.75,7.07,3.93,10.61,5.54,16.25,11.31,33,36.47,33h0a68,68,0,0,0,8.69-.54,104.6,104.6,0,0,0,13.56-3.11,146.75,146.75,0,0,0,57-31.39c15.86-14.18,26.62-30.58,30.43-46.18,2.13-9.15,1.62-18.41,1.12-27.32-.45-7.57-.9-15.37.39-22.94,1.51-9.49,4.71-13,9.92-18.75,1.4-1.58,3.08-3.42,4.93-5.57,14.74-8.22,32.28-12.45,52-12.45a142.38,142.38,0,0,1,15.92.92V342a152.37,152.37,0,0,0-15.92-.88C1580.87,341.16,1563.21,345.39,1548.25,353.73Z"/><path class="cls-2" d="M1575,391.65c-3.87,7.72-4.6,15.71-5.44,24.93-.28,3.19-.56,6.54-1.06,10.15-1.79,14-5.72,28.39-9.59,42.34-3.75,13.79-7.34,26.82-8,37.08v.11l.17.08a17.22,17.22,0,0,0,7.84,2.35,7.1,7.1,0,0,0,1.63-.16l.11,0c7.51-3,15.52-5.65,23.31-8.26,11.1-3.69,22.36-7.45,32.73-12.25v-.62c-10.43,4.88-21.86,8.68-33,12.41-7.79,2.61-15.86,5.3-23.37,8.3a7.15,7.15,0,0,1-1.28.08,16.57,16.57,0,0,1-7.35-2.12c.68-10.18,4.21-23.13,8-36.88,3.87-13.95,7.85-28.36,9.64-42.38.51-3.62.79-7,1-10.15.84-9.22,1.57-17.13,5.44-24.82,5.26-10.56,18.09-17.44,32.66-17.44a50.59,50.59,0,0,1,8.3.73v-.5a50.52,50.52,0,0,0-8.3-.69C1593.58,373.9,1580.47,380.85,1575,391.65Z"/><path class="cls-2" d="M1285.28,461c-14.12,0-28.41,4.76-28.52,15.41v.08c4.37,10.45,25.5,23.17,43.87,23.17h0a30.82,30.82,0,0,0,12.27-2.35c5.16-2.34,8.47-5.8,9.58-10,1.46-5.45-1-12-6.1-16.75C1310.1,464.69,1298.11,461,1285.28,461Zm36.48,26.17c-1.07,4.07-4.32,7.45-9.31,9.68a28.23,28.23,0,0,1-11.82,2.31c-18.1,0-38.83-12.49-43.15-22.75.17-10.3,14.07-14.87,27.8-14.87,12.61,0,24.32,3.54,30.54,9.3C1320.8,475.49,1323.16,481.86,1321.76,487.17Z"/><path class="cls-2" d="M1531.61,524.82l-.17,0a18.12,18.12,0,0,0-4.37-.5c-6.33,0-13.17,2.73-19.72,5.35-2.47,1-5,2-7.46,2.8-1.4.5-2.8,1-4.31,1.46-21.63,7.26-51.21,17.25-49.14,41,3,7.38,11.93,14.83,25.27,14.83h0a35,35,0,0,0,3.81-.23c24.21-6.88,38.67-26.13,48.64-42.23l.73-1.15c4.48-7.22,9.52-15.33,6.77-21.13Zm-7.39,21-.73,1.19c-9.92,15.94-24.33,35.16-48.2,41.92-1.23.11-2.41.19-3.58.19h0c-12.89,0-21.63-7.26-24.54-14.37-2.08-23.32,27.34-33.19,48.75-40.42,1.45-.5,3-1,4.31-1.46,2.47-.8,5-1.84,7.51-2.8,6.45-2.62,13.16-5.27,19.33-5.27a19.47,19.47,0,0,1,4,.39C1533.57,530.82,1528.58,538.81,1524.22,545.84Z"/><path class="cls-2" d="M1265.72,706.68c-7.12-4.5-14.29-6.84-21.23-6.84-16.42,0-27.35,12.87-29.64,25.55a65.91,65.91,0,0,0,1.06,28.59c2.35,8.41,7.28,12.64,17.48,15.06,2.3.54,5.1,1,8.46,1.5a104.07,104.07,0,0,0,14.62,1.15h0c11.83,0,20.46-2.81,25.67-8.34,6-6.34,5-21.05,3.53-28.77C1283.43,723.55,1276.2,713.32,1265.72,706.68Zm15.75,56.4c-5,5.38-13.51,8.07-25,8.07A100.81,100.81,0,0,1,1242,770c-3.36-.46-6.11-1-8.41-1.5-10-2.34-14.62-6.3-16.92-14.68a64.1,64.1,0,0,1-1.06-28.35c2.24-12.49,12.88-25.13,28.86-25.13,6.72,0,13.72,2.23,20.73,6.68,10.31,6.61,17.53,16.64,19.67,27.55C1286.29,741.76,1287.41,756.86,1281.47,763.08Z"/><path class="cls-2" d="M79.06,878c7.18-.89,13.23-1.92,19.11-2.88,7.17-1.19,14-2.35,22.7-3.27,8-.81,16.47-1.23,24.71-1.65,18.44-.81,37.49-1.69,53.74-7.53,20.45-7.34,22.58-26,15.57-41.27-11.82-25.86-27.06-43.72-46.62-54.63-7.67-4.27-14.9-9.19-21.85-14C132.35,743.18,117.84,733.27,99,728c-14.4-4-31-7-47-9.83-9.7-1.73-19.67-3.54-29.15-5.54-4.42-.92-9.24-2.11-14.28-3.42-2.75-.69-5.61-1.38-8.52-2.07v.54c2.8.69,5.55,1.38,8.23,2,5.11,1.27,9.93,2.5,14.35,3.42,9.52,2,19.5,3.81,29.14,5.5,16,2.88,32.55,5.84,47,9.83,18.72,5.23,33.18,15.1,47.13,24.6,7,4.8,14.29,9.75,22,14,19.44,10.83,34.57,28.63,46.34,54.44,6.89,15,4.87,33.43-15.19,40.58-16.14,5.8-35.08,6.69-53.46,7.57-8.23.34-16.75.77-24.76,1.61-8.8,1-15.92,2.12-22.81,3.27-5.83,1-11.82,2-19,2.88-13.16,1.61-26.56,2.84-39.56,4-13.67,1.26-27,2.49-39.39,4.07v.54c12.38-1.62,25.72-2.85,39.51-4.08C52.5,880.81,65.9,879.62,79.06,878Z"/><path class="cls-2" d="M62.14,846.89c17-3.31,34.63-6.69,51.39-11.72,16.53-4.92,33.28-10.69,40.74-22.29,9.63-15.14.22-31.47-25.22-43.57-4.43-2.11-8.57-4.19-12.67-6.23-17-8.56-33.11-16.63-56.31-19.71-15-1.92-37.27-3.11-60.07-3.49v.53c22.75.31,44.94,1.5,60,3.46,23,3.08,39,11.11,56,19.64,4.09,2,8.29,4.15,12.66,6.22,25.16,12,34.46,28,24.94,42.92-7.29,11.41-23.93,17.18-40.29,22-16.76,5-34.3,8.41-51.33,11.72-8.85,1.68-18.05,3.49-27,5.45C23.48,854.38,11.54,856,0,857.49V858c11.65-1.54,23.65-3.11,35.13-5.69C44,850.38,53.23,848.57,62.14,846.89Z"/><path class="cls-2" d="M56.71,908c17.2.46,34.91.84,52.22-.35,15.92-1.11,30.54-3.34,44.72-5.57,3.53-.5,7-1.08,10.59-1.58,2.63-.42,5.21-.81,7.9-1.19,27-4,55-8,77.72-18.63,26.51-12.34,30-38.23,17.88-56.1-11-16.37-29.54-29.32-47.41-41.84-14.85-10.34-30.2-21.06-41.19-33.74-5-4.61-9.19-9.07-13.22-13.37-13-13.83-23.26-24.74-50.55-29.12C62.81,698.11,17.43,690.85,9,654.92c-3-12.72,1.13-22.67,5-32.27,3.14-7.65,6.11-14.87,5.43-23l-.05-.11-.12,0c-1.4-.89-2.74-1.81-4-2.73a45.25,45.25,0,0,0-5.55-3.53l-.11-.08H9.41a83.3,83.3,0,0,0-9.41.92v.5a92,92,0,0,1,9.36-.88,52.62,52.62,0,0,1,5.32,3.42c1.29.88,2.58,1.84,4,2.65.67,8.07-2.24,15.21-5.38,22.74-3.92,9.69-8,19.68-5,32.51,8.52,36.27,54.14,43.57,107,52,27,4.3,37.2,15.17,50,28.89,4,4.34,8.29,8.76,13.28,13.37,11,12.68,26.39,23.44,41.24,33.85,17.82,12.49,36.31,25.36,47.35,41.65,11.88,17.71,8.57,43.26-17.65,55.52C226.72,890.84,198.93,895,172,898.83c-2.69.39-5.32.81-8,1.16-3.53.53-7.06,1.07-10.59,1.65-14.12,2.15-28.75,4.42-44.66,5.53-17.26,1.23-34.91.77-52.06.35-19.89-.46-38.72-.93-56.76,1V909C18,907.13,36.87,907.59,56.71,908Z"/><path class="cls-2" d="M580.08,791.67a46.68,46.68,0,0,1,6.61,2.5,97.1,97.1,0,0,1,21.07,14.68c12,10.79,19.21,21.16,23.87,34.77,6.55,19,23.93,26.55,51.77,33.16a225.6,225.6,0,0,0,51.05,5.8A212,212,0,0,0,760.11,881c30-3.68,49.32-16.13,52.85-34.27.78-3.77,1.79-7.73,2.8-11.53,4.09-15.37,8.29-31.28-4.71-45.45-10.64-11.53-30.76-13.14-50.94-13.14-3.86,0-7.84.08-11.53.11s-7.52.15-11.1.15a172.63,172.63,0,0,1-17.26-.72c-16.08-1.77-32.11-4.46-47.46-7.07-25.5-4.27-49.54-8.38-73.57-8.38-5.11,0-10.15.23-14.91.58A19.26,19.26,0,0,0,569.37,771c-3,5.22-3.92,12.22.9,16.21C572.68,789.21,576.49,790.44,580.08,791.67Zm-10-20.44a18.37,18.37,0,0,1,14.24-9.38c4.76-.34,9.74-.57,14.85-.57,24,0,47.9,4,73.34,8.34,15.47,2.61,31.44,5.3,47.58,7a153.75,153.75,0,0,0,17.37.73c3.58,0,7.39,0,11.1-.08s7.67-.11,11.53-.11c19.95,0,39.85,1.53,50.27,12.87,12.83,14,8.69,29.81,4.65,45.07-1,3.84-2.07,7.8-2.8,11.56-3.53,17.87-22.53,30.17-52.23,33.85a202.68,202.68,0,0,1-25.55,1.5,226.2,226.2,0,0,1-50.82-5.72c-27.63-6.57-44.83-14-51.27-32.86-4.71-13.63-11.88-24.09-24.05-35a97.34,97.34,0,0,0-21.12-14.75,58.44,58.44,0,0,0-6.72-2.58c-3.65-1.19-7.34-2.42-9.58-4.23C566.91,783.68,566.63,777.23,570.1,771.23Z"/><path class="cls-2" d="M718.48,861a122.57,122.57,0,0,0,22.58-2c1.29-.31,2.64-.65,3.81-1,7.29-2.34,11.49-6.34,11.66-11.22.11-3.8-2.36-7.87-6.56-10.83-5.77-4.07-13.89-5.57-21.68-4-8.4,1.77-26.06,8.64-31.27,16.17-1.85,2.62-2.07,5.08-.73,7.35C699,860,709.85,861,718.48,861Zm-20.84-12.68c5.21-7.38,22.53-14.22,30.82-15.91a30.92,30.92,0,0,1,6.1-.61,25.62,25.62,0,0,1,14.85,4.41c4.15,2.88,6.5,6.8,6.34,10.49-.17,4.65-4.15,8.49-11.21,10.72-1.18.39-2.41.73-3.7,1a120.93,120.93,0,0,1-22.36,2c-11.93,0-19.5-1.85-21.46-5.19C695.68,853.11,695.9,850.77,697.64,848.31Z"/><path class="cls-2" d="M950.47,1055.44a20.38,20.38,0,0,1-.06-3.68,20,20,0,0,0-.11-4.08c-1.46-8.37-6.44-18.63-11.65-29.47-5.39-11.06-10.93-22.47-13.57-33.46-1.06-4.61-1.79-9.57-2.52-14.37-2.18-15.68-4.42-31.82-20.4-39-7.22-3.3-17.81-4.8-33.23-4.8-8.62,0-17.93.46-27,.88-3.54.15-7.13.34-10.66.5-31.54,1.3-97.21,6.91-120.13,18.82-31.27,16.26-35,44.15-34.52,69.36,3.69,31.7,35.3,49.45,70.1,67.36h1.23c-35-18-66.85-35.66-70.66-67.4-.45-25,3.3-52.79,34.35-68.89,22.7-11.84,88.2-17.45,119.69-18.75,3.53-.12,7.12-.35,10.7-.5,9.08-.46,18.38-.88,26.95-.88,15.3,0,25.73,1.5,32.84,4.72,15.64,7.07,17.88,23.09,20.12,38.65a132.91,132.91,0,0,0,2.47,14.41c2.63,11,8.18,22.48,13.56,33.58,5.26,10.8,10.25,21,11.59,29.32a18.62,18.62,0,0,1,.12,4,16.07,16.07,0,0,0,.11,3.76c1.51,8.27-.11,18.1-4.2,28h.78C950.36,1073.54,952,1063.67,950.47,1055.44Z"/><path class="cls-2" d="M106.86,1059.13a187.28,187.28,0,0,1,.22-21.74c.51-10.88,1-21.21-1.74-29.51-6.66-20.41-44.15-35-77.05-41.81A105.71,105.71,0,0,0,0,963.88v.5a108.08,108.08,0,0,1,28.13,2.19c32.66,6.8,69.88,21.25,76.49,41.38,2.74,8.27,2.24,18.56,1.73,29.4a177.53,177.53,0,0,0-.22,21.78,107.41,107.41,0,0,1-1.12,24.33h.78A107.52,107.52,0,0,0,106.86,1059.13Z"/><path class="cls-2" d="M911.47,1050.72c-1.4-5-4-11-6.84-17.33-4-9.18-8.57-19.6-10.87-30.16-.67-3-1.23-5.84-1.79-8.61-3.65-18.06-6.5-32.31-24.1-41.77-12-6.41-34.4-10.25-60-10.25-31.1,0-60,5.38-77.39,14.41-28.52,14.79-29.64,40.88-25.61,60.17,6.28,20.55,27.79,31.12,55.08,44.61,12.73,6.22,25.89,12.71,39.29,21,.33.19.67.46,1.06.66h1.12c-.62-.31-1.12-.7-1.74-1-13.39-8.34-27.12-15.1-39.22-21.09-27.18-13.34-48.64-23.91-54.86-44.27-4.09-19.14-3-45,25.38-59.67,17.15-8.91,46-14.26,76.89-14.26,25.38,0,47.57,3.77,59.51,10.15,17.42,9.3,20.16,23.44,23.75,41.38.62,2.8,1.13,5.69,1.8,8.61,2.35,10.64,6.89,21.09,10.92,30.23,2.8,6.38,5.44,12.38,6.78,17.3a48.32,48.32,0,0,1-3,32.66h.79C913.26,1072.81,914.38,1061.25,911.47,1050.72Z"/><path class="cls-2" d="M366.75,1020.13c-3.14-7.57-5.55-21.78-3.75-31.66a35.07,35.07,0,0,1,2-6.45c3-8,6.67-17.9-8-25.09l-.11,0h-.05c-27.13-2.19-43.6,13.06-58.11,26.51-3.81,3.57-7.34,6.84-11,9.88-13.22,9.49-31.21,16.29-50.32,23.55-29.53,11.26-60.13,22.9-74.47,45.57-4.14,6.38-7.68,13.79-11.09,21.06h.78a199.57,199.57,0,0,1,10.93-20.87c14.34-22.55,44.77-34.08,74.24-45.3,19.11-7.26,37.16-14.1,50.43-23.71,3.76-3,7.34-6.34,11.16-9.83,14.39-13.34,30.65-28.48,57.32-26.36,14.06,7,10.64,16.29,7.62,24.51a41.78,41.78,0,0,0-2.13,6.53c-1.68,9.92.62,24.25,3.81,31.82,4.82,11.64,11.88,23.32,19.22,35.77,5.38,9,10.81,18.14,15.58,27.44h.78c-4.76-9.38-10.31-18.6-15.63-27.63C378.52,1043.42,371.57,1031.7,366.75,1020.13Z"/><path class="cls-2" d="M795.81,958.16c-16.81,0-33.4,3.38-44.32,9.07-14.24,7.34-22.75,16.17-21.19,37.61,9.7,27.32,52.9,42,88.65,42h0a120.53,120.53,0,0,0,13.57-.73h.1l.06,0a74.73,74.73,0,0,0,14.12-10.37l.06-.12c13.11-27.78,12.49-50.87-1.63-63.32C835.15,963.3,817.1,958.16,795.81,958.16Zm50.37,77.3a79.22,79.22,0,0,1-13.84,10.23c-4.36.42-8.85.69-13.39.69h0c-35.52,0-78.33-14.6-87.86-41.58-1.57-21.2,6.83-29.93,20.79-37.15,10.82-5.61,27.23-8.95,43.93-8.95,21.07,0,38.84,5.07,48.81,13.91C858.62,984.9,859.13,1007.84,846.18,1035.46Z"/><path class="cls-2" d="M611.57,1034.74c-5.67-18.68-11.43-37.93-29.2-53.26-9.13-7.87-20.39-10.91-34.68-9.49-29.36,3-64.27,21.21-83.05,31-21,15-28.91,33.19-24.26,55.55,1.68,8,4.93,16.49,8.35,24.87h.79c-3.42-8.42-6.79-17-8.35-24.94-4.66-22.21,3.19-40.27,24-55.14,18.66-9.72,53.46-27.93,82.65-30.85a64.06,64.06,0,0,1,6.5-.35c11,0,20,3.15,27.46,9.64,17.65,15.22,23.47,34.4,29.08,53,5,16.71,10.14,34,24.15,48a3.22,3.22,0,0,0,.67.66h.9c-.33-.27-.67-.62-1-.93C621.71,1068.66,616.55,1051.41,611.57,1034.74Z"/><path class="cls-2" d="M799.45,993.35l-.05-.07a16.47,16.47,0,0,0-16.48-4.57l-.06,0c-2.8,1.43-4.76,3.77-5.09,6a4.32,4.32,0,0,0,2,4.15,20.25,20.25,0,0,1,2.91,1.92l.06,0h.11a17.71,17.71,0,0,0,4.43.57h0a15.82,15.82,0,0,0,12.1-5.18l.06-.12a22.35,22.35,0,0,0,.05-2.69Zm-.84,2.65a14.72,14.72,0,0,1-11.37,4.84h0a19.33,19.33,0,0,1-4.15-.46,25,25,0,0,0-2.86-1.88,4,4,0,0,1-1.73-3.76c.33-2,2.18-4.23,4.7-5.57a16.14,16.14,0,0,1,4.2-.54,15.28,15.28,0,0,1,11.27,4.84A12.06,12.06,0,0,1,798.61,996Z"/><path class="cls-2" d="M37.21,1016.33c-9.36-7.88-18.1-11.1-37.21-13.56v.53c18.77,2.43,27.4,5.57,36.65,13.34C53,1030.43,63,1056.1,65.39,1074.12a70.12,70.12,0,0,1,.67,9.34h.73a71.83,71.83,0,0,0-.61-9.38C63.77,1056,53.62,1030.16,37.21,1016.33Z"/><path class="cls-2" d="M519.39,1023.09c-1.06,0-2.18,0-3.31.08-10.25.58-19.27,3.84-26.16,9.41-9.81,8-14.18,20.22-12.28,34.39a92.63,92.63,0,0,0,3.81,16.49h.73a97.63,97.63,0,0,1-3.81-16.53c-1.85-14.06,2.41-26.12,12.1-34,6.73-5.46,15.58-8.68,25.67-9.26,1.12,0,2.19-.08,3.25-.08,30.43,0,41.69,24.86,51.61,46.73,2.07,4.61,4.09,9.1,6.21,13.18h.85c-2.19-4.08-4.2-8.65-6.34-13.34C561.75,1048.07,550.44,1023.09,519.39,1023.09Z"/><path class="cls-2" d="M312.73,1043.77c-5.1-.5-10.25-.74-15.41-.74-20.62,0-40.85,3.85-58.44,11.11-17.2,7.15-31.16,17.25-40.52,29.32h.85c19.21-24.67,56.53-39.93,98.11-39.93,5.1,0,10.25.27,15.36.7,22.13,2.07,44,14.67,59.79,34.54,1.23,1.54,2.46,3.11,3.52,4.69h.79c-1.12-1.66-2.35-3.31-3.64-4.92C357.17,1058.52,335.2,1045.84,312.73,1043.77Z"/><path class="cls-2" d="M1.06,1065.74a8.87,8.87,0,0,0-1.06,0v.46H1.06a15.4,15.4,0,0,1,13.57,7.3,18.93,18.93,0,0,1,2.63,9.92h.84a19.46,19.46,0,0,0-2.8-10.11A16.23,16.23,0,0,0,1.06,1065.74Z"/><path class="cls-2" d="M254.4,1083.46h1.29a97.8,97.8,0,0,1,41-8.77c14.46,0,27.79,3.12,38.55,8.77h1.24c-11-6-24.88-9.26-39.79-9.26C281.41,1074.2,266.56,1077.54,254.4,1083.46Z"/><path class="cls-2" d="M1340.47,1033.54c-8.85-11.14-18.09-22.7-25.38-34.66-4-6.53-7.68-13.67-11.54-21.28-16.48-32.47-35.14-69.24-93-69.24h-2.29c-21,.35-40.8,5.38-53.69,9.57-3.13,1-6.38,2-9.63,3.07-9.7,3-19.73,6.19-28.75,9.61-26.28,9.95-56.43,14.79-85.51,19.52l-.39,0c-2.47.42-5.1.84-7.9,1.19-19.5,2.84-43.77,6.41-51.5,21.94-5.88,12-.45,27.32,4.77,42.11,1.9,5.42,3.69,10.52,4.92,15.37,4.21,16.79,4.54,32.62.79,47-.51,1.84-1.07,3.72-1.74,5.65h.79c.67-1.89,1.17-3.73,1.68-5.57,3.69-14.45,3.47-30.36-.79-47.19-1.28-4.88-3-10-4.93-15.41-5.26-14.75-10.59-30-4.76-41.84,7.56-15.29,31.61-18.75,50.94-21.56,2.8-.42,5.43-.8,7.9-1.22l.39,0c29.19-4.69,59.4-9.57,85.73-19.56,8.91-3.38,18.94-6.57,28.64-9.64,3.3-1,6.49-2,9.63-3,12.84-4.19,32.62-9.18,53.41-9.53.78,0,1.56,0,2.29,0,57.27,0,75.82,36.62,92.29,69,3.81,7.57,7.46,14.76,11.49,21.33,7.4,12,16.53,23.51,25.44,34.73,7.56,9.49,14.74,18.45,20.9,27.7s12.55,16.49,19.34,21.91h1c-7-5.39-13.44-12.72-19.72-22.1C1355.21,1052.1,1348,1043.11,1340.47,1033.54Z"/><path class="cls-2" d="M1596,936.41c-47.62,12.33-79.45,35.62-92,67.36-3.53,8.83-5.94,20.17-8.35,31.12-3,13.6-6,27.66-11,37.42a35.77,35.77,0,0,1-9.13,11.15h.89a35.45,35.45,0,0,0,8.91-11c5.1-9.83,8.13-23.89,11.1-37.54,2.41-11,4.87-22.28,8.35-31.08,12.44-31.51,44-54.71,91.5-67,3.93-1,10.65-2.26,16.37-3.07,1.34-.16,2.68-.35,4.09-.46v-.54c-1.46.19-2.86.31-4.26.5C1606.75,934.11,1600,935.37,1596,936.41Z"/><path class="cls-2" d="M1549.71,701.91c-15.24,2.35-29.92,7.42-44.1,12.37s-28.92,10-44,12.23c-39.18,5.8-53.69-17.72-66.46-38.54-1.85-3-3.59-5.81-5.32-8.53a179,179,0,0,0-24.66-29.59A211.18,211.18,0,0,0,1302.42,608c-21.57-9.33-39.78-14.44-57.15-16-28.19-2.57-48.25,3.42-71.33,10.3-5,1.5-10.2,3.08-15.52,4.54-15.25,4.22-32.56,9-44.39,19.48-8.85,7.83-15.57,17.32-22,26.55l-1.52,2.07c-11.93,16.95-20.67,33.66-29.91,51.33-2.08,4-4.15,8.07-6.17,12.07-5.55,10.95-11.27,22.29-18.27,33-5.21,8.19-13.17,15.3-20.84,22.21-4.32,3.84-8.75,7.8-12.61,11.91-9.92,10.38-25.44,19.45-40.52,28.21-5.43,3.19-10.59,6.18-15.4,9.22-3,1.84-6.22,3.76-9.7,5.76-15.58,9.22-33.23,19.68-37.87,32.93-.63,1.77-1.19,3.53-1.74,5.23-5,14.83-9.36,27.66-31,37-20.46,8.8-45.34,11.64-67.24,14.14-10.37,1.19-20.91,2.11-31,3.07-18.83,1.65-36.53,3.27-52.61,6.15-36.77,6.72-59.18,24.21-66.63,52.06-7.23,27.17.11,60.33,8.29,73.89,7.34,12.22,19.73,21.79,34.58,30.36h1.23c-15.13-8.61-27.68-18.26-35.13-30.59-8.07-13.45-15.47-46.49-8.24-73.58,7.45-27.63,29.58-45,66.06-51.6,16.09-3,33.79-4.54,52.56-6.23,10.15-.88,20.68-1.8,31-3,22-2.54,46.9-5.38,67.52-14.26,22-9.41,26.22-22.32,31.27-37.27.61-1.69,1.23-3.46,1.79-5.22,4.59-13.11,22.19-23.44,37.66-32.63,3.42-2,6.72-4,9.69-5.83,4.82-3,9.92-6,15.41-9.19,15.07-8.8,30.65-17.83,40.57-28.32,3.92-4.07,8.35-8,12.61-11.87,7.67-6.92,15.69-14.1,21-22.28,7-10.73,12.72-22.1,18.27-33.09,2-4,4.09-8.07,6.16-12.06,9.25-17.64,18-34.31,29.92-51.3l1.4-2.07c6.45-9.18,13.12-18.64,22-26.48,11.66-10.29,28.86-15.06,44-19.24,5.39-1.54,10.54-3.08,15.52-4.54,23-6.91,42.93-12.87,71-10.34,17.25,1.62,35.3,6.65,56.81,16a210.09,210.09,0,0,1,62.54,41.73,178,178,0,0,1,24.49,29.47c1.79,2.69,3.53,5.53,5.37,8.53,6.22,10,13.17,21.4,23.43,29.28,11.82,9,26.17,12.18,43.93,9.56,15.13-2.23,29.87-7.37,44.16-12.33s28.85-10,43.93-12.26c24.88-3.8,47.68.62,66.85,5.27v-.54C1597.51,702.53,1574.7,698.19,1549.71,701.91Z"/><path class="cls-2" d="M1510.26,896.1c-17.76,11.84-34.57,23.06-56.59,27.44-30.6,6.18-53.75-9.26-76.16-24.25-1.34-.92-2.74-1.84-4.09-2.76-11.37-7.53-25-13.26-38.16-18.75-9.41-4-19.22-8.07-28-12.8-6.61-3.57-13.61-6.88-20.39-10.06-4.59-2.23-9.31-4.46-13.79-6.69-7.51-3.77-12.72-9.69-17.81-15.45a93,93,0,0,0-8.75-9c-8.63-7.61-20.79-13.38-32.61-19-21.63-10.22-42.08-19.9-43.54-40-.84-11.95,3.08-26.78,10.76-40.72,7.34-13.18,21.18-27.48,38-39.24,11.49-8,23.15-11.72,34.64-11.06,20.39,1.19,37.88,16,50.82,28.78,7.62,7.53,10.65,14.75,13.78,22.44a102.78,102.78,0,0,0,6.68,13.87c2.91,4.84,6.44,9.6,9.75,14.22,5.37,7.25,10.81,14.75,14.23,22.78,5.71,13.41,6.84,32.85-2,44.07-8.63,10.84-4.54,29.24,4.54,38.89,8.23,8.75,28.86,14.32,45.45,18.82,3.75,1,7.22,2,10.36,2.88,1.46.46,3,.89,4.37,1.35,5.38,1.61,9.92,3.07,15.13,3.8,25.72,3.61,43.48-4.84,54.19-25.82,11.26-22,3.47-42.11-22-56.52-7.73-4.34-16.59-7.68-25.16-10.91-3.87-1.46-7.9-3-11.77-4.57-1-.43-2-.81-3-1.27-11.21-4.57-25.11-10.26-32.78-16.87a143.82,143.82,0,0,1-28-31.93,172.63,172.63,0,0,1-9.41-17.9c-2.19-4.5-4.43-9.11-7-13.8-5.88-10.68-14.85-20.17-21.24-26.24-12.1-11.3-33.9-26.47-55.59-32-34.29-8.72-80.46,14.49-103.15,32.16-12.72,9.92-21,22.29-27.41,33-1.73,2.92-3.41,5.91-5.15,8.79-9.36,16.14-18.27,31.4-33.06,45.46a144.47,144.47,0,0,0-12.5,14.06c-2.74,3.35-5.54,6.88-8.68,10.22-8,8.53-20.06,13.61-32,17.83-5.49,2-11.2,3.77-16.7,5.57-15.91,5.07-32.33,10.38-45.72,19-8.52,5.53-11.88,11.38-10.09,17.41,3,10,19.11,17.48,33.29,21.09,29.42,7.53,63.48,4.81,93.46,2.35l3.87-.27c2.41-.19,4.76-.35,7.12-.54,13.22-.92,25.77-1.81,38.33-6.72,2-.77,4-1.54,5.94-2.31,19-7.42,35.41-13.87,57.2-17.17,13.68-2.12,34-1.93,46.4,3.42,6.17,2.61,8.8,6.61,11.6,10.83a38.51,38.51,0,0,0,6.06,7.69c10.42,9.33,24.48,16.67,38.1,23.82,13.33,6.95,27.17,14.17,37.6,23.28,6.22,5.42,11.43,12.15,16.53,18.6s10.31,13.18,16.31,18.32c12.38,10.49,29.19,14.11,47.57,10.19,15.91-3.42,33.56-12.68,50.66-21.63,2.63-1.39,5.15-2.73,7.67-4,8.91-4.61,17.6-9.45,26-14.14,23.09-12.87,44.94-25.05,69.54-31.89a246.76,246.76,0,0,1,32.84-6.22v-.54c-12.11,1.61-23.31,3.53-33.12,6.3-24.71,6.84-46.62,19.1-69.76,32-8.41,4.69-17,9.49-25.95,14.1-2.52,1.3-5.1,2.65-7.62,4-17,8.92-34.63,18.18-50.49,21.56-18,3.84-34.63.3-46.73-10-5.94-5.07-11-11.45-16.25-18.18-5.1-6.53-10.42-13.29-16.64-18.71-10.53-9.14-24.32-16.4-37.72-23.4-13.55-7.1-27.56-14.44-37.93-23.74a40.15,40.15,0,0,1-6-7.53c-2.85-4.27-5.54-8.34-11.82-11.11-12.61-5.41-33.23-5.61-47-3.49-21.91,3.38-38.39,9.79-57.44,17.29-2,.73-4,1.49-5.94,2.34-12.38,4.8-24.82,5.65-38,6.57-2.29.19-4.7.39-7.11.54l-3.81.35c-30,2.38-63.88,5.11-93.19-2.39-17.54-4.45-30.43-12.6-32.78-20.71-1.74-5.84,1.57-11.52,9.92-16.9,13.22-8.57,29.64-13.88,45.44-19,5.55-1.73,11.26-3.58,16.81-5.54,11.94-4.22,24.21-9.37,32.28-18.06,3.08-3.34,5.94-6.8,8.69-10.18a140.44,140.44,0,0,1,12.44-14c14.9-14.14,23.75-29.44,33.17-45.61,1.68-2.92,3.36-5.84,5.15-8.84,6.44-10.68,14.63-23,27.23-32.85,22.53-17.56,68.37-40.65,102.32-32,21.52,5.46,43.21,20.6,55.2,31.85,6.5,6,15.41,15.45,21.24,26.09,2.58,4.65,4.82,9.3,7,13.76a162.76,162.76,0,0,0,9.47,17.94,144.33,144.33,0,0,0,28.07,32c7.79,6.69,21.74,12.41,33,17,1.06.38,2.07.81,3.14,1.27,3.81,1.57,7.9,3.07,11.77,4.57,8.51,3.19,17.31,6.49,25,10.84,25.16,14.25,32.89,34.12,21.79,56-10.59,20.71-28.07,29-53.4,25.47a96.64,96.64,0,0,1-15-3.76c-1.4-.43-2.91-.89-4.37-1.39-3.08-.88-6.67-1.8-10.37-2.84-16.52-4.5-37-10-45.11-18.64-8.91-9.53-13-27.62-4.53-38.34,8.91-11.3,7.78-31,2.07-44.49-3.37-8-8.91-15.56-14.18-22.87-3.42-4.61-6.84-9.37-9.75-14.21a101,101,0,0,1-6.67-13.8c-3.14-7.72-6.16-15-13.9-22.59-13-12.83-30.7-27.78-51.38-29-11.71-.69-23.53,3.07-35.18,11.18-17,11.83-30.88,26.2-38.23,39.42-7.72,14-11.65,29-10.81,41,1.46,20.29,23,30.47,43.82,40.35,11.77,5.57,23.93,11.33,32.5,18.86a87.79,87.79,0,0,1,8.69,9c5.1,5.73,10.37,11.68,17.93,15.52,4.54,2.27,9.3,4.54,13.84,6.69,6.72,3.23,13.73,6.57,20.34,10.07,8.85,4.76,18.66,8.87,28.13,12.79,13.17,5.53,26.73,11.22,38,18.75,1.46.92,2.75,1.81,4.15,2.77,22.52,15,45.84,30.62,76.88,24.36,22.13-4.42,39-15.64,56.93-27.55,16.92-11.3,34.52-23,58.16-29.82,15.13-4.34,31.61-6.84,47.75-9.11V857c-16.25,2.27-32.78,4.8-48.08,9.22C1545,873.05,1527.35,884.77,1510.26,896.1Z"/><path class="cls-2" d="M1537.83,742.91c-12.16,1.77-24.6,6-37.77,10.41-21.85,7.38-44.38,15-65.17,10.57-37.38-8-51.72-35.23-64.38-59.21-2.64-4.92-5-9.53-7.68-14a124.35,124.35,0,0,0-21.57-27.16c-13.28-12.68-29.59-20.52-46.85-28.78-2.63-1.23-5.21-2.5-7.9-3.76-15.19-7.42-33.73-14.72-55.14-12.61-6.72.65-13.72,3.11-20.45,5.5-4.26,1.54-8.29,2.92-12.22,3.92l-8.91,2.26c-22.91,5.65-46.62,11.57-62.92,24.29-4.65,3.65-8.69,8.41-12.55,12.94-2,2.42-3.93,4.66-5.89,6.81A145.58,145.58,0,0,0,1087.59,702c-6.17,10.88-9.81,22.52-13.29,33.81-3.81,12.18-7.72,24.83-14.85,36.28-7.33,11.75-26.72,20.21-43.87,27.62-4.65,2-9.08,4-13,5.88-11.65,5.57-21.79,12.3-31.49,18.83-6.39,4.26-13,8.72-20,12.75-16.2,9.38-23.43,25.4-19,41.81,7.84,28.74,24.15,33.47,59.45,37.5,26.9,3,58.22,2.3,95.65-2.15,21.58-2.62,42.08-12.18,61.87-21.36,7.22-3.39,14-6.54,20.67-9.27,27.8-11.52,60.8-9.1,88.2,6.42,3.54,2,7.07,3.92,10.59,5.8,20.85,11.45,40.57,22.25,51,39.42,4.65,7.5,7.68,15.49,10.65,23.25,2.86,7.57,5.83,15.41,10.31,22.82,6.73,11.15,19.89,23.48,34.41,32.2,12.49,7.57,31.43,15.72,50.59,11.87,17.83-3.57,28.3-17.44,39.45-32.12,7.07-9.33,14.46-18.94,24.15-26.93,12.62-10.41,29.48-19.82,41.08-26l1.18-.66c24.87-13.21,48.3-25.74,79.34-30,2-.3,4-.53,6-.72v-.54c-2.08.23-4.09.46-6.22.73-31.22,4.26-54.7,16.83-79.52,30.08l-1.28.66c-11.61,6.18-28.47,15.67-41.19,26.09-9.75,8-17,17.71-24.21,27.05-11,14.6-21.52,28.35-39,31.85-18.77,3.8-37.49-4.27-49.87-11.72-14.24-8.57-27.68-21.13-34.18-32.05-4.48-7.38-7.45-15.21-10.31-22.74-3-7.76-6-15.79-10.65-23.33-10.59-17.29-31.33-28.62-51.39-39.61-3.41-1.88-7-3.84-10.47-5.8-27.74-15.68-61-18.06-89.1-6.5-6.72,2.77-13.5,5.92-20.62,9.27-19.84,9.21-40.29,18.7-61.69,21.28-37.32,4.53-68.53,5.23-95.38,2.15-34.91-3.95-51-8.68-58.83-37.08-4.43-16.21,2.8-32,18.71-41.26,7-4.11,13.68-8.53,20.12-12.83,9.69-6.5,19.72-13.26,31.32-18.8,3.92-1.88,8.41-3.8,13-5.84,17.2-7.45,36.71-15.9,44.16-27.81,7.17-11.53,11.09-24.21,14.9-36.39,3.54-11.29,7.07-22.9,13.29-33.7a145.57,145.57,0,0,1,20.73-27.81c2-2.12,3.92-4.42,5.94-6.81,3.86-4.53,7.84-9.22,12.49-12.87,16.2-12.6,39.79-18.48,62.59-24.17,3-.76,5.94-1.49,9-2.22,4-1,8.13-2.54,12.16-4,6.73-2.38,13.68-4.81,20.29-5.46,21.17-2.07,39.44,5.19,54.63,12.53,2.69,1.3,5.21,2.5,7.85,3.72,17.25,8.31,33.5,16.06,46.67,28.67a125.22,125.22,0,0,1,21.52,27.13c2.58,4.37,5,9,7.62,13.94,12.72,24.09,27.12,51.45,65,59.52,21,4.49,43.76-3.19,65.67-10.61,13.17-4.45,25.55-8.6,37.54-10.37,17-2.5,48.47-3.5,78.79-3v-.53C1586.36,739.45,1554.86,740.41,1537.83,742.91Z"/><path class="cls-2" d="M1522.53,332.05c-20.45,9.73-32.73,23.52-36.42,40.92-1.46,6.81-.34,14.26.79,21.41,1.22,7.53,2.41,15.29.67,22.63-1.91,8.41-8.52,15.94-16.87,19.29a30.22,30.22,0,0,1-19.22.88c-22.08-17.6-40.12-29.28-67.3-36.89-7.79-2.15-15.63-4-25.44-6.11-4.76-1-9.58-2.11-14.23-3.15-29.53-6.64-60.13-13.49-109.83-10.68-23.87,1.35-41.86,4.38-57.55,15.25-10.36,7.19-18.21,15.84-25.66,24.21-5.49,6-11.1,12.26-17.54,17.83-3.31,2.85-7.17,5.65-10.93,8.38-5.55,4-11.38,8.18-15.63,12.79-8.8,9.57-9.19,25.51-5.89,36.24,4.37,14,17.43,26.05,30.54,37.19,3.2,2.76,6.28,5.8,9.64,9,8.74,8.61,17.82,17.48,30.43,22.09,13.84,5,30,5,45.33,4.31a125.61,125.61,0,0,0,16-2.2c7.68-1.42,15.64-2.92,23.31-2,27.29,3.35,58.22,16.38,78,27.48a170,170,0,0,1,29,20.13c6.61,5.77,12.95,11.57,19.73,17.79,11.54,10.61,23.47,21.56,37,32.39,12.6,10.11,29,19.64,54.8,13.53,14.62-3.5,27.23-9.49,39-15.37,17.31-8.76,33-21,48.18-32.93,13.84-10.91,27-21.21,40-27.51a48.36,48.36,0,0,1,14.4-4.42v-.5a49.72,49.72,0,0,0-14.85,4.49c-13.06,6.35-26.17,16.64-40.12,27.63-15.07,11.84-30.71,24.13-48,32.82-12,6.1-24.2,11.87-38.72,15.29-25.38,6-41.58-3.38-54-13.33-13.5-10.84-25.49-21.83-37-32.4-6.78-6.22-13.17-12.06-19.78-17.78a169.38,169.38,0,0,0-29.08-20.26c-19.89-11.1-50.94-24.2-78.34-27.55-7.84-1-15.86.5-23.64,2a121.09,121.09,0,0,1-15.81,2.16c-15.24.73-31.26.73-44.94-4.23-12.44-4.53-21.46-13.37-30.2-21.9-3.25-3.23-6.39-6.26-9.64-9.07-13-11-26.11-23-30.37-37-3.25-10.65-2.85-26.4,5.83-35.85,4.15-4.57,9.92-8.72,15.52-12.76,3.76-2.69,7.68-5.49,10.93-8.33A190.28,190.28,0,0,0,1152,420.08c7.56-8.38,15.29-17,25.66-24.09,15.52-10.76,33.34-13.79,57-15.14,49.6-2.77,80.13,4,109.55,10.68,4.66,1,9.48,2.11,14.24,3.15,9.75,2.08,17.65,4,25.33,6.11,27.11,7.53,45.16,19.22,67.07,36.77l.06,0,.1,0a32.06,32.06,0,0,0,20-.88c8.52-3.42,15.3-11.15,17.26-19.68,1.68-7.37.45-15.17-.73-22.74-1.06-7.15-2.18-14.56-.78-21.29,3.69-17.29,15.86-30.93,36.08-40.58,23.15-11,55.48-16.17,93.81-15.17v-.54C1578.23,315.8,1545.78,321,1522.53,332.05Z"/><path class="cls-2" d="M440.66,49.41c1.29,7.23,2.91,20.64-.73,29.63-6.05,14.83-23.53,27.59-40.4,40-23.87,17.4-48.52,35.43-41,59.52,4.09,13,14.29,21,31.38,24.7,14.79,3.19,33,2.77,53.51,2,37.43-1.42,62.82,2.81,77.56,6.65,14.9,3.91,28.57,10.37,41.91,16.67,17.82,8.42,34.68,16.41,53.73,18.18a82.05,82.05,0,0,0,21.07-.58c17.83-2.69,31.28-8.84,45.51-15.37,24.2-11,49.19-22.48,97.72-15.83,10.65,1.42,21.24,3.61,32.45,5.88,35.75,7.26,72.73,14.72,114.08-.31,37.38-12.87,60.92-36.5,83.61-59.36,10.59-10.65,21.57-21.71,33.68-31.39,15.52-12.38,36.64-29.32,62.59-23.44,10.42,2.3,21.18,3.46,31.6,4.57,16.53,1.81,33.56,3.65,48.92,10.26,11,4.73,19.5,11.45,27.79,18,3.87,3,7.9,6.19,12.1,9.11,9.31,6.41,16.82,14,24.1,21.28,6.22,6.23,12.61,12.61,20.12,18.33,10.08,6.11,18.94,11.45,29.25,17.83,12.44,7.8,23.82,17.06,34.8,26,21.06,17.18,40.9,33.36,66.85,38.58,18.32,3.73,37.26,3.23,61.41-1.54,12.89-2.57,29.92-7.53,41.92-11.29a677,677,0,0,0,73.18-27.67c16.75-7.6,29.53-18.28,37.32-31.08V197.3c-7.63,13.22-20.62,24.25-37.66,32a680.15,680.15,0,0,1-73.18,27.67c-11.94,3.72-28.92,8.72-41.75,11.26-24.09,4.72-42.86,5.22-61,1.57-25.72-5.19-45.5-21.32-66.51-38.42-11-8.92-22.36-18.22-34.91-26-10.32-6.41-19.11-11.79-29.2-17.86-7.45-5.65-13.78-12.07-20-18.25-7.28-7.3-14.91-14.87-24.15-21.33-4.26-2.92-8.24-6.07-12.1-9.14-8.3-6.53-16.87-13.3-28-18-15.47-6.69-32.61-8.53-49.2-10.3-10.42-1.15-21.18-2.31-31.43-4.61-26.45-6-47.86,11.1-63.44,23.59-12.15,9.76-23.08,20.75-33.73,31.43-22.69,22.86-46.12,46.45-83.26,59.21-41.13,14.95-78,7.49-113.65.27-11.2-2.27-21.79-4.42-32.5-5.88-48.75-6.65-73.91,4.8-98.22,15.91-14.18,6.49-27.57,12.6-45.34,15.29a80.72,80.72,0,0,1-20.73.54c-18.83-1.69-35.7-9.64-53.46-18.1-13.28-6.26-27.12-12.79-42.08-16.71-14.74-3.84-40.23-8.11-77.84-6.69-35.13,1.35-75,2.88-84.16-26.28-7.4-23.82,17.09-41.77,40.8-59.09,17-12.42,34.51-25.21,40.56-40.16,3.53-8.56,2.41-20.94.84-29.81-2.57-14.26-8.68-28.9-15.18-44.34-.67-1.66-1.34-3.31-2.07-5h-.79c.73,1.73,1.46,3.42,2.19,5.15C432,20.6,438.19,35.16,440.66,49.41Z"/><path class="cls-2" d="M1533.18,1026.59c-2.8,10.26-4.09,20.86-5.38,31.12-1.12,9-2.18,17.64-4.2,25.75h.72a215.82,215.82,0,0,0,4.21-25.71c1.34-10.26,2.63-20.86,5.43-31.08,9.7-35.66,35.69-57,75.26-61.63,2.57-.31,5-.5,7.51-.66v-.5c-2.53.12-5,.31-7.68.66C1569.21,969.22,1543,990.67,1533.18,1026.59Z"/><path class="cls-2" d="M1314.36,1054.94c-4.37-10.56-11.43-21.47-18.26-32l-1.18-1.81A215.44,215.44,0,0,1,1283,998.88c-7.79-16.09-15.86-32.73-31.83-44.72-14.18-10.6-37.32-16.71-63.55-16.71a141.05,141.05,0,0,0-40.79,5.65c-14.18,4.34-25.66,9.53-35.13,15.83-7.9,5.26-19.45,8-30.6,10.72a169.22,169.22,0,0,0-21.85,6.18c-20.29,7.92-33.06,18.94-36.87,32-3.59,12.18-3.2,27.89-2.8,43.07.16,9.22.44,18.79-.17,27.62-.12,1.54-.28,3.23-.51,4.89h.79c.17-1.66.33-3.31.45-4.89.61-8.79.39-18.4.16-27.62-.39-15.18-.72-30.85,2.8-43,3.81-12.91,16.43-23.86,36.54-31.7,6.61-2.53,14.29-4.38,21.74-6.14,11.15-2.69,22.75-5.46,30.82-10.8,9.41-6.26,20.84-11.41,35-15.75a140.41,140.41,0,0,1,40.45-5.57c26,0,48.93,6,63,16.56,15.85,11.91,23.93,28.47,31.66,44.53,3.86,7.83,7.45,15.33,11.93,22.25l1.24,1.84c6.78,10.53,13.78,21.36,18.15,31.93,2.47,6,4.6,12.52,6.67,18.9,1.07,3.27,2.08,6.42,3.14,9.46h.78c-1.06-3-2.13-6.27-3.19-9.57C1319,1067.51,1316.88,1060.9,1314.36,1054.94Z"/><path class="cls-2" d="M1280,1064.21c-1.79-8.34-3.87-17.8-8.79-26-2-3.38-5-6.19-8-8.92a52.07,52.07,0,0,1-6.39-6.57,80.68,80.68,0,0,1-7.06-11.22c-6.5-11.41-13.17-23.21-31.55-26.55a100.19,100.19,0,0,0-17.48-1.15c-7.79,0-16,.42-23.37.84-2.91.12-5.6.27-8.12.43-23.82,1-49.26,7.22-68.2,16.71-22.8,11.37-29.36,30.55-32.33,44.07-2.24,9.68-4.26,24,2.58,36.16.33.5.61,1,.89,1.5h.85c-.34-.58-.73-1.12-1.07-1.69-6.78-12-4.71-26.29-2.58-35.93,3-13.37,9.53-32.47,32.11-43.73,18.83-9.41,44.21-15.6,67.8-16.63,2.52-.08,5.21-.23,8.13-.39,7.34-.42,15.58-.88,23.31-.88a97.68,97.68,0,0,1,17.31,1.23c18,3.27,24.6,14.94,31,26.16a91.22,91.22,0,0,0,7.12,11.3,58.18,58.18,0,0,0,6.44,6.61c2.91,2.73,5.94,5.53,7.9,8.8,4.88,8.22,7,17.63,8.74,26a87.87,87.87,0,0,1,1.74,19.18h.73A85.47,85.47,0,0,0,1280,1064.21Z"/><path class="cls-2" d="M1616.05,1002.69h0c-35.47,2.19-55.31,28.66-60.58,80.77h.79c5.21-51.76,24.77-78,59.79-80.27a4.53,4.53,0,0,0,.73.08v-.5a3.34,3.34,0,0,0-.68-.08Z"/><path class="cls-2" d="M1607.15,1068.12c-3.87,4.42-7.68,9.53-8.41,15.34h.73c.79-5.61,4.54-10.69,8.29-15a28.4,28.4,0,0,1,9-2.23v-.46a28.49,28.49,0,0,0-9.47,2.27Z"/><path class="cls-2" d="M413.71,1014.14c5.82-13,15.75-20.9,31.32-32.7,2.41-1.88,5.1-3.72,8-5.76,11.09-7.88,23.7-16.83,26.5-26.13C485.1,931,468.34,920,451.14,911.9c-8.52-4-18.05-7.23-27.29-10.3-11.94-4-24.32-8.14-34.52-14.18-10.87-6.45-20.23-15.64-27.9-27.36-3.48-5.18-5-10.83-6.56-16.25s-3-10.76-6.22-15.83c-15-23.05-34.63-49.11-66.68-67.35-14-7.92-31.55-20.45-36.2-35.36-3-9.79,1.18-18.36,4.6-25.24l.55-1.23c7.62-15.52,30.37-52.56,78-61.9,8.51-1.69,19-2.92,30-4.26,13.9-1.62,28.3-3.34,38.72-6,16.36-4.15,28-9.87,40.4-16.36l1.8-.92c11.82-6.23,26.56-14,45.77-13,16.65,1,35.7,6.88,52.12,16.41,16.64,9.61,27.73,21.25,30.6,32a156.06,156.06,0,0,1,3.41,17.86,129.31,129.31,0,0,0,2.58,13.88c6.17,24.2,23.09,43.53,50.38,57.32,22.19,11.22,51.71,19.1,87.92,23.37,47,5.6,86.85-4.92,101.75-9.69,23.76-7.61,49.21-25.89,71.17-42.49s33.4-26.25,36-52.41c.85-8.42-.16-16.53-1.12-24.44-.33-3.07-.78-6.22-1.06-9.37-.17-2.31-.45-4.62-.78-7.07-1.07-8-2.08-16.18,0-24.63,4.42-17.45,19.1-25.17,45-23.44,33.79,2.15,63.37,17.52,75.25,39.15,9.47,17.21,1.85,35.2-4.2,49.72l-1,2.38c-10,24-23.7,42.73-41.69,57.25-10.25,8.19-21.52,15.87-32.5,23.37-4.09,2.72-8.24,5.57-12.27,8.41-5.72,4-12.05,7.61-18.21,11.1-7.68,4.38-15.64,9-22.42,14.26-9.58,7.42-16.69,15.83-22.47,23.05-18.77,23.67-31.88,44.57-40,63.71-7.34,17.29-27.62,31-54.24,36.77-34.35,7.34-83.55,6.49-146.19-2.54-30.71-4.45-49-16.52-54.3-35.92-6-22.13-27.85-33.16-50.89-44.8-5.93-3-12-6.12-18-9.38-24.49-13.76-12.27-26.78.62-40.57,5.77-6.19,11.71-12.53,14.23-19,4.09-10.15-1.18-20.87-6.22-31.24-2.63-5.42-5.1-10.49-6.33-15.52-5.94-23.94-11.88-42.85-29.65-50.61-9.52-4.15-21.74-4.72-37.42-1.69-2.53.43-5.33,1-8.3,1.61-6.05,1.24-12.95,2.62-18.6,3.46-9.81,1.54-20,2.42-30.82,3.31-11.49,1-23.31,2-36.37,3.88-19.78,2.8-37.21,9.33-50.32,18.86-12.88,9.34-21.07,21.18-23.76,34.2-1.12,5.53-1.46,10.3.79,15.48,6.5,15.14,26.56,25.83,44.21,35.24,4.09,2.15,7.95,4.19,11.65,6.3l.62.35c17.09,9.68,38.38,21.74,37.6,38.3C381.6,819.6,384.79,832,393,844c13,18.83,31.32,30.28,63.26,39.43,2.41.65,4.76,1.34,7.17,2,11,3.11,22.25,6.29,32.79,10.37,8.57,3.3,14.34,7.45,20.39,11.83,3.37,2.43,6.84,4.92,10.82,7.3a109.4,109.4,0,0,1,14.06,10.65c12.05,10.22,25.72,21.78,46.85,19,10.82-1.43,21.46-6.53,32.78-11.92,9.86-4.72,20.06-9.6,31.55-12.71,19.44-5.23,46.84-6.46,75.87-7.8,17.6-.81,35.86-1.65,52.5-3.42,37.88-4.11,63.49-13.22,78.28-27.86,4.43-4.3,7.35-9.18,10.09-13.91A72.82,72.82,0,0,1,876.67,856c2.13-2.65,5.49-4.69,8.74-6.72a52.83,52.83,0,0,0,5.32-3.54c3-2.31,5.94-4.73,8.8-7.11,3.14-2.61,6.39-5.34,9.86-7.91,5.39-4,11.49-7.73,17.37-11.38,5.44-3.38,11.1-6.88,16.25-10.64a95.56,95.56,0,0,0,11-9.64,83.07,83.07,0,0,1,12.66-10.84c8.63-5.88,17.65-12.3,24.88-19.44,6.17-6.11,8.91-12.1,12-18.41.85-2,1.8-3.95,2.92-6,2.3-4.57,6.5-8.91,10.53-13.14,2.41-2.5,4.82-5,6.84-7.57A225.48,225.48,0,0,0,1043.38,695c1.45-2.65,2.8-5.34,4.2-8,.56-1.12,1.17-2.2,1.73-3.31,2.64-5,5.44-10.07,8.19-15,7.84-14.25,16-29,20.22-42.41,2.69-8.57,5-17.72,2.19-26.75-9.75-31-53.57-63.32-93.75-69.24-18.54-2.68-42-2.53-65.89.54-39.73,5.11-54.42,18.26-52.4,47,.45,6.68,1.4,13.45,2.19,20,1.9,14.14,3.69,27.51,1.51,40.42-1.23,7.41-4.87,14.06-7.45,18.36-5.83,9.65-19.16,26.13-35.81,44C812,718.17,789.93,731,767.85,735.76c-41.86,9.11-98,.08-130.56-21-16.36-10.57-33.79-28.66-24.1-54.56a29.6,29.6,0,0,1,2.64-4.84,25.88,25.88,0,0,0,3.36-6.42c5-6,11.37-11.37,17.54-16.6,13.89-11.79,27-22.9,22-38.81-.9-2.92-2.8-6-4.82-9.37-4.09-6.84-8.29-13.87-3.36-18.06,8.63-7.38,20.4-15.06,32.89-23.17,21.58-14.06,43.94-28.66,50.27-42.34s-6.73-27.36-12.33-33.12c-6.05-6.27-13-12.72-20.28-19.64-5.67-5.3-11.55-10.79-17.09-16.25-4.6-4.57-9.08-8.95-13.51-13.29-10.2-10.07-19.84-19.52-29.75-29.67-3.93-4-7.85-8.37-11.71-12.52-6.45-7-13.06-14.18-19.73-20.29-14.57-13.37-31-18.87-49-16.37-17.81,2.5-37.14,11.95-53.9,20.56-2.3,1.15-4.54,2.31-6.78,3.5-31.27,16.09-66.8,34.31-76.15,54.56-7.9,17.25,6.72,25.28,22.19,33.77,1.68.92,3.36,1.84,5,2.81a177,177,0,0,1,24.55,16.9c8.63,7,16.3,15.29,23.7,23.36C504.09,500.54,509,506,514,510.41c17,15.26,39,22,60.24,28.55,20.9,6.38,42.42,12.91,58.73,27.55,0,.54.05,1,.05,1.58a10,10,0,0,1-.45,4.49C613.13,587,589.1,590.52,559,583.65c-9.19-2.12-18.27-5.46-27.91-9.07-21.52-8-43.77-16.21-69.37-10.87-18.43,3.8-31.21,12.71-43.6,21.32-12.21,8.53-24.82,17.33-43.09,21.71-10.7,2.5-21.74,3.23-37.26,4.07-39.11,2-58,5.11-74.08,19.1-21.18,18.48-47.29,51.1-55.31,64.59-3.14,5.38-5.1,9.41-6,12.37-6.84,23.51,14.23,41.88,33.28,55.33,4.6,3.19,9.69,6.18,14.57,9,4.37,2.57,8.91,5.22,13.11,8,8.52,5.84,15.36,12.79,21.92,19.52,3.41,3.42,6.77,6.92,10.42,10.26,26.28,24,34.18,45,25.71,67.93-6.16,16.49-20.16,37.35-52.38,43-11.83,2.07-24.61,3.11-38,4.14-12.5,1-25.5,2-38.17,4-11.09,1.73-21.56,4-31.71,6.18-14.18,3-27.57,5.92-41.41,7.11-24.26,2.23-45.78-1.27-66.62-4.53C34.69,934,17.2,931.22,0,932.8v.54c17.15-1.62,34.51,1.15,52.9,4.07,20.9,3.34,42.47,6.76,66.9,4.57,14-1.23,27.29-4.11,41.52-7.15,10.09-2.19,20.63-4.41,31.72-6.14,12.66-2,25.5-3,38-4,13.51-1.07,26.29-2.07,38.16-4.19,25.78-4.57,44.1-19.55,52.9-43.38,8.57-23.17.62-44.22-25.78-68.43-3.59-3.3-7-6.8-10.36-10.18-6.67-6.76-13.51-13.75-22.14-19.56-4.14-2.88-8.68-5.53-13.05-8.07-4.88-2.88-9.92-5.84-14.51-9.06-18.95-13.3-39.9-31.55-33.07-54.87.84-2.92,2.8-6.92,5.94-12.26,8-13.45,34-46,55.14-64.43,15.86-13.84,34.74-17,73.58-19,15.58-.81,26.61-1.54,37.48-4.12,18.44-4.34,31.1-13.22,43.38-21.74,12.83-9,25-17.49,43.2-21.21,25.38-5.27,47.52,2.92,68.87,10.83,9.69,3.57,18.76,7,28,9.11,30.48,7,54.8,3.3,74.46-11.22l.06-.12a9.56,9.56,0,0,0,.39-4.72v-1.73l-.11-.08c-16.36-14.75-38-21.4-59-27.82-21.19-6.45-43.15-13.21-60-28.35-4.87-4.42-9.86-9.84-15.07-15.56-7.4-8.07-15.07-16.37-23.76-23.4a181.88,181.88,0,0,0-24.6-17c-1.68-1-3.36-1.84-5-2.76-15.29-8.42-29.75-16.37-22-33.24,9.3-20.1,44.66-38.23,75.81-54.29,2.3-1.15,4.6-2.35,6.84-3.54,16.64-8.6,35.92-18,53.57-20.44s33.9,3,48.3,16.18c6.67,6.07,13.22,13.29,19.67,20.25,3.81,4.15,7.73,8.45,11.71,12.52,9.86,10.15,19.56,19.64,29.75,29.7,4.43,4.31,8.91,8.76,13.56,13.3,5.49,5.45,11.32,11,17,16.25,7.34,6.88,14.29,13.37,20.28,19.6,5.55,5.76,18.55,19.21,12.28,32.69s-28.64,28-50.15,42.12c-12.5,8.14-24.33,15.83-33,23.21-5.16,4.45-.9,11.64,3.35,18.59,2,3.31,3.87,6.46,4.72,9.26,5,15.68-8.07,26.71-21.86,38.39-6.16,5.26-12.55,10.68-17.59,16.71l-.06.12a25.85,25.85,0,0,1-3.36,6.33,32.57,32.57,0,0,0-2.64,4.89c-7.62,20.44,1,40,24.38,55.1,32.72,21.24,89.15,30.27,131.29,21.16,22.19-4.88,44.38-17.75,60.74-35.34,16.7-17.95,30.15-34.43,35.92-44.11,2.64-4.34,6.22-11,7.51-18.48,2.18-13,.39-26.36-1.46-40.54-.9-6.53-1.79-13.3-2.24-19.94-1-14.53,2.24-24.71,10.2-31.94,8.12-7.25,21.29-11.9,41.58-14.48,23.87-3.07,47.18-3.26,65.62-.54,40,5.84,83.43,38,93.12,68.82,2.86,8.91.51,18-2.12,26.51-4.21,13.45-12.39,28.13-20.23,42.31-2.69,5-5.49,10-8.13,15-.62,1.11-1.17,2.23-1.79,3.34-1.29,2.62-2.75,5.3-4.2,8a215.67,215.67,0,0,1-19.45,28.55c-2,2.54-4.48,5.07-6.83,7.57-4,4.23-8.3,8.61-10.65,13.26-1.06,2.07-2,4.11-3,6-2.91,6.26-5.71,12.22-11.77,18.25-7.28,7.15-16.25,13.53-24.88,19.37a88.78,88.78,0,0,0-12.72,10.87,90.28,90.28,0,0,1-10.87,9.64c-5.1,3.73-10.81,7.27-16.3,10.61-5.89,3.65-11.94,7.38-17.43,11.45-3.36,2.57-6.73,5.26-9.86,7.92-2.8,2.34-5.72,4.76-8.74,7.07-1.63,1.22-3.48,2.42-5.27,3.53-3.31,2-6.62,4.11-8.85,6.84a69.6,69.6,0,0,0-7.35,10.91c-2.74,4.73-5.6,9.61-9.91,13.87C844.11,895.1,818.68,904.1,781,908.17c-16.58,1.81-34.79,2.65-52.45,3.46-29.08,1.34-56.54,2.57-76.09,7.84-11.55,3.11-21.86,8-31.72,12.71-11.21,5.38-21.8,10.46-32.44,11.84-20.68,2.72-34.19-8.69-46.18-18.79-4.81-4-9.3-7.88-14.11-10.72a124.22,124.22,0,0,1-10.76-7.3c-6.17-4.42-11.89-8.57-20.57-11.91-10.59-4.08-22-7.3-32.89-10.37-2.41-.66-4.77-1.35-7.18-2-31.71-9.11-50-20.45-62.81-39.16-8.24-11.91-11.38-24.24-10.54-41.23.79-16.75-20.68-28.93-37.93-38.73l-.62-.3c-3.64-2.12-7.5-4.19-11.6-6.34-18.43-9.84-37.54-20-44-35-2.13-5.07-1.85-9.8-.67-15.25,5.37-26.75,33.56-47,73.46-52.64,13-1.88,24.88-2.84,36.25-3.84,10.82-.93,21.07-1.85,30.93-3.35,5.67-.84,12.56-2.22,18.66-3.46,2.92-.61,5.72-1.19,8.3-1.65,15.46-3,27.51-2.38,36.87,1.69,17.48,7.57,23.37,26.44,29.25,50.22,1.23,5.08,3.75,10.22,6.39,15.64,5,10.3,10.2,20.94,6.27,30.89-2.57,6.46-8.51,12.76-14.23,18.91-13.06,14-25.44,27.2-.45,41.19,5.94,3.34,12.05,6.45,18,9.41,23,11.6,44.66,22.55,50.6,44.53,5.38,19.6,23.81,31.82,54.91,36.27,62.71,9.11,112.07,10,146.48,2.58,27-5.8,47.4-19.64,54.74-37.08,8.13-19.17,21.19-40,40-63.67,5.71-7.18,12.88-15.52,22.35-22.93,6.67-5.23,14.68-9.81,22.42-14.22,6.1-3.54,12.44-7.15,18.15-11.11,4-2.84,8.24-5.72,12.27-8.45,11-7.45,22.36-15.21,32.56-23.4,18.1-14.56,31.77-33.35,41.8-57.44l1-2.39c6.16-14.52,13.73-32.62,4.21-50-12-21.75-41.75-37.27-75.88-39.5-26.33-1.69-41.41,6.11-45.78,23.9-2.18,8.49-1.12,16.75,0,24.74.28,2.46.55,4.77.78,7.08.34,3.18.67,6.29,1.06,9.37,1,7.87,2,16,1.18,24.36-2.63,26-14.12,35.73-35.8,52.1-22,16.52-47.35,34.81-70.94,42.34-14.85,4.77-54.58,15.26-101.37,9.69C632.52,747.18,586.24,720.2,575,676.44a127,127,0,0,1-2.46-13.83,162.93,162.93,0,0,0-3.48-18c-2.86-10.83-14.06-22.55-30.82-32.27-16.58-9.53-35.69-15.56-52.56-16.48-19.5-1-34.35,6.72-46.28,13l-1.74.92c-12.44,6.5-24,12.22-40.24,16.33-10.36,2.62-24.76,4.31-38.66,6-11,1.3-21.52,2.57-30,4.22-48,9.42-70.89,46.65-78.57,62.21l-.55,1.27c-3.48,7-7.68,15.52-4.6,25.51,4.65,15.06,22.41,27.71,36.48,35.66,31.88,18.13,51.55,44.11,66.46,67.2,3.19,5,4.71,10.37,6.16,15.64,1.57,5.46,3.09,11.14,6.61,16.4a86.58,86.58,0,0,0,28.07,27.52C399,893.92,411.52,898,423.51,902c9.25,3.11,18.78,6.26,27.18,10.3,17,8.07,33.62,18.83,28,37.15-2.75,9.15-15.19,18-26.29,25.82-2.85,2-5.49,4-8,5.85-15.63,11.75-25.49,19.67-31.38,32.85-4.37,9.83-4.7,27.43-.73,40.07,3.2,10.18,7.12,20,11.1,29.4h.79c-4-9.46-7.9-19.25-11.16-29.51C409.11,1041.38,409.39,1023.9,413.71,1014.14Z"/></g></g></g></svg>