<svg xmlns="http://www.w3.org/2000/svg" viewBox="0 0 17.91 26.57"><defs><style>.cls-1{fill:#005073;}</style></defs><title>Asset 7</title><g id="Layer_2" data-name="Layer 2"><g id="Layer_1-2" data-name="Layer 1"><path class="cls-1" d="M17.51,8,10.16.63A2.11,2.11,0,0,0,10,.4,1.35,1.35,0,0,0,9,0,1.31,1.31,0,0,0,8,.4,2.11,2.11,0,0,0,7.8.63L.42,8A1.39,1.39,0,0,0,0,8.72,1.55,1.55,0,0,0,0,9a1.38,1.38,0,0,0,1.37,1.38l15.16,0a1.37,1.37,0,0,0,1.38-1.37V9A1.32,1.32,0,0,0,17.51,8Z"/><path class="cls-1" d="M.4,18.55l7.35,7.39a1.81,1.81,0,0,0,.18.23,1.44,1.44,0,0,0,2,0,1.3,1.3,0,0,0,.18-.23l7.39-7.35a1.46,1.46,0,0,0,.38-.74,1.65,1.65,0,0,0,0-.32,1.37,1.37,0,0,0-1.37-1.37l-15.17,0A1.37,1.37,0,0,0,0,17.51v0A1.38,1.38,0,0,0,.4,18.55Z"/></g></g></svg>